<?xml version="1.0" encoding="UTF-8" standalone="no"?>
<svg
   xmlns:dc="http://purl.org/dc/elements/1.1/"
   xmlns:cc="http://creativecommons.org/ns#"
   xmlns:rdf="http://www.w3.org/1999/02/22-rdf-syntax-ns#"
   xmlns:svg="http://www.w3.org/2000/svg"
   xmlns="http://www.w3.org/2000/svg"
   xmlns:sodipodi="http://sodipodi.sourceforge.net/DTD/sodipodi-0.dtd"
   xmlns:inkscape="http://www.inkscape.org/namespaces/inkscape"
   id="Capa_1"
   enable-background="new 0 0 512 512"
   height="512"
   viewBox="0 0 512 512"
   width="512"
   version="1.1"
   sodipodi:docname="002-location.svg"
   inkscape:version="0.92.3 (2405546, 2018-03-11)">
  <metadata
     id="metadata61">
    <rdf:RDF>
      <cc:Work
         rdf:about="">
        <dc:format>image/svg+xml</dc:format>
        <dc:type
           rdf:resource="http://purl.org/dc/dcmitype/StillImage" />
      </cc:Work>
    </rdf:RDF>
  </metadata>
  <defs
     id="defs59" />
  <sodipodi:namedview
     pagecolor="#ffffff"
     bordercolor="#666666"
     borderopacity="1"
     objecttolerance="10"
     gridtolerance="10"
     guidetolerance="10"
     inkscape:pageopacity="0"
     inkscape:pageshadow="2"
     inkscape:window-width="2496"
     inkscape:window-height="1372"
     id="namedview57"
     showgrid="false"
     inkscape:zoom="1.0412131"
     inkscape:cx="553.60926"
     inkscape:cy="299.31525"
     inkscape:window-x="64"
     inkscape:window-y="32"
     inkscape:window-maximized="1"
     inkscape:current-layer="Capa_1" />
  <circle
     cx="357.54919"
     cy="323.94559"
     r="134.28101"
     id="circle2"
     style="fill:#9ce6fb" />
  <g
     id="g10"
     transform="translate(-20.168782,-0.96041821)"
     style="fill:#68dbf9">
    <path
       d="m 512,324.907 c 0,74.163 -60.122,134.285 -134.285,134.285 -3.945,0 -7.85,-0.175 -11.703,-0.505 68.682,-5.924 122.582,-63.562 122.582,-133.78 0,-70.218 -53.899,-127.856 -122.582,-133.78 3.853,-0.33 7.757,-0.505 11.703,-0.505 74.163,0 134.285,60.122 134.285,134.285 z"
       id="path4"
       inkscape:connector-curvature="0" />
    <ellipse
       cx="376.53"
       cy="232.858"
       rx="32.966"
       ry="11.852"
       id="ellipse6" />
    <path
       d="m 511.784,317.224 c -0.268,-0.031 -0.536,-0.041 -0.814,-0.041 h -48.298 c -0.563,-17.64 -3.042,-34.604 -7.165,-50.196 12.007,-4.667 22.872,-10.449 32.171,-17.23 0.299,-0.227 0.587,-0.464 0.845,-0.721 -2.895,-4.234 -6.037,-8.283 -9.385,-12.136 -0.185,0.113 -0.371,0.237 -0.556,0.371 -7.981,5.82 -17.301,10.821 -27.615,14.922 -8.728,-24.706 -21.884,-44.823 -38.142,-56.933 -2.658,-0.721 -5.347,-1.35 -8.066,-1.906 -1.514,0.484 -2.895,1.453 -3.884,2.843 -2.483,3.472 -1.679,8.293 1.793,10.776 14.093,10.074 25.742,28.013 33.612,50.255 -15.591,4.553 -32.837,7.258 -50.837,7.86 v -29.136 c 0,-4.265 -3.451,-7.726 -7.726,-7.726 -4.265,0 -7.726,3.461 -7.726,7.726 v 29.136 c -18.006,-0.603 -35.246,-3.307 -50.83,-7.858 7.878,-22.267 19.544,-40.219 33.656,-50.288 3.472,-2.472 4.286,-7.304 1.803,-10.776 -0.989,-1.38 -2.349,-2.349 -3.843,-2.843 -2.761,0.567 -5.481,1.216 -8.169,1.937 -16.259,12.111 -29.412,32.227 -38.138,56.934 -10.382,-4.13 -19.757,-9.173 -27.774,-15.047 -0.124,-0.093 -0.247,-0.175 -0.381,-0.258 -3.369,3.874 -6.511,7.933 -9.416,12.177 0.206,0.196 0.433,0.371 0.659,0.546 9.346,6.845 20.281,12.675 32.373,17.375 -4.121,15.59 -6.598,32.553 -7.161,50.195 h -49.112 c -0.144,2.555 -0.216,5.13 -0.216,7.726 0,2.596 0.072,5.171 0.216,7.726 h 49.107 c 0.554,17.548 2.995,34.525 7.149,50.232 -11.258,4.374 -21.52,9.716 -30.409,15.937 -1.01,0.711 -1.875,1.349 -2.617,1.926 2.905,4.255 6.057,8.324 9.436,12.208 0.629,-0.423 1.308,-0.917 2.06,-1.484 7.458,-5.641 16.216,-10.389 25.923,-14.251 3.257,9.274 7.151,17.974 11.668,25.903 7.644,13.434 16.638,24.024 26.527,31.41 8.845,2.399 18.053,3.898 27.526,4.436 v 0.004 c 0.412,0.031 0.824,0.052 1.236,0.072 2.132,0.103 4.286,0.154 6.449,0.154 1.394,0 2.778,-0.028 4.158,-0.069 0.344,-0.01 0.687,-0.025 1.031,-0.038 0.509,-0.02 1.02,-0.031 1.528,-0.057 0.319,-0.021 0.649,-0.031 0.968,-0.052 10e-4,-0.005 0,-0.011 10e-4,-0.016 9.475,-0.536 18.695,-2.041 27.546,-4.444 16.017,-11.95 29.284,-31.884 38.098,-56.857 10.291,4.1 19.59,9.096 27.555,14.908 0.175,0.124 0.35,0.247 0.536,0.35 3.358,-3.853 6.49,-7.912 9.385,-12.136 -0.247,-0.247 -0.525,-0.474 -0.814,-0.69 -9.286,-6.779 -20.136,-12.561 -32.126,-17.229 4.064,-15.435 6.535,-32.358 7.092,-50.217 h 48.296 c 0.278,0 0.546,-0.01 0.814,-0.041 0.144,-2.545 0.216,-5.11 0.216,-7.685 0,-2.575 -0.069,-5.139 -0.213,-7.684 z M 440.768,271.98 c 3.649,14.079 5.886,29.385 6.44,45.203 h -61.767 v -36.634 c 19.506,-0.617 38.274,-3.569 55.327,-8.569 z m -126.098,0.002 c 17.047,4.997 35.81,7.948 55.319,8.566 v 36.634 h -61.757 c 0.554,-15.818 2.79,-31.122 6.438,-45.2 z m -6.441,60.654 h 61.76 v 36.624 c -19.497,0.624 -38.315,3.595 -55.415,8.621 -3.649,-14.128 -5.814,-29.407 -6.345,-45.245 z m 21.17,82.827 c -4.036,-7.092 -7.524,-14.891 -10.46,-23.215 15.667,-4.47 33.063,-6.98 51.049,-7.537 v 65.951 c -15.097,-3.134 -29.304,-15.378 -40.589,-35.199 z m 96.714,-0.134 c -11.291,19.894 -25.54,32.2 -40.672,35.335 V 384.72 c 18.038,0.603 35.315,3.319 50.928,7.888 -2.891,8.135 -6.309,15.767 -10.256,22.721 z m 14.759,-37.469 c -17.08,-5.019 -35.885,-7.983 -55.431,-8.601 v -36.624 h 61.77 c -0.53,15.829 -2.692,31.101 -6.339,45.225 z"
       id="path8"
       inkscape:connector-curvature="0" />
  </g>
  <path
     d="m 409.85922,143.02958 c 0,21.084 -27.863,64.491 -42.917,86.405 -4.529,6.593 -14.251,6.593 -18.78,0 -15.055,-21.914 -42.917,-65.321 -42.917,-86.405 0,-28.889 23.419,-52.306998 52.307,-52.306998 28.888,0 52.307,23.418998 52.307,52.306998 z"
     id="path48"
     style="fill:#c940a7;fill-opacity:1"
     inkscape:connector-curvature="0" />
  <path
     d="m 409.85922,143.02558 c 0,21.088 -27.867,64.5 -42.917,86.412 -4.275,6.222 -13.186,6.573 -17.977,1.04 0.278,-0.329 0.556,-0.67 0.804,-1.04 15.061,-21.912 42.917,-65.324 42.917,-86.412 0,-25.961 -18.914,-47.501998 -43.711,-51.601998 2.792,-0.464 5.656,-0.7 8.581,-0.7 28.887,-10e-4 52.303,23.414998 52.303,52.301998 z"
     id="path50"
     style="fill:#be1197;fill-opacity:1"
     inkscape:connector-curvature="0" />
  <circle
     cx="357.55222"
     cy="142.23158"
     r="20.319"
     id="circle52"
     style="fill:#fddd45" />
  <path
     d="m 377.87222,142.23158 c 0,11.219 -9.096,20.315 -20.315,20.315 -2.699,0 -5.264,-0.525 -7.613,-1.483 7.448,-2.998 12.712,-10.302 12.712,-18.832 0,-8.53 -5.264,-15.834 -12.712,-18.832 2.349,-0.958 4.914,-1.483 7.613,-1.483 11.218,0 20.315,9.097 20.315,20.315 z"
     id="path54"
     inkscape:connector-curvature="0"
     style="fill:#f8c52d" />
  <g
     transform="matrix(0.82735709,0,0,0.82735709,33.745475,42.756601)"
     id="g869">
    <path
       style="fill:#ebeef2"
       inkscape:connector-curvature="0"
       id="path2"
       d="m 279.64062,388.42969 v 113.26953 c 0,5.6875 -4.60937,10.30078 -10.30078,10.30078 H 10.300781 C 4.613281,512 0,507.38672 0,501.69922 V 388.42969 C 0,351.8125 29.683594,322.12891 66.300781,322.12891 H 213.33984 c 36.61719,0 66.30078,29.68359 66.30078,66.30078 z m 0,0" />
    <path
       style="fill:#d3d8df"
       inkscape:connector-curvature="0"
       id="path4-3"
       d="m 279.64453,388.41406 v 113.28125 c 0,5.69141 -4.61328,10.30078 -10.30469,10.30078 h -12.28906 v -123.5664 c 0,-36.61328 -29.69141,-66.3086 -66.30469,-66.3086 h 22.60157 c 36.61718,0 66.29687,29.6836 66.29687,66.29297 z m 0,0" />
    <path
       style="fill:#7fb7ea"
       inkscape:connector-curvature="0"
       id="path6"
       d="M 54.011719,449.48828 H 225.63672 V 512 H 54.011719 Z m 0,0" />
    <path
       style="fill:#e39f6e"
       inkscape:connector-curvature="0"
       id="path8-6"
       d="m 141.41406,359.45703 c -12.48437,0 -22.60156,-10.11719 -22.60156,-22.60156 v -63.39453 h 45.19922 v 63.39453 c 0,12.48437 -10.11719,22.60156 -22.59766,22.60156 z m 0,0" />
    <path
       style="fill:#627687"
       inkscape:connector-curvature="0"
       id="path10"
       d="m 269.9375,129.03906 c -0.0312,6.20313 -0.52344,12.47656 -1.50391,18.80078 -0.32812,2.14453 -0.71093,4.29688 -1.15234,6.44922 l -6.30469,30.76172 H 21.851562 L 15.546875,154.28906 C 6.480469,110.0625 21.199219,67.382812 50.015625,38.179688 73.101562,14.773438 105.23438,0 141.41406,0 c 55.44141,0 101.39063,34.6875 119.83985,82.011719 2.61718,6.71875 4.67578,13.683593 6.14062,20.843751 0.10156,0.52344 0.21485,1.05859 0.3086,1.59375 1.14453,5.97656 1.85546,12.08594 2.12109,18.27734 0.0937,2.10157 0.13672,4.20313 0.11328,6.3125 z m 0,0" />
    <g
       style="fill:#455e6d"
       id="g18">
      <path
         inkscape:connector-curvature="0"
         id="path12"
         d="m 52.160156,140.76172 c -0.0039,0 -0.0078,0 -0.01172,0 -6.367188,-0.0508 -11.640626,-0.67188 -15.308594,-1.27735 -3.742188,-0.0391 -7.054688,2.64063 -7.675782,6.44922 -0.703124,4.21485 2.140626,8.19141 6.355469,8.89063 5.929688,0.98437 16.046875,2.04297 28.285157,0.85547 v -15.47657 c -4.164063,0.4375 -8.074219,0.58594 -11.644532,0.5586 z m 0,0" />
      <path
         inkscape:connector-curvature="0"
         id="path14-7"
         d="m 225.54297,147.35156 v 15.50391 c 14.88672,-2.64063 29.25781,-7.64844 42.89062,-15.01172 0.90625,-5.86328 1.37891,-11.67969 1.47266,-17.4375 -14.99609,8.9375 -29.95313,14.24609 -44.36328,16.94531 z m 0,0" />
      <path
         inkscape:connector-curvature="0"
         id="path16-5"
         d="M 267.70312,104.44922 227.66016,78.933594 c -3.59375,-2.296875 -4.64454,-7.070313 -2.35938,-10.675782 2.29688,-3.59375 7.06641,-4.644531 10.67188,-2.359374 l 25.28125,16.113281 c 2.61718,6.71875 4.67968,13.679687 6.14062,20.839841 0.10156,0.52735 0.21485,1.0625 0.30859,1.59766 z m 0,0" />
    </g>
    <path
       style="fill:#e39f6e"
       inkscape:connector-curvature="0"
       id="path20-3"
       d="m 274.3125,197.09375 c 0,16.80469 -13.62109,30.42969 -30.42578,30.42969 -16.80469,0 -30.42969,-13.625 -30.42969,-30.42969 0,-16.80469 13.625,-30.42578 30.42969,-30.42578 16.80469,0 30.42578,13.62109 30.42578,30.42578 z m 0,0" />
    <path
       style="fill:#e39f6e"
       inkscape:connector-curvature="0"
       id="path22-5"
       d="m 69.367188,197.09375 c 0,16.80469 -13.621094,30.42969 -30.425782,30.42969 -16.804687,0 -30.429687,-13.625 -30.429687,-30.42969 0,-16.80469 13.625,-30.42578 30.429687,-30.42578 16.804688,0 30.425782,13.62109 30.425782,30.42578 z m 0,0" />
    <path
       style="fill:#f8c298"
       inkscape:connector-curvature="0"
       id="path24-6"
       d="m 141.41406,299.00781 c -41.36328,0 -76.249998,-30.80078 -81.378904,-71.84375 L 44.898438,105.98047 H 237.92578 l -15.13672,121.18359 c -5.125,41.04297 -40.01562,71.84375 -81.375,71.84375 z m 0,0" />
    <path
       style="fill:#627687"
       inkscape:connector-curvature="0"
       id="path26-2"
       d="m 31.171875,138.30859 c 0,0 41.671875,11.76563 79.941405,-16.16796 0,0 85.46094,60.59374 168.61719,1.89843 4.21875,-2.97656 4.10937,-9.26953 -0.2461,-12.04297 L 227.82812,79.070312 H 31.171875 Z m 0,0" />
    <path
       style="fill:#aa5b26"
       inkscape:connector-curvature="0"
       id="path28-9"
       d="m 95.28125,203.07812 c -4.171875,0 -7.605469,-3.32031 -7.71875,-7.51562 l -0.132812,-4.82422 c -0.117188,-4.26562 3.246093,-7.81641 7.511718,-7.93359 4.273438,-0.125 7.816404,3.24609 7.933594,7.51172 l 0.13281,4.82421 c 0.11719,4.26563 -3.246091,7.81641 -7.511716,7.9336 -0.07031,0.004 -0.144532,0.004 -0.214844,0.004 z m 0,0" />
    <path
       style="fill:#aa5b26"
       inkscape:connector-curvature="0"
       id="path30-1"
       d="m 184.49219,203.07812 c -4.17188,0 -7.60547,-3.32031 -7.71875,-7.51562 l -0.13282,-4.82422 c -0.11718,-4.26562 3.2461,-7.81641 7.51172,-7.93359 4.27344,-0.125 7.82032,3.24609 7.9375,7.51172 l 0.12891,4.82421 c 0.11719,4.26563 -3.24609,7.81641 -7.51172,7.9336 -0.0703,0.004 -0.14453,0.004 -0.21484,0.004 z m 0,0" />
    <path
       style="fill:#e39f6e"
       inkscape:connector-curvature="0"
       id="path32-2"
       d="m 139.82422,245.82422 c -13.16406,0 -25.64063,-6.37891 -33.375,-17.0586 -2.50391,-3.45703 -1.73047,-8.28515 1.72656,-10.78906 3.45703,-2.5039 8.28906,-1.73047 10.78906,1.72656 4.83985,6.67969 12.63672,10.66797 20.85938,10.66797 8.22265,0 16.01953,-3.98828 20.85937,-10.66797 2.5,-3.45703 7.33203,-4.23046 10.78907,-1.72656 3.45703,2.50391 4.22656,7.33203 1.72656,10.78906 -7.73438,10.67969 -20.21094,17.0586 -33.375,17.0586 z m 0,0" />
    <path
       style="fill:#d3d8df"
       inkscape:connector-curvature="0"
       id="path34"
       d="M 61.738281,408.49609 V 512 H 46.285156 V 408.49609 c 0,-4.26172 3.460938,-7.72265 7.726563,-7.72265 4.265625,-0.004 7.726562,3.46093 7.726562,7.72265 z m 0,0" />
    <path
       style="fill:#d3d8df"
       inkscape:connector-curvature="0"
       id="path36-7"
       d="M 233.36719,408.49609 V 512 H 217.91406 V 408.49609 c 0,-4.26172 3.46094,-7.72265 7.72656,-7.72265 4.26563,-0.004 7.72657,3.46093 7.72657,7.72265 z m 0,0" />
  </g>
</svg>
