<svg id="Capa_1" enable-background="new 0 0 512 512" height="512" viewBox="0 0 512 512" width="512" xmlns="http://www.w3.org/2000/svg"><circle cx="256" cy="255.999" fill="#9ce6fb" r="134.281"/><path d="m390.281 256c0 74.163-60.121 134.284-134.284 134.284-3.945 0-7.85-.175-11.703-.505 68.682-5.924 122.581-63.562 122.581-133.779s-53.899-127.856-122.581-133.779c3.853-.33 7.757-.505 11.703-.505 74.163 0 134.284 60.121 134.284 134.284z" fill="#68dbf9"/><path d="m390.068 263.726c.144-2.555.216-5.13.216-7.726s-.072-5.172-.216-7.726h-49.109c-.556-17.865-3.026-34.789-7.087-50.223 11.984-4.664 22.828-10.44 32.11-17.213.299-.216.567-.453.824-.701-2.895-4.234-6.027-8.283-9.385-12.146-.185.113-.371.227-.546.361-7.961 5.809-17.255 10.801-27.539 14.899-8.816-24.985-22.087-44.921-38.114-56.869-8.838-2.392-18.038-3.894-27.495-4.432v-.018c-.418-.024-.839-.033-1.257-.053 0-.003.001-.006.001-.009-.408-.02-.819-.028-1.228-.044-.316-.012-.631-.029-.947-.039-.249-.008-.499-.016-.748-.022-1.177-.031-2.358-.049-3.546-.049-1.178 0-2.353.018-3.525.049-.847.022-1.688.06-2.53.097-.165.008-.332.01-.497.019v.002c-.391.019-.785.028-1.175.05-9.457.536-18.646 2.05-27.475 4.44-16.027 11.948-29.305 31.889-38.126 56.878-10.24-4.08-19.498-9.048-27.435-14.826-.216-.155-.433-.299-.659-.422-3.358 3.853-6.48 7.891-9.364 12.115.278.299.587.556.927.804 9.256 6.736 20.06 12.484 31.993 17.129-4.064 15.436-6.537 32.361-7.094 50.225h-49.109c-.144 2.555-.216 5.13-.216 7.726s.072 5.171.216 7.726h49.109c.556 17.87 3.024 34.796 7.085 50.231-11.894 4.629-22.667 10.354-31.902 17.061-.371.268-.7.556-1.01.865 2.874 4.213 6.006 8.252 9.354 12.105.258-.144.505-.299.742-.474 7.917-5.75 17.145-10.696 27.349-14.761 8.817 24.994 22.093 44.93 38.13 56.875 8.839 2.39 18.028 3.904 27.485 4.44.308.017.619.024.927.039v.002c.182.009.365.013.547.021.913.042 1.827.082 2.746.105 1.166.031 2.335.049 3.506.049 1.213 0 2.423-.019 3.631-.051.218-.006.435-.014.652-.021.342-.011.682-.029 1.023-.042.456-.018.914-.028 1.37-.051 0-.002-.001-.005-.001-.007.35-.017.702-.025 1.051-.044v-.018c9.437-.536 18.616-2.031 27.434-4.422h.01c9.89-7.376 18.893-17.946 26.548-31.369 4.459-7.827 8.309-16.407 11.543-25.544 10.336 4.111 19.674 9.126 27.666 14.964.165.124.33.227.494.33 3.358-3.863 6.501-7.922 9.395-12.156-.237-.237-.494-.443-.773-.649-9.313-6.803-20.197-12.6-32.228-17.277 4.15-15.698 6.591-32.662 7.145-50.2h49.107zm-64.572-15.452h-61.77v-36.634c19.544-.618 38.347-3.579 55.426-8.595 3.648 14.124 5.813 29.397 6.344 45.229zm-21.129-82.745c3.957 6.965 7.383 14.613 10.281 22.767-15.611 4.567-32.886 7.28-50.922 7.884v-65.931c15.12 3.128 29.351 15.41 40.641 35.28zm-96.755.042c11.287-19.896 25.529-32.193 40.661-35.324v65.933c-18.032-.604-35.308-3.317-50.92-7.886 2.893-8.136 6.312-15.769 10.259-22.723zm-14.763 37.47c17.081 5.018 35.885 7.98 55.425 8.599v36.634h-61.77c.531-15.834 2.696-31.108 6.345-45.233zm-6.345 60.685h61.77v36.634c-19.537.619-38.342 3.582-55.424 8.6-3.65-14.125-5.815-29.399-6.346-45.234zm21.17 82.806c-3.974-6.982-7.413-14.65-10.321-22.827 15.615-4.568 32.892-7.281 50.92-7.885v65.932c-15.101-3.133-29.314-15.382-40.599-35.22zm96.621.072c-11.285 19.792-25.485 32.021-40.569 35.147v-65.931c18.039.603 35.315 3.316 50.927 7.883-2.916 8.205-6.369 15.899-10.358 22.901zm14.86-37.649c-17.08-5.016-35.883-7.976-55.429-8.595v-36.634h61.77c-.531 15.835-2.694 31.106-6.341 45.229z" fill="#68dbf9"/><circle cx="385.805" cy="431.909" fill="#f5a871" r="17.777"/><circle cx="494.223" cy="431.909" fill="#f5a871" r="17.777"/><path d="m491.072 384.326v70.836c0 14.1-5.712 26.868-14.958 36.102-9.234 9.246-22.002 14.958-36.102 14.958-28.195 0-51.054-22.86-51.054-51.06v-70.836z" fill="#fdd1a7"/><path d="m440.014 479.919c-7.579 0-14.596-3.789-18.768-10.136-2.344-3.565-1.354-8.356 2.211-10.7 3.564-2.344 8.356-1.354 10.7 2.211 1.306 1.986 3.495 3.172 5.856 3.172s4.55-1.186 5.856-3.172c2.344-3.565 7.137-4.554 10.7-2.211 3.565 2.344 4.555 7.135 2.211 10.7-4.17 6.347-11.186 10.136-18.766 10.136z" fill="#f5a871"/><path d="m475.697 354.383h-42.652c-7.03 0-12.73 5.699-12.73 12.73 0 0-5.699-2.955-12.73-2.955h-3.255c-8.492 0-15.376 6.884-15.376 15.376v21.086h18.629c7.225 0 13.879 3.571 18.235 9.335 5.221 6.91 13.503 11.376 22.832 11.376h42.422v-51.572c.001-8.492-6.883-15.376-15.375-15.376z" fill="#fddd45"/><path d="m416.061 454.047c-4.268 0-7.726-3.459-7.726-7.726v-.761c0-4.268 3.459-7.726 7.726-7.726s7.726 3.459 7.726 7.726v.761c.001 4.268-3.458 7.726-7.726 7.726z" fill="#24d1f8"/><path d="m463.967 454.047c-4.268 0-7.726-3.459-7.726-7.726v-.761c0-4.268 3.459-7.726 7.726-7.726s7.726 3.459 7.726 7.726v.761c0 4.268-3.459 7.726-7.726 7.726z" fill="#24d1f8"/><circle cx="123.719" cy="84.769" fill="#f5a871" r="17.375"/><circle cx="17.375" cy="84.769" fill="#f5a871" r="17.375"/><path d="m70.547 157.398c-27.56 0-49.902-22.342-49.902-49.902v-60.606h99.804v60.605c0 27.561-22.342 49.903-49.902 49.903z" fill="#fdd1a7"/><path d="m97.544 60.424h-76.899v-38.719c0-8.796 7.131-15.927 15.927-15.927h91.468c2.314 0 4.19 1.876 4.19 4.19v15.77c0 19.156-15.529 34.686-34.686 34.686z" fill="#fddd45"/><path d="m46.245 103.961c-4.268 0-7.726-3.459-7.726-7.726v-.743c0-4.268 3.459-7.726 7.726-7.726s7.726 3.459 7.726 7.726v.743c.001 4.267-3.458 7.726-7.726 7.726z" fill="#24d1f8"/><path d="m94.849 103.961c-4.268 0-7.726-3.459-7.726-7.726v-.743c0-4.268 3.459-7.726 7.726-7.726 4.268 0 7.726 3.459 7.726 7.726v.743c0 4.267-3.458 7.726-7.726 7.726z" fill="#24d1f8"/><path d="m70.547 132.812c-7.466 0-14.377-3.732-18.489-9.983-2.344-3.565-1.355-8.356 2.21-10.701 3.563-2.344 8.355-1.356 10.701 2.21 1.243 1.891 3.329 3.021 5.577 3.021s4.334-1.13 5.577-3.021c2.347-3.565 7.138-4.553 10.701-2.21 3.565 2.345 4.554 7.136 2.21 10.701-4.109 6.25-11.021 9.983-18.487 9.983z" fill="#f5a871"/><circle cx="123.719" cy="427.944" fill="#c47a4a" r="17.375"/><circle cx="17.375" cy="427.944" fill="#c47a4a" r="17.375"/><path d="m70.547 360.033c27.56 0 49.902 22.342 49.902 49.902v40.735c0 27.56-22.342 49.902-49.902 49.902-27.56 0-49.902-22.342-49.902-49.902v-40.735c0-27.56 22.342-49.902 49.902-49.902z" fill="#e89a5e"/><path d="m46.245 444.405c-4.268 0-7.726-3.459-7.726-7.726v-.743c0-4.268 3.459-7.726 7.726-7.726s7.726 3.459 7.726 7.726v.743c.001 4.268-3.458 7.726-7.726 7.726z" fill="#c47a4a"/><path d="m94.849 444.405c-4.268 0-7.726-3.459-7.726-7.726v-.743c0-4.268 3.459-7.726 7.726-7.726 4.268 0 7.726 3.459 7.726 7.726v.743c0 4.268-3.458 7.726-7.726 7.726z" fill="#c47a4a"/><path d="m70.547 473.257c-7.466 0-14.377-3.732-18.489-9.983-2.344-3.565-1.355-8.356 2.21-10.701 3.563-2.344 8.355-1.356 10.701 2.21 1.243 1.891 3.329 3.021 5.577 3.021s4.334-1.13 5.577-3.021c2.347-3.565 7.138-4.553 10.701-2.21 3.565 2.345 4.554 7.136 2.21 10.701-4.109 6.25-11.021 9.983-18.487 9.983z" fill="#c47a4a"/><path d="m486.719 147.568h-93.653c-11.592 0-20.989-9.397-20.989-20.989v-51.197c0-37.453 30.362-67.815 67.815-67.815 37.453 0 67.815 30.362 67.815 67.815v51.197c.001 11.592-9.396 20.989-20.988 20.989z" fill="#d68a5a"/><path d="m507.71 75.38v51.2c0 11.59-9.4 20.99-20.99 20.99h-16.38c11.59 0 20.99-9.4 20.99-20.99v-51.2c0-18.72-7.59-35.68-19.87-47.95-10.45-10.45-24.3-17.51-39.76-19.37 2.68-.32 5.42-.49 8.19-.49 18.73 0 35.69 7.59 47.96 19.86s19.86 29.23 19.86 47.95z" fill="#c47a4a"/><path d="m483.24 77.816v34.454c0 23.932-19.406 43.338-43.347 43.338s-43.347-19.406-43.347-43.338v-34.454h45.372c1.109 0 2.175-.44 2.958-1.224l11.517-11.517c2.615-2.615 7.079-.766 7.079 2.932v5.626c0 2.307 1.867 4.182 4.174 4.182h15.594z" fill="#ffe5c4"/><path d="m418.784 110.98c-4.268 0-7.726-3.459-7.726-7.726v-.645c0-4.268 3.459-7.726 7.726-7.726s7.726 3.459 7.726 7.726v.645c0 4.267-3.459 7.726-7.726 7.726z" fill="#d68a5a"/><path d="m461.002 110.98c-4.268 0-7.726-3.459-7.726-7.726v-.645c0-4.268 3.459-7.726 7.726-7.726s7.726 3.459 7.726 7.726v.645c0 4.267-3.458 7.726-7.726 7.726z" fill="#d68a5a"/><path d="m439.892 136.041c-6.827 0-13.147-3.412-16.907-9.13-2.344-3.565-1.355-8.356 2.21-10.701 3.564-2.345 8.355-1.356 10.701 2.21.892 1.357 2.386 2.168 3.996 2.168s3.105-.811 3.997-2.168c2.346-3.565 7.138-4.554 10.701-2.21 3.565 2.345 4.554 7.136 2.21 10.701-3.76 5.718-10.081 9.13-16.908 9.13z" fill="#fdd1a7"/><g fill="#68dbf9"><path d="m182.126 48.771c-3.207 0-6.204-2.012-7.306-5.215-1.388-4.034.758-8.431 4.793-9.819 1.999-.688 4.041-1.359 6.071-1.996 4.074-1.273 8.407.99 9.684 5.062 1.276 4.072-.991 8.407-5.062 9.684-1.895.594-3.802 1.219-5.667 1.861-.832.287-1.68.423-2.513.423z"/><path d="m223.868 38.741c-3.788 0-7.095-2.788-7.64-6.646-.598-4.225 2.343-8.135 6.568-8.731 4.68-.662 9.454-1.19 14.187-1.569 4.27-.35 7.978 2.831 8.319 7.083.342 4.254-2.83 7.978-7.083 8.319-4.425.355-8.885.849-13.26 1.467-.365.052-.731.077-1.091.077zm64.253 0c-.361 0-.725-.025-1.094-.077-4.371-.619-8.832-1.113-13.258-1.466-4.254-.341-7.426-4.064-7.086-8.319.341-4.252 4.057-7.409 8.319-7.086 4.735.379 9.51.907 14.191 1.57 4.224.598 7.165 4.508 6.566 8.733-.545 3.859-3.852 6.645-7.638 6.645z"/><path d="m329.874 48.771c-.833 0-1.681-.136-2.513-.423-1.865-.642-3.772-1.268-5.667-1.861-4.071-1.277-6.338-5.612-5.062-9.684 1.277-4.072 5.611-6.335 9.684-5.062 2.03.637 4.072 1.308 6.071 1.996 4.035 1.388 6.181 5.785 4.793 9.819-1.102 3.203-4.099 5.215-7.306 5.215z"/><path d="m324.003 480.615c-3.288 0-6.336-2.115-7.371-5.418-1.276-4.072.991-8.407 5.062-9.684 1.863-.584 3.771-1.21 5.67-1.862 4.031-1.386 8.43.761 9.817 4.797 1.386 4.035-.761 8.431-4.797 9.817-2.031.698-4.073 1.369-6.068 1.995-.77.24-1.547.355-2.313.355z"/><path d="m237.621 490.23c-.206 0-.414-.008-.625-.024-4.735-.379-9.51-.907-14.191-1.57-4.224-.598-7.165-4.508-6.566-8.733s4.501-7.168 8.733-6.566c4.371.619 8.832 1.113 13.258 1.466 4.254.341 7.426 4.064 7.086 8.319-.325 4.042-3.707 7.108-7.695 7.108zm36.769 0c-3.988 0-7.369-3.065-7.693-7.109-.342-4.254 2.83-7.978 7.083-8.319 4.425-.355 8.885-.849 13.26-1.467 4.228-.608 8.134 2.343 8.731 6.568.598 4.225-2.343 8.135-6.568 8.731-4.68.662-9.454 1.19-14.187 1.569-.21.019-.419.027-.626.027z"/><path d="m187.997 480.615c-.766 0-1.543-.115-2.313-.355-1.995-.626-4.037-1.297-6.068-1.995-4.036-1.386-6.183-5.782-4.797-9.817 1.386-4.036 5.782-6.181 9.817-4.797 1.899.652 3.807 1.279 5.67 1.862 4.071 1.277 6.338 5.612 5.062 9.684-1.035 3.303-4.083 5.418-7.371 5.418z"/><path d="m472.884 195.723c-3.288 0-6.336-2.115-7.371-5.418-.584-1.863-1.21-3.771-1.862-5.67-1.386-4.035.761-8.431 4.797-9.817 4.03-1.386 8.431.761 9.817 4.797.698 2.031 1.369 4.073 1.995 6.068 1.276 4.072-.991 8.407-5.062 9.684-.77.242-1.548.356-2.314.356z"/><path d="m480.996 295.838c-.361 0-.725-.025-1.094-.077-4.224-.598-7.165-4.508-6.566-8.733.619-4.371 1.113-8.832 1.466-13.258.341-4.252 4.051-7.411 8.319-7.086 4.254.341 7.426 4.064 7.086 8.319-.379 4.735-.907 9.51-1.57 14.191-.547 3.857-3.854 6.644-7.641 6.644zm1.5-50.51c-3.988 0-7.369-3.065-7.693-7.109-.355-4.425-.849-8.885-1.467-13.26-.598-4.225 2.343-8.135 6.568-8.731 4.224-.605 8.134 2.343 8.731 6.568.662 4.68 1.19 9.454 1.569 14.187.342 4.254-2.83 7.978-7.083 8.319-.21.018-.419.026-.625.026z"/><path d="m470.959 337.603c-.833 0-1.679-.136-2.511-.422-4.036-1.386-6.183-5.782-4.797-9.817.652-1.899 1.279-3.807 1.862-5.67 1.276-4.071 5.61-6.336 9.684-5.062 4.071 1.277 6.338 5.612 5.062 9.684-.626 1.995-1.297 4.037-1.995 6.068-1.1 3.205-4.097 5.219-7.305 5.219z"/><path d="m41.041 337.603c-3.208 0-6.205-2.014-7.306-5.218-.698-2.031-1.369-4.073-1.995-6.068-1.276-4.072.991-8.407 5.062-9.684 4.074-1.274 8.408.991 9.684 5.062.583 1.863 1.21 3.771 1.862 5.67 1.386 4.035-.761 8.431-4.797 9.817-.83.285-1.677.421-2.51.421z"/><path d="m31.004 295.849c-3.788 0-7.095-2.788-7.64-6.646-.662-4.68-1.19-9.454-1.569-14.187-.342-4.254 2.83-7.978 7.083-8.319 4.274-.344 7.979 2.831 8.319 7.083.355 4.425.849 8.885 1.467 13.26.598 4.225-2.343 8.135-6.568 8.731-.368.053-.732.078-1.092.078zm-1.5-50.51c-.206 0-.414-.008-.625-.024-4.254-.341-7.426-4.064-7.086-8.319.379-4.735.907-9.51 1.57-14.191.599-4.225 4.505-7.17 8.733-6.566 4.224.598 7.165 4.508 6.566 8.733-.619 4.371-1.113 8.832-1.466 13.258-.322 4.043-3.704 7.109-7.692 7.109z"/><path d="m39.116 195.723c-.766 0-1.543-.115-2.313-.355-4.071-1.277-6.338-5.612-5.062-9.684.626-1.995 1.297-4.037 1.995-6.068 1.386-4.036 5.783-6.181 9.817-4.797 4.036 1.386 6.183 5.782 4.797 9.817-.652 1.899-1.279 3.807-1.862 5.67-1.036 3.303-4.085 5.417-7.372 5.417z"/></g><path d="m491.07 369.76v51.57h-14.62v-51.57c0-8.49-6.89-15.38-15.38-15.38h14.63c8.49 0 15.37 6.89 15.37 15.38z" fill="#fdd330"/><path d="m132.23 9.97v15.77c0 19.15-15.53 34.68-34.69 34.68h-14.62c19.15 0 34.68-15.53 34.68-34.68v-15.77c0-2.32-1.87-4.19-4.19-4.19h14.63c2.31 0 4.19 1.87 4.19 4.19z" fill="#fdd330"/></svg>