<svg id="Capa_1" enable-background="new 0 0 512 512" height="512" viewBox="0 0 512 512" width="512" xmlns="http://www.w3.org/2000/svg"><circle cx="255.007" cy="212.554" fill="#5e648a" r="212.554"/><path d="m374.679 36.877c40.064 38.657 64.991 92.899 64.991 152.969 0 117.39-95.164 212.554-212.554 212.554-44.384 0-85.585-13.612-119.672-36.877 38.23 36.887 90.243 59.585 147.563 59.585 117.39 0 212.554-95.164 212.554-212.554 0-73.006-36.813-137.408-92.882-175.677z" fill="#4c537d"/><circle cx="255.007" cy="212.554" fill="#e4eaf7" r="170.808"/><path d="m107.444 238.119c0-94.334 76.473-170.808 170.808-170.808 43.879 0 83.889 16.552 114.14 43.745-31.114-42.046-81.063-69.311-137.385-69.311-94.334 0-170.808 76.473-170.808 170.807 0 50.455 21.882 95.794 56.667 127.062-20.999-28.375-33.422-63.483-33.422-101.495z" fill="#c7cfe2"/><path d="m255.008 220.299c-2.02 0-3.996-.791-5.471-2.262l-87.984-87.761c-3.029-3.021-3.035-7.925-.014-10.954 3.021-3.03 7.925-3.036 10.954-.013l84.65 84.435 78.579-25.03c4.078-1.297 8.434.954 9.731 5.03 1.298 4.076-.953 8.432-5.029 9.731l-83.065 26.459c-.773.246-1.565.365-2.351.365z" fill="#ff9fc8"/><g fill="#9498b1"><circle cx="255.007" cy="88.349" r="7.746"/><circle cx="255.007" cy="337.204" r="7.746"/><circle cx="379.434" cy="212.776" r="7.746"/><circle cx="130.579" cy="212.776" r="7.746"/><circle cx="342.99" cy="124.793" r="7.746"/><circle cx="167.023" cy="300.76" r="7.746"/><circle cx="342.99" cy="300.76" r="7.746"/></g><path d="m469.547 333.244v71.021c0 6.331-1.312 12.6-3.852 18.393l-15.14 34.493c-1.053 2.396-1.601 4.999-1.601 7.622v47.227h-123.587v-49.303c0-4.554-1.642-8.954-4.606-12.393l-20.324-23.557c-7.177-8.313-11.123-18.919-11.123-29.898v-50.232c0-9.243 3.749-17.608 9.801-23.67 2.024-2.024 4.307-3.78 6.785-5.236 4.957-2.902 10.73-4.565 16.885-4.565v-108.167c0-5.329 2.158-10.152 5.659-13.642 3.501-3.501 8.324-5.659 13.653-5.659 10.668 0 19.312 8.644 19.312 19.302v74.966l16.792 5.288 18.682 5.876 16.833 5.298 17.587 5.536 16.813 5.298 3.057.96c10.938 3.437 18.374 13.579 18.374 25.042z" fill="#ffc76d"/><path d="m322.785 313.147v33.502c0 4.658-3.78 8.438-8.437 8.438-4.668 0-8.448-3.78-8.448-8.438v-28.937c4.957-2.902 10.73-4.565 16.885-4.565z" fill="#ffab24"/><path d="m378.202 285.233v61.416c0 4.658-3.78 8.438-8.437 8.438-4.668 0-8.448-3.78-8.448-8.438v-88.02c0-.434.031-.867.093-1.291v22.607z" fill="#ffab24"/><path d="m413.717 296.407v50.242c0 4.658-3.78 8.438-8.448 8.438-4.658 0-8.437-3.78-8.437-8.438v-54.549c0-.331.021-.661.052-.991z" fill="#ffab24"/><path d="m448.118 307.24v39.409c0 4.658-3.79 8.438-8.448 8.438-4.668 0-8.448-3.78-8.448-8.438v-43.519c0-.403.031-.806.083-1.188z" fill="#ffab24"/></svg>