<?xml version="1.0" encoding="UTF-8" standalone="no"?>
<svg
   xmlns:dc="http://purl.org/dc/elements/1.1/"
   xmlns:cc="http://creativecommons.org/ns#"
   xmlns:rdf="http://www.w3.org/1999/02/22-rdf-syntax-ns#"
   xmlns:svg="http://www.w3.org/2000/svg"
   xmlns="http://www.w3.org/2000/svg"
   xmlns:sodipodi="http://sodipodi.sourceforge.net/DTD/sodipodi-0.dtd"
   xmlns:inkscape="http://www.inkscape.org/namespaces/inkscape"
   id="Capa_1"
   enable-background="new 0 0 512 512"
   height="512"
   viewBox="0 0 512 512"
   width="512"
   version="1.1"
   sodipodi:docname="015-feedback.svg"
   inkscape:version="0.92.3 (2405546, 2018-03-11)">
  <metadata
     id="metadata71">
    <rdf:RDF>
      <cc:Work
         rdf:about="">
        <dc:format>image/svg+xml</dc:format>
        <dc:type
           rdf:resource="http://purl.org/dc/dcmitype/StillImage" />
      </cc:Work>
    </rdf:RDF>
  </metadata>
  <defs
     id="defs69" />
  <sodipodi:namedview
     pagecolor="#ffffff"
     bordercolor="#666666"
     borderopacity="1"
     objecttolerance="10"
     gridtolerance="10"
     guidetolerance="10"
     inkscape:pageopacity="0"
     inkscape:pageshadow="2"
     inkscape:window-width="2496"
     inkscape:window-height="1372"
     id="namedview67"
     showgrid="false"
     inkscape:zoom="1.0776215"
     inkscape:cx="544.88732"
     inkscape:cy="174.97294"
     inkscape:window-x="64"
     inkscape:window-y="32"
     inkscape:window-maximized="1"
     inkscape:current-layer="g932" />
  <path
     d="m256 133.412c-67.704 0-122.588 54.885-122.588 122.588 0 37.8 17.113 71.599 44.009 94.086l39.53-15.325 6.77 7.193c17.437 18.528 45.97 18.527 63.406-.001l7.062-7.504 40.385 15.641c26.899-22.487 44.014-56.288 44.014-94.091.001-67.703-54.884-122.587-122.588-122.587z"
     fill="#4f67d2"
     id="path2"
     style="fill:#324ccc;fill-opacity:1" />
  <path
     d="m299.951 141.535c-13.645-5.243-28.461-8.123-43.951-8.123-67.704 0-122.588 54.885-122.588 122.588 0 37.8 17.113 71.599 44.009 94.086l39.53-15.325 23.523-12.937c-12.129-19.015-19.159-41.598-19.159-65.825 0-52.212 32.646-96.793 78.636-114.464z"
     fill="#324ccc"
     id="path4" />
  <path
     d="m222.622 340.15c18.031 19.158 47.535 19.158 65.565-.001l6.954-7.391-9.776-3.786c-2.341-.906-3.884-3.158-3.884-5.668v-19.303c-15.946 11-36.567 9.92-51.035.676v18.408c0 2.642-1.623 5.012-4.086 5.967l-10.391 4.028z"
     fill="#ffbd86"
     id="path6" />
  <path
     d="m256 311.924c-9.161.062-18.16-2.523-25.553-7.246v18.408c0 2.642-1.623 5.012-4.086 5.967l-10.391 4.028 6.653 7.068c5.278 5.608 11.542 9.561 18.211 11.886l9.02-5.533c3.818-2.343 6.146-6.502 6.146-10.983z"
     fill="#f6a96c"
     id="path8" />
  <path
     d="m489.908 0h-142.272c-7.775 0-14.137 6.361-14.137 14.137v103.867c0 7.775 6.362 14.137 14.137 14.137h31.48c1.758 0 3.183 1.425 3.183 3.183v32.74c0 2.835 3.428 4.255 5.433 2.251l37.241-37.241c.597-.597 1.406-.932 2.25-.932h62.686c7.775 0 14.137-6.362 14.137-14.137v-103.868c-.001-7.776-6.363-14.137-14.138-14.137z"
     fill="#fee55a"
     id="path10" />
  <path
     d="m489.908 512h-142.272c-7.775 0-14.137-6.361-14.137-14.137v-103.866c0-7.775 6.362-14.137 14.137-14.137h31.48c1.758 0 3.183-1.425 3.183-3.183v-32.74c0-2.835 3.428-4.255 5.433-2.251l37.241 37.241c.597.597 1.406.932 2.25.932h62.686c7.775 0 14.137 6.362 14.137 14.137v103.867c-.001 7.776-6.363 14.137-14.138 14.137z"
     fill="#43cb8e"
     id="path12" />
  <path
     d="m22.092 0h142.273c7.775 0 14.137 6.361 14.137 14.137v103.867c0 7.775-6.362 14.137-14.137 14.137h-31.48c-1.758 0-3.183 1.425-3.183 3.183v32.74c0 2.835-3.428 4.255-5.433 2.251l-37.241-37.241c-.597-.597-1.406-.932-2.25-.932h-62.686c-7.775 0-14.137-6.362-14.137-14.137v-103.868c0-7.776 6.362-14.137 14.137-14.137z"
     fill="#ffa85d"
     id="path14" />
  <path
     d="m22.092 512h142.273c7.775 0 14.137-6.361 14.137-14.137v-103.866c0-7.775-6.362-14.137-14.137-14.137h-31.48c-1.758 0-3.183-1.425-3.183-3.183v-32.74c0-2.835-3.428-4.255-5.433-2.251l-37.241 37.241c-.597.597-1.406.932-2.25.932h-62.686c-7.775 0-14.137 6.362-14.137 14.137v103.867c0 7.776 6.362 14.137 14.137 14.137z"
     fill="#ff656f"
     id="path16" />
  <path
     d="m364.92 118.004v-103.867c0-7.776 6.361-14.137 14.136-14.137h-31.421c-7.775 0-14.137 6.361-14.137 14.137v103.867c0 7.775 6.362 14.137 14.137 14.137h31.421c-7.775-.001-14.136-6.363-14.136-14.137z"
     fill="#ffd301"
     id="path18" />
  <path
     d="m413.719 135.323c0-1.758-1.425-3.183-3.183-3.183h-31.421c1.758 0 3.183 1.425 3.183 3.183v32.74c0 2.835 3.428 4.255 5.433 2.251l25.987-25.987v-9.004z"
     fill="#ffd301"
     id="path20" />
  <path
     d="m413.719 376.678v-9.003l-25.987-25.988c-2.005-2.005-5.433-.585-5.433 2.251v32.74c0 1.758-1.425 3.183-3.183 3.183h31.421c1.757-.001 3.182-1.426 3.182-3.183z"
     fill="#00ba66"
     id="path22" />
  <path
     d="m364.92 497.863v-103.867c0-7.775 6.362-14.136 14.137-14.136h-31.421c-7.775 0-14.137 6.361-14.137 14.136v103.867c0 7.775 6.362 14.137 14.137 14.137h31.421c-7.776 0-14.137-6.361-14.137-14.137z"
     fill="#00ba66"
     id="path24" />
  <path
     d="m118.448 133.072c-.597-.597-1.406-.932-2.25-.932h-31.421c.844 0 1.654.335 2.25.932l37.241 37.241c2.005 2.005 5.433.585 5.433-2.251v-23.737z"
     fill="#ff9839"
     id="path26" />
  <path
     d="m39.375 118.004v-103.867c0-7.776 6.362-14.137 14.137-14.137h-31.42c-7.775 0-14.137 6.361-14.137 14.137v103.867c0 7.775 6.362 14.137 14.137 14.137h31.421c-7.776-.001-14.138-6.363-14.138-14.137z"
     fill="#ff9839"
     id="path28" />
  <path
     d="m118.448 378.928 11.253-11.253v-23.737c0-2.836-3.428-4.255-5.433-2.251l-37.241 37.241c-.597.597-1.406.932-2.25.932h31.421c.844 0 1.653-.335 2.25-.932z"
     fill="#ff4756"
     id="path30" />
  <path
     d="m39.375 497.863v-103.867c0-7.775 6.362-14.136 14.137-14.136h-31.42c-7.775 0-14.137 6.361-14.137 14.136v103.867c0 7.775 6.362 14.137 14.137 14.137h31.421c-7.776 0-14.138-6.361-14.138-14.137z"
     fill="#ff4756"
     id="path32" />
  <path
     d="m256 378.588c30.688 0 58.742-11.276 80.245-29.911l-42.056-16.288-7.062 7.504c-17.436 18.528-45.969 18.528-63.406.001l-6.77-7.193-41.2 15.973c21.504 18.636 49.559 29.914 80.249 29.914z"
     fill="#23a8fe"
     id="path34" />
  <path
     d="m241.689 351.511c-6.582-2.23-12.77-6.093-17.968-11.616l-6.77-7.193-41.2 15.973c10.445 9.052 22.44 16.362 35.527 21.493z"
     fill="#0193fa"
     id="path36" />
  <path
     d="m459.73 56.45h-81.916c-4.267 0-7.726-3.459-7.726-7.726s3.459-7.726 7.726-7.726h81.916c4.267 0 7.726 3.459 7.726 7.726s-3.459 7.726-7.726 7.726z"
     fill="#ffd301"
     id="path42" />
  <path
     d="m459.73 91.4h-81.916c-4.267 0-7.726-3.459-7.726-7.726s3.459-7.726 7.726-7.726h81.916c4.267 0 7.726 3.459 7.726 7.726.001 4.267-3.459 7.726-7.726 7.726z"
     fill="#ffd301"
     id="path44" />
  <path
     d="m459.73 436.052h-81.916c-4.267 0-7.726-3.459-7.726-7.726s3.459-7.726 7.726-7.726h81.916c4.267 0 7.726 3.459 7.726 7.726s-3.459 7.726-7.726 7.726z"
     fill="#00ba66"
     id="path46" />
  <path
     d="m459.73 471.003h-81.916c-4.267 0-7.726-3.459-7.726-7.726s3.459-7.726 7.726-7.726h81.916c4.267 0 7.726 3.459 7.726 7.726.001 4.267-3.459 7.726-7.726 7.726z"
     fill="#00ba66"
     id="path48" />
  <path
     d="m134.186 56.45h-81.916c-4.267 0-7.726-3.459-7.726-7.726s3.459-7.726 7.726-7.726h81.916c4.267 0 7.726 3.459 7.726 7.726s-3.459 7.726-7.726 7.726z"
     fill="#ff9839"
     id="path50" />
  <path
     d="m134.186 91.4h-81.916c-4.267 0-7.726-3.459-7.726-7.726s3.459-7.726 7.726-7.726h81.916c4.267 0 7.726 3.459 7.726 7.726s-3.459 7.726-7.726 7.726z"
     fill="#ff9839"
     id="path52" />
  <path
     d="m134.186 436.052h-81.916c-4.267 0-7.726-3.459-7.726-7.726s3.459-7.726 7.726-7.726h81.916c4.267 0 7.726 3.459 7.726 7.726s-3.459 7.726-7.726 7.726z"
     fill="#ff4756"
     id="path54" />
  <path
     d="m134.186 471.003h-81.916c-4.267 0-7.726-3.459-7.726-7.726s3.459-7.726 7.726-7.726h81.916c4.267 0 7.726 3.459 7.726 7.726s-3.459 7.726-7.726 7.726z"
     fill="#ff4756"
     id="path56" />
  <g
     id="g918"
     transform="matrix(0.35555886,0,0,0.35555886,48.780623,277.21522)">
    <g
       id="g932"
       transform="matrix(1.0720101,0,0,1.0720101,702.06832,-336.33332)">
      <path
         inkscape:connector-curvature="0"
         style="fill:#627687;stroke-width:1.33333337"
         id="path10-3"
         d="m 58.512283,203.53874 c -0.0416,8.27084 -0.69792,16.63541 -2.00522,25.06771 -0.43749,2.85937 -0.9479,5.72917 -1.53645,8.59896 l -8.40626,41.01563 H -272.26899 l -8.40625,-41.01563 c -12.08854,-58.96875 7.53646,-115.87501 45.95834,-154.812508 30.78125,-31.208335 73.625,-50.906253 121.86458,-50.906253 73.921883,0 135.187513,46.250002 159.786473,109.348961 3.48958,8.95834 6.23438,18.2448 8.1875,27.79167 0.13541,0.69792 0.28647,1.41146 0.41147,2.125 1.52604,7.96875 2.47394,16.11459 2.82812,24.36979 0.12493,2.80209 0.18229,5.60418 0.15104,8.41667 z m 0,0" />
      <g
         transform="matrix(1.3333334,0,0,1.3333334,-301.40441,31.486649)"
         style="fill:#455e6d"
         id="g18">
        <path
           inkscape:connector-curvature="0"
           id="path12-6"
           d="m 52.160156,140.76172 c -0.0039,0 -0.0078,0 -0.01172,0 -6.367188,-0.0508 -11.640626,-0.67188 -15.308594,-1.27735 -3.742188,-0.0391 -7.054688,2.64063 -7.675782,6.44922 -0.703124,4.21485 2.140626,8.19141 6.355469,8.89063 5.929688,0.98437 16.046875,2.04297 28.285157,0.85547 v -15.47657 c -4.164063,0.4375 -8.074219,0.58594 -11.644532,0.5586 z m 0,0" />
        <path
           inkscape:connector-curvature="0"
           id="path14-7"
           d="m 225.54297,147.35156 v 15.50391 c 14.88672,-2.64063 29.25781,-7.64844 42.89062,-15.01172 0.90625,-5.86328 1.37891,-11.67969 1.47266,-17.4375 -14.99609,8.9375 -29.95313,14.24609 -44.36328,16.94531 z m 0,0" />
        <path
           inkscape:connector-curvature="0"
           id="path16-5"
           d="M 267.70312,104.44922 227.66016,78.933594 c -3.59375,-2.296875 -4.64454,-7.070313 -2.35938,-10.675782 2.29688,-3.59375 7.06641,-4.644531 10.67188,-2.359374 l 25.28125,16.113281 c 2.61718,6.71875 4.67968,13.679687 6.14062,20.839841 0.10156,0.52735 0.21485,1.0625 0.30859,1.59766 z m 0,0" />
      </g>
      <path
         inkscape:connector-curvature="0"
         style="fill:#e39f6e;stroke-width:1.33333337"
         id="path20-3"
         d="m 64.345613,294.27833 c 0,22.40625 -18.16146,40.57292 -40.56771,40.57292 -22.4062495,0 -40.57292,-18.16667 -40.57292,-40.57292 0,-22.40625 18.1666705,-40.56771 40.57292,-40.56771 22.40625,0 40.56771,18.16146 40.56771,40.56771 z m 0,0" />
      <path
         inkscape:connector-curvature="0"
         style="fill:#e39f6e;stroke-width:1.33333337"
         id="path22-5"
         d="m -208.91482,294.27833 c 0,22.40625 -18.16146,40.57292 -40.56771,40.57292 -22.40625,0 -40.57292,-18.16667 -40.57292,-40.57292 0,-22.40625 18.16667,-40.56771 40.57292,-40.56771 22.40625,0 40.56771,18.16146 40.56771,40.56771 z m 0,0" />
      <path
         inkscape:connector-curvature="0"
         style="fill:#ffbc83;stroke-width:1.33333337;fill-opacity:1"
         id="path24-6"
         d="m -112.85232,430.16375 c -55.15104,0 -101.66667,-41.06771 -108.50521,-95.79167 L -241.53982,172.79395 H 15.829983 L -4.3523065,334.37208 c -6.8333405,54.72396 -53.3541705,95.79167 -108.5000135,95.79167 z m 0,0" />
      <path
         inkscape:connector-curvature="0"
         style="fill:#627687;stroke-width:1.33333337"
         id="path26-2"
         d="m -259.8419,215.89811 c 0,0 55.5625,15.68751 106.58854,-21.55728 0,0 113.947923,80.79166 224.822933,2.53124 5.625,-3.96875 5.47916,-12.35937 -0.32813,-16.05729 L 2.3664335,136.91374 H -259.8419 Z m 0,0" />
      <path
         inkscape:connector-curvature="0"
         style="fill:#aa5b26;stroke-width:1.33333337"
         id="path28-9"
         d="m -174.36274,302.25749 c -5.5625,0 -10.14062,-4.42708 -10.29166,-10.02083 l -0.17709,-6.43229 c -0.15625,-5.68749 4.32813,-10.42188 10.01563,-10.57812 5.69792,-0.16667 10.42187,4.32812 10.57812,10.01563 l 0.17708,6.43228 c 0.15626,5.6875 -4.32812,10.42188 -10.01562,10.57813 -0.0937,0.005 -0.19271,0.005 -0.28646,0.005 z m 0,0" />
      <path
         inkscape:connector-curvature="0"
         style="fill:#aa5b26;stroke-width:1.33333337"
         id="path30-1"
         d="m -55.414807,302.25749 c -5.56251,0 -10.14063,-4.42708 -10.29167,-10.02083 l -0.17709,-6.43229 c -0.15624,-5.68749 4.32813,-10.42188 10.01563,-10.57812 5.69792,-0.16667 10.42709,4.32812 10.58333,10.01563 l 0.17188,6.43228 c 0.15625,5.6875 -4.32812,10.42188 -10.01563,10.57813 -0.0937,0.005 -0.1927,0.005 -0.28645,0.005 z m 0,0" />
      <path
         inkscape:connector-curvature="0"
         style="fill:#e39f6e;stroke-width:1.33333337"
         id="path32-2"
         d="m -114.97211,359.25229 c -17.55208,0 -34.1875,-8.50521 -44.5,-22.7448 -3.33855,-4.60937 -2.30729,-11.04687 2.30208,-14.38541 4.60937,-3.33854 11.05208,-2.3073 14.38542,2.30208 6.45313,8.90625 16.84896,14.22396 27.8125,14.22396 10.96354,0 21.359383,-5.31771 27.812503,-14.22396 3.33333,-4.60938 9.77604,-5.64062 14.38543,-2.30208 4.60937,3.33854 5.63541,9.77604 2.30208,14.38541 -10.31251,14.23959 -26.94793,22.7448 -44.500013,22.7448 z m 0,0" />
    </g>
  </g>
</svg>
