<svg id="Capa_1" enable-background="new 0 0 512 512" height="512" viewBox="0 0 512 512" width="512" xmlns="http://www.w3.org/2000/svg"><path d="m42.173 287.421c-1.198 0-2.14-1.017-2.05-2.211.035-.46.053-.925.053-1.394 0-11.472-9.615-20.697-21.226-20.057-9.912.547-18.092 8.508-18.884 18.404-.768 9.594 5.215 17.898 13.701 20.712-8.486 2.814-14.469 11.118-13.701 20.712.792 9.896 8.972 17.857 18.884 18.404 11.611.64 21.226-8.586 21.226-20.057 0-.469-.019-.934-.053-1.394-.09-1.194.852-2.211 2.05-2.211h77.156v-31.421z" fill="#d3d3d3"/><path d="m407.78 354.382h-327.491c-3.516 0-5.998 3.444-4.887 6.78l3.346 10.038c2.804 8.413 10.678 14.088 19.546 14.088h309.486z" fill="#ffe6ae"/><path d="m92.716 447.099h-10.302c-5.69 0-10.302-4.612-10.302-10.302v-30.905h30.905v30.905c.001 5.689-4.611 10.302-10.301 10.302z" fill="#b5884d"/><path d="m446.068 447.099h-10.302c-5.69 0-10.302-4.612-10.302-10.302v-30.905h30.905v30.905c.001 5.689-4.611 10.302-10.301 10.302z" fill="#b5884d"/><path d="m395.074 239.517v107.139c0 21.336-17.296 38.632-38.632 38.632h108.169c-21.336 0-38.632-17.296-38.632-38.632v-107.139z" fill="#d3d3d3"/><path d="m410.527 253.425c-56.042 0-101.473-45.431-101.473-101.473v-76.749c0-5.69 4.612-10.302 10.302-10.302h182.342c5.69 0 10.302 4.612 10.302 10.302v76.749c0 56.042-45.431 101.473-101.473 101.473z" fill="#e8e8e8"/><path d="m208.097 354.382h-57.69c-28.448 0-51.509-23.061-51.509-51.509 0-28.448 23.061-51.509 51.509-51.509h57.69c28.448 0 51.509 23.061 51.509 51.509 0 28.448-23.062 51.509-51.509 51.509z" fill="#cc9e75"/><path d="m259.606 302.873c0 14.216-5.769 27.094-15.092 36.417s-22.2 15.092-36.417 15.092h-30.905c14.216 0 27.094-5.769 36.417-15.092s15.092-22.2 15.092-36.417c0-28.443-23.066-51.509-51.509-51.509h30.905c28.443 0 51.509 23.066 51.509 51.509z" fill="#bc7e50"/><path d="m485.215 416.193h-441.947c-5.69 0-10.302-4.612-10.302-10.302v-10.301c0-5.69 4.612-10.302 10.302-10.302h441.948c5.69 0 10.302 4.612 10.302 10.302v10.302c-.001 5.689-4.613 10.301-10.303 10.301z" fill="#ccad76"/><path d="m495.517 395.59v10.302c0 5.687-4.615 10.302-10.302 10.302h-30.905c5.687 0 10.302-4.615 10.302-10.302v-10.302c0-5.687-4.615-10.302-10.302-10.302h30.905c5.687 0 10.302 4.615 10.302 10.302z" fill="#b5884d"/><path d="m410.527 222.519c-38.973 0-70.567-31.594-70.567-70.567v-25.24c0-2.845 2.306-5.151 5.151-5.151h130.833c2.845 0 5.151 2.306 5.151 5.151v25.24c0 38.973-31.595 70.567-70.568 70.567z" fill="#f49595"/><path d="m481.095 126.712v25.239c0 38.972-31.596 70.567-70.567 70.567-5.305 0-10.477-.587-15.453-1.7 31.544-7.046 55.115-35.201 55.115-68.868v-25.239c0-2.843-2.308-5.151-5.151-5.151h30.905c2.843.001 5.151 2.309 5.151 5.152z" fill="#e86767"/><path d="m185.948 354.382c-13.939 0-25.239-.998-25.239-14.938s11.3-25.239 25.239-25.239c3.91 0 7.612.89 10.915 2.477 1.096-12.928 11.93-23.08 25.141-23.08 6.064 0 11.626 2.14 15.978 5.703 3.092-10.444 12.753-18.066 24.199-18.066s21.107 7.622 24.199 18.066c4.352-3.564 9.915-5.703 15.978-5.703 13.211 0 24.045 10.152 25.141 23.08 3.303-1.587 7.005-2.477 10.915-2.477 13.939 0 25.239 11.3 25.239 25.239s-11.3 14.938-25.239 14.938z" fill="#fcd87e"/><g fill="#e8e8e8"><path d="m240.222 210.673c-1.508 0-3.031-.441-4.368-1.359l-11.72-8.052c-6.184-4.248-9.845-10.987-10.045-18.486-.2-7.501 3.097-14.425 9.045-18.997l5.837-4.486c1.982-1.523 3.081-3.832 3.015-6.332s-1.287-4.745-3.349-6.162l-11.72-8.052c-3.517-2.417-4.409-7.226-1.993-10.743 2.417-3.517 7.226-4.408 10.743-1.993l11.72 8.052c6.184 4.248 9.845 10.987 10.045 18.486.2 7.501-3.097 14.425-9.045 18.997l-5.837 4.486c-1.982 1.523-3.081 3.832-3.015 6.332s1.287 4.745 3.349 6.162l11.72 8.052c3.517 2.416 4.409 7.226 1.993 10.743-1.497 2.18-3.915 3.352-6.375 3.352z"/><path d="m188.713 210.673c-1.508 0-3.031-.441-4.368-1.359l-11.72-8.052c-6.184-4.248-9.845-10.987-10.045-18.486-.2-7.501 3.097-14.425 9.045-18.997l5.837-4.486c1.982-1.523 3.081-3.832 3.015-6.332s-1.287-4.745-3.349-6.162l-11.72-8.052c-3.517-2.417-4.409-7.226-1.993-10.743 2.417-3.517 7.226-4.408 10.743-1.993l11.72 8.052c6.184 4.248 9.845 10.987 10.045 18.486.2 7.501-3.097 14.425-9.045 18.997l-5.837 4.486c-1.982 1.523-3.081 3.832-3.015 6.332s1.287 4.745 3.349 6.162l11.72 8.052c3.517 2.416 4.409 7.226 1.993 10.743-1.497 2.18-3.915 3.352-6.375 3.352z"/><path d="m137.204 210.673c-1.508 0-3.031-.441-4.368-1.359l-11.72-8.052c-6.184-4.248-9.845-10.987-10.045-18.486-.2-7.501 3.097-14.425 9.045-18.997l5.837-4.486c1.982-1.523 3.081-3.832 3.015-6.332s-1.287-4.745-3.349-6.162l-11.72-8.052c-3.517-2.417-4.409-7.226-1.993-10.743 2.417-3.517 7.226-4.408 10.743-1.993l11.72 8.052c6.184 4.248 9.845 10.987 10.045 18.486.2 7.501-3.097 14.425-9.045 18.997l-5.837 4.486c-1.982 1.523-3.081 3.832-3.015 6.332s1.287 4.745 3.349 6.162l11.72 8.052c3.517 2.416 4.409 7.226 1.993 10.743-1.498 2.18-3.916 3.352-6.375 3.352z"/></g><path d="m363.654 339.445c0 13.938-11.301 14.938-25.239 14.938h-30.905c13.938 0 25.239-.999 25.239-14.938 0-13.938-11.301-25.239-25.239-25.239-3.915 0-7.613.886-10.92 2.472-.608-7.232-4.265-13.588-9.684-17.791 4.265-3.307 9.622-5.285 15.453-5.285 13.207 0 24.044 10.147 25.136 23.076 3.307-1.586 7.005-2.472 10.92-2.472 13.938-.001 25.239 11.3 25.239 25.239z" fill="#e8bb56"/><path d="m286.03 298.237c-4.121-2.926-9.148-4.636-14.577-4.636-6.068 0-11.631 2.143-15.978 5.707-1.514-5.13-4.615-9.591-8.746-12.774 4.275-3.328 9.632-5.295 15.453-5.295 11.053 0 20.438 7.109 23.848 16.998z" fill="#e8bb56"/></svg>