<?xml version="1.0" encoding="UTF-8" standalone="no"?>
<svg
   xmlns:dc="http://purl.org/dc/elements/1.1/"
   xmlns:cc="http://creativecommons.org/ns#"
   xmlns:rdf="http://www.w3.org/1999/02/22-rdf-syntax-ns#"
   xmlns:svg="http://www.w3.org/2000/svg"
   xmlns="http://www.w3.org/2000/svg"
   xmlns:sodipodi="http://sodipodi.sourceforge.net/DTD/sodipodi-0.dtd"
   xmlns:inkscape="http://www.inkscape.org/namespaces/inkscape"
   id="Capa_1"
   enable-background="new 0 0 492.921 492.921"
   height="512"
   viewBox="0 0 492.921 492.921"
   width="512"
   version="1.1"
   sodipodi:docname="017-calendar-1.svg"
   inkscape:version="0.92.3 (2405546, 2018-03-11)">
  <metadata
     id="metadata69">
    <rdf:RDF>
      <cc:Work
         rdf:about="">
        <dc:format>image/svg+xml</dc:format>
        <dc:type
           rdf:resource="http://purl.org/dc/dcmitype/StillImage" />
      </cc:Work>
    </rdf:RDF>
  </metadata>
  <defs
     id="defs67" />
  <sodipodi:namedview
     pagecolor="#ffffff"
     bordercolor="#666666"
     borderopacity="1"
     objecttolerance="10"
     gridtolerance="10"
     guidetolerance="10"
     inkscape:pageopacity="0"
     inkscape:pageshadow="2"
     inkscape:window-width="1903"
     inkscape:window-height="1101"
     id="namedview65"
     showgrid="false"
     inkscape:zoom="1.5077318"
     inkscape:cx="111.50849"
     inkscape:cy="294.24895"
     inkscape:window-x="64"
     inkscape:window-y="32"
     inkscape:window-maximized="0"
     inkscape:current-layer="Capa_1" />
  <path
     d="m407.571 433.11h-372.694c-19.262 0-34.877-15.615-34.877-34.876v-257.701l226.52-10 215.928 10v257.701c0 19.261-15.615 34.876-34.877 34.876z"
     fill="#fff3ef"
     id="path2"
     style="fill:#ebe9e5;fill-opacity:1" />
  <path
     d="m412.448 140.533v257.701c0 19.262-15.615 34.876-34.877 34.876h30c19.262 0 34.877-15.615 34.877-34.876v-257.701l-14.654-10z"
     fill="#f1f0f0"
     id="path4"
     style="fill:#dddcdc;fill-opacity:1" />
  <path
     d="m442.448 140.533h-442.448v-68.505c0-15.924 12.909-28.833 28.833-28.833h384.781c15.924 0 28.833 12.909 28.833 28.833v68.505z"
     fill="#fee45a"
     id="path6"
     style="fill:#fe185a;fill-opacity:1" />
  <path
     d="m413.615 43.195h-30c15.924 0 28.833 12.909 28.833 28.833v68.505h30v-68.505c0-15.924-12.909-28.833-28.833-28.833z"
     fill="#fac600"
     id="path8"
     style="fill:#de0000;fill-opacity:1" />
  <circle
     cx="82.879"
     cy="92.864"
     fill="#fff3ef"
     r="24.218"
     id="circle10" />
  <path
     d="m82.879 100.364c-4.142 0-7.5-3.358-7.5-7.5v-74.573c0-4.142 3.358-7.5 7.5-7.5s7.5 3.358 7.5 7.5v74.573c0 4.142-3.358 7.5-7.5 7.5z"
     fill="#d7aa02"
     id="path12" />
  <circle
     cx="175.109"
     cy="92.864"
     fill="#fff3ef"
     r="24.218"
     id="circle14" />
  <path
     d="m175.109 100.364c-4.142 0-7.5-3.358-7.5-7.5v-74.573c0-4.142 3.358-7.5 7.5-7.5s7.5 3.358 7.5 7.5v74.573c0 4.142-3.358 7.5-7.5 7.5z"
     fill="#d7aa02"
     id="path16" />
  <circle
     cx="267.339"
     cy="92.864"
     fill="#fff3ef"
     r="24.218"
     id="circle18" />
  <path
     d="m267.339 100.364c-4.142 0-7.5-3.358-7.5-7.5v-74.573c0-4.142 3.358-7.5 7.5-7.5s7.5 3.358 7.5 7.5v74.573c0 4.142-3.358 7.5-7.5 7.5z"
     fill="#d7aa02"
     id="path20" />
  <circle
     cx="359.569"
     cy="92.864"
     fill="#fff3ef"
     r="24.218"
     id="circle22" />
  <path
     d="m359.569 100.364c-4.142 0-7.5-3.358-7.5-7.5v-74.573c0-4.142 3.358-7.5 7.5-7.5s7.5 3.358 7.5 7.5v74.573c0 4.142-3.358 7.5-7.5 7.5z"
     fill="#d7aa02"
     id="path24" />
  <path
     d="m83.237 225.807h-17.352c-7.15 0-12.946-5.796-12.946-12.946v-17.352c0-7.15 5.796-12.946 12.946-12.946h17.352c7.15 0 12.946 5.796 12.946 12.946v17.352c0 7.149-5.796 12.946-12.946 12.946z"
     fill="#fee45a"
     id="path26"
     style="fill:#d5d5df;fill-opacity:1" />
  <path
     d="m156.568 225.807h-17.352c-7.15 0-12.946-5.796-12.946-12.946v-17.352c0-7.15 5.796-12.946 12.946-12.946h17.352c7.15 0 12.946 5.796 12.946 12.946v17.352c0 7.149-5.796 12.946-12.946 12.946z"
     fill="#e8b800"
     id="path28"
     style="fill:#01b800;fill-opacity:1" />
  <g
     fill="#fee45a"
     id="g40">
    <path
       d="m229.9 225.807h-17.352c-7.15 0-12.946-5.796-12.946-12.946v-17.352c0-7.15 5.796-12.946 12.946-12.946h17.352c7.15 0 12.946 5.796 12.946 12.946v17.352c0 7.149-5.796 12.946-12.946 12.946z"
       id="path30"
       style="fill:#d5d5df;fill-opacity:1" />
    <path
       d="m303.231 225.807h-17.351c-7.15 0-12.946-5.796-12.946-12.946v-17.352c0-7.15 5.796-12.946 12.946-12.946h17.352c7.15 0 12.946 5.796 12.946 12.946v17.352c0 7.149-5.797 12.946-12.947 12.946z"
       id="path32"
       style="fill:#d5d5df;fill-opacity:1" />
    <path
       d="m376.563 225.807h-17.352c-7.15 0-12.946-5.796-12.946-12.946v-17.352c0-7.15 5.796-12.946 12.946-12.946h17.352c7.15 0 12.946 5.796 12.946 12.946v17.352c0 7.149-5.796 12.946-12.946 12.946z"
       id="path34"
       style="fill:#01b800;fill-opacity:1" />
    <path
       d="m83.237 299.826h-17.352c-7.15 0-12.946-5.796-12.946-12.946v-17.352c0-7.15 5.796-12.946 12.946-12.946h17.352c7.15 0 12.946 5.796 12.946 12.946v17.352c0 7.15-5.796 12.946-12.946 12.946z"
       id="path36"
       style="fill:#d5d5df;fill-opacity:1" />
    <path
       d="m156.568 299.826h-17.352c-7.15 0-12.946-5.796-12.946-12.946v-17.352c0-7.15 5.796-12.946 12.946-12.946h17.352c7.15 0 12.946 5.796 12.946 12.946v17.352c0 7.15-5.796 12.946-12.946 12.946z"
       id="path38"
       style="fill:#d5d5df;fill-opacity:1" />
  </g>
  <path
     d="m229.9 299.826h-17.352c-7.15 0-12.946-5.796-12.946-12.946v-17.352c0-7.15 5.796-12.946 12.946-12.946h17.352c7.15 0 12.946 5.796 12.946 12.946v17.352c0 7.15-5.796 12.946-12.946 12.946z"
     fill="#e8b800"
     id="path42"
     style="fill:#d5d5df;fill-opacity:1" />
  <path
     d="m303.231 299.826h-17.351c-7.15 0-12.946-5.796-12.946-12.946v-17.352c0-7.15 5.796-12.946 12.946-12.946h17.352c7.15 0 12.946 5.796 12.946 12.946v17.352c0 7.15-5.797 12.946-12.947 12.946z"
     fill="#fee45a"
     id="path44"
     style="fill:#01b800;fill-opacity:1" />
  <path
     d="m376.563 299.826h-17.352c-7.15 0-12.946-5.796-12.946-12.946v-17.352c0-7.15 5.796-12.946 12.946-12.946h17.352c7.15 0 12.946 5.796 12.946 12.946v17.352c0 7.15-5.796 12.946-12.946 12.946z"
     fill="#e8b800"
     id="path46"
     style="fill:#01b800;fill-opacity:1" />
  <path
     d="m83.237 373.845h-17.352c-7.15 0-12.946-5.796-12.946-12.946v-17.352c0-7.15 5.796-12.946 12.946-12.946h17.352c7.15 0 12.946 5.796 12.946 12.946v17.352c0 7.15-5.796 12.946-12.946 12.946z"
     fill="#fee45a"
     id="path48"
     style="fill:#d5d5df;fill-opacity:1" />
  <path
     d="m156.568 373.845h-17.352c-7.15 0-12.946-5.796-12.946-12.946v-17.352c0-7.15 5.796-12.946 12.946-12.946h17.352c7.15 0 12.946 5.796 12.946 12.946v17.352c0 7.15-5.796 12.946-12.946 12.946z"
     fill="#e8b800"
     id="path50"
     style="fill:#01b800;fill-opacity:1" />
  <path
     d="m229.9 373.845h-17.352c-7.15 0-12.946-5.796-12.946-12.946v-17.352c0-7.15 5.796-12.946 12.946-12.946h17.352c7.15 0 12.946 5.796 12.946 12.946v17.352c0 7.15-5.796 12.946-12.946 12.946z"
     fill="#fee45a"
     id="path52"
     style="fill:#d5d5df;fill-opacity:1" />
  <path
     d="m302.797 373.845h-17.352c-7.15 0-12.946-5.796-12.946-12.946v-17.352c0-7.15 5.796-12.946 12.946-12.946h17.352c7.15 0 12.946 5.796 12.946 12.946v17.352c0 7.15-5.796 12.946-12.946 12.946z"
     fill="#e8b800"
     id="path54"
     style="fill:#01b800;fill-opacity:1" />
  <ellipse
     cx="419.461"
     cy="408.67"
     fill="#60b7ff"
     rx="73.461"
     ry="73.461"
     transform="matrix(.157 -.988 .988 .157 -49.854 758.959)"
     id="ellipse56" />
  <path
     d="m419.461 335.209c-4.532 0-8.96.432-13.265 1.217 34.236 6.247 60.196 36.204 60.196 72.243 0 36.04-25.96 65.996-60.196 72.243 4.305.786 8.733 1.218 13.265 1.218 40.571 0 73.461-32.89 73.461-73.461-.001-40.571-32.89-73.46-73.461-73.46z"
     fill="#26a6fe"
     id="path58" />
  <path
     d="m463.878 408.481c-.102-24.439-19.935-44.22-44.395-44.232v44.232z"
     fill="#f6efee"
     id="path60" />
  <path
     d="m463.878 415.981h-44.395c-4.142 0-7.5-3.358-7.5-7.5v-44.232c0-4.142 3.358-7.5 7.5-7.5s7.5 3.358 7.5 7.5v36.732h36.895c4.142 0 7.5 3.358 7.5 7.5s-3.358 7.5-7.5 7.5z"
     fill="#0067c5"
     id="path62" />
</svg>
