<svg id="Capa_1" enable-background="new 0 0 512 512" height="512" viewBox="0 0 512 512" width="512" xmlns="http://www.w3.org/2000/svg"><path d="m264.932 128.492c-4.585-.974-9.67-1.456-13.837-3.143-4.815-1.95-9.225-4.831-13.115-8.259-5.319-4.687-9.664-10.39-13.174-16.56-4.16-7.311-14.97-6.539-18.119 1.261-.006.015-.009.022-.009.022-2.609 6.263-2.232 12.156-.961 16.83 1.384 5.088-1.295 10.353-6.213 12.255-11.524 4.456-19.697 15.642-19.699 28.737 0 .816.664 1.485 1.48 1.485h112.906c.817 0 1.48-.664 1.48-1.481 0-9.261-4.272-18.179-11.481-23.992-5.098-4.11-10.625-4.814-16.669-6.525-.838-.235-1.704-.442-2.589-.63z" fill="#f9f3f1"/><path d="m295.671 159.64c0 .816-.665 1.481-1.481 1.481h-11.983c-1.946-4.858-5.118-9.215-9.252-12.551-5.094-4.109-10.623-4.81-16.666-6.52-.84-.242-1.704-.447-2.592-.634-4.581-.973-9.669-1.456-13.832-3.142-4.816-1.952-9.227-4.828-13.119-8.261-5.318-4.683-9.663-10.388-13.174-16.558-1.928-3.39-5.281-5.046-8.647-5.064.26-2.115.816-4.321 1.752-6.575 0 0 0-.012.006-.024 3.154-7.801 13.959-8.575 18.123-1.263 3.511 6.17 7.856 11.874 13.174 16.564 3.892 3.426 8.303 6.309 13.113 8.255 4.17 1.692 9.252 2.169 13.838 3.148.888.187 1.752.393 2.592.628 6.043 1.71 11.566 2.417 16.666 6.526 7.21 5.813 11.482 14.727 11.482 23.99z" fill="#f3eae6"/><path d="m330.013 190.406h-184.55v-2.961c0-16.195 13.129-29.324 29.324-29.324h125.902c16.195 0 29.324 13.129 29.324 29.324z" fill="#efe2dd"/><path d="m330.013 187.447v2.961h-184.55v-2.961c0-2.786.387-5.487 1.118-8.037h159.321c1.635 0 2.961-1.326 2.961-2.961 0-6.913-2.393-13.264-6.393-18.274 15.366.919 27.543 13.675 27.543 29.272z" fill="#e1d3ce"/><path d="m407.641 214.626c-33.194 0-60.097 26.911-60.097 60.097 0 33.194 26.903 60.097 60.097 60.097 33.186 0 60.097-26.903 60.097-60.097 0-33.186-26.911-60.097-60.097-60.097zm0 91.792c-17.51 0-31.695-14.186-31.695-31.695 0-17.502 14.186-31.695 31.695-31.695 17.502 0 31.695 14.193 31.695 31.695 0 17.509-14.193 31.695-31.695 31.695z" fill="#8ac9fe"/><path d="m407.641 243.027c6.108 0 11.812 1.727 16.642 4.716 1.871-10.459 3.202-20.392 4.145-29.429-6.48-2.388-13.478-3.689-20.788-3.689-33.194 0-60.097 26.911-60.097 60.097 0 29.208 20.833 53.548 48.459 58.971 4.723-8.884 8.8-18.05 12.33-27.284-.228.008-.464.008-.692.008-17.51 0-31.695-14.186-31.695-31.695.001-17.501 14.186-31.695 31.696-31.695z" fill="#60b7ff"/><path d="m375.243 186.908h-275.759c-7.289 0-13.132 6.545-12.942 14.481.82 34.182 7.959 121.152 57.256 176.334h187.13c49.298-55.182 56.436-142.152 57.256-176.334.191-7.936-5.653-14.481-12.941-14.481z" fill="#d8ecfe"/><path d="m123.057 214.169c-4.014 0-7.18 3.402-6.903 7.407 1.634 23.585 14.484 98.751 60.957 156.147h60.262.729 59.446c46.473-57.397 60.14-132.562 61.774-156.147.277-4.005-2.889-7.407-6.903-7.407z" fill="#f9f3f1"/><path d="m359.319 221.576c-1.632 23.587-15.301 98.751-61.771 156.147h-120.437c-5.137-6.341-9.86-12.907-14.206-19.589h105.421c8.108 0 15.763-3.854 20.498-10.436 34.348-47.743 48.208-104.339 52.443-133.53h11.151c4.013.001 7.184 3.403 6.901 7.408z" fill="#f3eae6"/><path d="m352.978 259.463c-7.945 33.541-24.349 79.873-55.43 118.26h-120.437c-31.103-38.416-47.152-84.799-54.85-118.347 1.959.196 4.085.297 6.406.297 27.359 0 27.359-14.51 54.719-14.51 27.359 0 27.359 14.51 54.719 14.51s27.359-14.51 54.719-14.51c27.367 0 27.367 14.51 54.726 14.51 1.945.001 3.744-.072 5.428-.21z" fill="#d77f4a"/><path d="m352.978 259.463c-.247 1.052-.501 2.111-.769 3.178-.131.537-.269 1.081-.406 1.618-2.122 8.266-4.579 16.877-7.284 25.026-2.557 7.704-5.399 15.315-8.576 22.785-5.819 13.686-12.694 27.496-20.453 40.202-.66 1.081-1.327 2.154-2.016 3.228-4.301 6.7-8.753 13.019-13.662 19.372-.74.958-1.502 1.908-2.263 2.851h-120.438c-.486-.602-.965-1.204-1.444-1.807-4.362-5.485-8.682-11.657-12.595-17.529-.058-.087-.109-.167-.167-.254h105.418c8.111 0 15.766-3.853 20.503-10.433 21.251-29.543 34.658-62.467 42.791-90.197 4.208 1.306 9.258 2.169 15.932 2.169 1.946.002 3.745-.071 5.429-.209z" fill="#c86d36"/><path d="m504.162 416.533h-496.324c-4.329 0-7.838-3.509-7.838-7.838v-26.633c0-4.329 3.509-7.838 7.838-7.838h496.323c4.329 0 7.838 3.509 7.838 7.838v26.633c.001 4.329-3.508 7.838-7.837 7.838z" fill="#596c76"/></svg>