<svg id="Capa_1" enable-background="new 0 0 495.311 495.311" height="512" viewBox="0 0 495.311 495.311" width="512" xmlns="http://www.w3.org/2000/svg"><ellipse cx="247.839" cy="263.007" fill="#26a6fe" rx="151.326" ry="152.323"/><path d="m247.839 110.683c-5.062 0-10.065.255-15 .744 76.533 7.581 136.326 72.549 136.326 151.579s-59.793 143.997-136.326 151.579c4.935.489 9.938.744 15 .744 83.575 0 151.326-68.197 151.326-152.323 0-84.125-67.751-152.323-151.326-152.323z" fill="#0593fc"/><ellipse cx="247.839" cy="263.007" fill="#26a6fe" rx="62.799" ry="152.323"/><path d="m247.839 103.183c-87.576 0-158.825 71.696-158.825 159.823s71.249 159.823 158.825 159.823 158.825-71.696 158.825-159.823c.001-88.126-71.248-159.823-158.825-159.823zm143.635 152.324h-73.41c-.758-38.841-7.394-75.199-18.884-103.067-5.037-12.216-10.835-22.312-17.201-30.123 60.553 14.901 106.201 68.501 109.495 133.19zm-143.635 152.323c-13.341 0-26.999-14.57-37.472-39.973-10.77-26.123-17.007-60.453-17.752-97.35h110.447c-.745 36.897-6.981 71.228-17.752 97.35-10.471 25.403-24.13 39.973-37.471 39.973zm-55.223-152.323c.745-36.898 6.981-71.228 17.752-97.35 10.473-25.403 24.131-39.973 37.472-39.973s26.999 14.57 37.472 39.973c10.771 26.122 17.007 60.453 17.752 97.35zm21.084-133.19c-6.365 7.811-12.164 17.907-17.201 30.123-11.49 27.869-18.126 64.226-18.884 103.067h-73.41c3.294-64.689 48.942-118.289 109.495-133.19zm-109.495 148.19h73.41c.758 38.841 7.394 75.199 18.884 103.067 5.037 12.216 10.835 22.312 17.201 30.123-60.553-14.901-106.201-68.502-109.495-133.19zm177.774 133.19c6.365-7.811 12.164-17.907 17.201-30.123 11.49-27.869 18.126-64.226 18.884-103.067h73.41c-3.294 64.688-48.942 118.289-109.495 133.19z" fill="#0182fc"/><path d="m466.389 104.604c0 30.325-41.716 82.671-61.761 106.073-5.527 6.452-15.494 6.452-21.021 0-20.045-23.402-61.761-75.749-61.761-106.073 0-39.914 32.357-72.271 72.271-72.271s72.272 32.356 72.272 72.271z" fill="#f45a3c"/><path d="m394.118 32.332c-5.145 0-10.16.547-15 1.569 32.714 6.907 57.271 35.933 57.271 70.702 0 28.211-36.099 75.476-57.271 100.77 1.586 1.895 3.092 3.672 4.489 5.303 5.527 6.453 15.494 6.453 21.021 0 20.045-23.402 61.761-75.748 61.761-106.073 0-39.914-32.357-72.271-72.271-72.271z" fill="#ef4424"/><ellipse cx="394.219" cy="105.777" fill="#fff4f1" rx="27.309" ry="27.309" transform="matrix(.23 -.973 .973 .23 200.699 465.147)"/><path d="m184.708 16.022h-154.119c-16.824 0-30.589 13.765-30.589 30.589 0 16.824 13.765 30.589 30.589 30.589h58.493l13.019 22.55c3.897 6.749 13.639 6.749 17.536 0l13.02-22.55h52.051c16.824 0 30.589-13.765 30.589-30.589 0-16.824-13.765-30.589-30.589-30.589z" fill="#05e39c"/><path d="m211.708 16.021h-30c16.824 0 30.589 13.766 30.589 30.589 0 16.824-13.765 30.589-30.589 30.589h30c16.824 0 30.589-13.765 30.589-30.589 0-16.823-13.765-30.589-30.589-30.589z" fill="#00c285"/><path d="m216.033 396.245h-149.398c-15.735 0-28.61 12.874-28.61 28.61 0 15.735 12.874 28.61 28.61 28.61h26.65l12.177 21.091c3.645 6.313 12.756 6.313 16.401 0l12.177-21.091h81.994c15.735 0 28.61-12.874 28.61-28.61-.001-15.735-12.876-28.61-28.611-28.61z" fill="#f1f0f0"/><path d="m236.033 396.245h-30c15.735 0 28.61 12.875 28.61 28.61 0 15.735-12.874 28.61-28.61 28.61h30c15.735 0 28.61-12.875 28.61-28.61-.001-15.736-12.875-28.61-28.61-28.61z" fill="#c5d3dd"/><path d="m444.431 319.507h-87.393c-15.334 0-27.88 12.546-27.88 27.881 0 15.334 12.546 27.88 27.88 27.88h35.085l11.866 20.553c3.552 6.152 12.431 6.152 15.983 0l11.866-20.553h12.593c15.334 0 27.88-12.546 27.88-27.88 0-15.335-12.546-27.881-27.88-27.881z" fill="#fed402"/><path d="m467.431 319.507h-30c15.334 0 27.88 12.546 27.88 27.881 0 15.334-12.546 27.88-27.88 27.88h30c15.334 0 27.88-12.546 27.88-27.88 0-15.335-12.546-27.881-27.88-27.881z" fill="#fac600"/></svg>