<svg id="Capa_1" enable-background="new 0 0 511.989 511.989" height="512" viewBox="0 0 511.989 511.989" width="512" xmlns="http://www.w3.org/2000/svg"><path d="m457.168 187.086c1.745-8.576-1.673-18.015-8.505-23.486-4.247-3.4-9.699-5.178-15.137-5.178-3.311 0-6.617.659-9.639 2.013-1.07.479-2.104 1.038-3.104 1.578-1.562.843-3.037 1.639-4.628 2.155-7.285 2.359-14.288-1.521-21.7-5.63-3.316-1.839-6.746-3.739-10.222-5.047-6.305-2.371-13.093-2.782-19.658-3.18-4.838-.293-9.841-.596-14.561-1.689-7.013-1.624-13.75-6.49-16.766-12.11-1.908-3.554-2.242-7.231-.969-10.632.86-2.297 2.37-4.261 3.968-6.341 1.407-1.83 2.862-3.724 3.865-5.893 2.207-4.774 1.909-10.041 1.621-15.135-.189-3.335-.384-6.785.143-10.011.846-5.176 3.585-10.012 6.233-14.689 3.235-5.713 6.58-11.62 6.648-18.332.036-3.493-.84-6.874-1.688-10.145-.405-1.564-.824-3.182-1.13-4.77-1.262-6.559-.632-13.468 1.82-20.049l.592-.918c-24.481-10.174-50.219-16.375-76.235-18.623-2.561 7.287-9.823 14.958-12.796 22.014-1.418 3.365-1.773 7.086-3.023 10.516-1.249 3.43-3.81 6.794-7.424 7.31-1.107.158-2.277.043-3.306.484-2.817 1.207-2.562 5.224-3.856 8.003-1.36 2.92-4.688 4.514-7.903 4.716s-6.378-.744-9.46-1.68c-3.978-1.208-8.252-2.623-10.645-6.022-1.312-1.863-1.908-4.139-3.077-6.095-2.072-3.467-5.716-5.615-8.975-8-7.332-5.365-13.232-14.828-17.133-23.71-15.138 3.985-29.979 9.385-44.321 16.186l.595.89c.317 3.388 1.981 6.488 4.671 8.64l18.769 15.016c2.488 1.991 3.915 4.959 3.915 8.145v21.33c0 6.945 5.651 12.596 12.596 12.596h8.771c5.751 0 10.43 4.679 10.43 10.43v10.099c0 3.289-1.578 6.422-4.222 8.381l-51.495 38.145c-1.783 1.321-3.988 2.049-6.208 2.049h-31.836c-6.945 0-12.596 5.65-12.596 12.596v20.998c0 3.365 1.31 6.528 3.689 8.907l22.313 22.312c2.379 2.379 5.542 3.689 8.907 3.689h31.414c5.751 0 10.43 4.679 10.43 10.43v9.319c0 6.945 5.65 12.596 12.596 12.596h21.929c5.751 0 10.43 4.679 10.43 10.43 0 6.945 5.651 12.596 12.596 12.596h28.508c5.751 0 10.43 4.679 10.43 10.43v30.138c0 3.164-1.411 6.12-3.873 8.11l-42.985 34.753c-2.972 2.403-4.677 5.973-4.677 9.795v14.727c0 2.876-1.204 5.652-3.304 7.616l-16.143 15.104c-2.536 2.372-3.991 5.725-3.991 9.198v32.834c0 5.751-4.679 10.43-10.429 10.43h-17.133c-5.751 0-10.429-4.679-10.429-10.43v-20.947c0-1.881-.432-3.77-1.248-5.464l-11.974-24.871c-.675-1.402-1.032-2.966-1.032-4.524v-47.395c0-4.04-1.957-7.861-5.236-10.222l-45.251-32.581c-2.715-1.955-4.336-5.119-4.336-8.464v-32.78c0-1.771.455-3.525 1.316-5.072l2.389-4.289c2.734-4.914 1.856-11.111-2.137-15.07l-39.737-39.406c-1.961-1.945-3.085-4.644-3.085-7.406v-25.091c0-3.52-1.487-6.903-4.081-9.281l-19.568-17.953-.867-.691c-45.537 95.179-28.898 212.669 49.955 291.522 99.972 99.972 262.059 99.972 362.03 0 6.703-6.703 12.941-13.694 18.745-20.919h-1.37c-8.004-5.758-14.075-10.933-19.054-16.237-12.473-13.288-20.782-30.54-23.394-48.577-.456-3.154-.753-6.401-1.039-9.542-.499-5.47-1.014-11.126-2.396-16.575-1.894-7.471-5.4-14.516-8.791-21.33-4.531-9.104-8.81-17.703-9.705-27.369-1.28-13.826 5.275-27.859 16.699-35.751 6.703-4.63 14.772-7.081 22.576-9.45 7.361-2.235 14.972-4.547 21.611-8.691 1.684-1.051 3.522-2.403 4.372-4.451 1.197-2.881.073-5.717-1.014-8.461-.46-1.162-.895-2.259-1.159-3.351-.982-4.059.466-8.11 1.999-12.4.795-2.211 1.613-4.5 2.085-6.82z" fill="#23a8fe"/><path d="m170.295 467.424c-5.751 0-10.429-4.679-10.429-10.43v-1.562c-7.076-5.709-13.919-11.848-20.493-18.422-59.143-59.142-83.288-140.022-72.455-216.921l-14.299-14.179c-1.961-1.945-3.085-4.644-3.085-7.406v-25.091c0-3.52-1.487-6.903-4.081-9.281l-19.568-17.953-.867-.691c-45.537 95.179-28.898 212.669 49.955 291.522 58.193 58.193 137.431 82.498 213.215 72.944-39.491-4.979-78.04-19.158-112.188-42.529h-5.705z" fill="#0193fa"/><path d="m190.525 8.528c-15.138 3.989-29.986 9.364-44.329 16.167l.595.89c.317 3.388 1.981 6.488 4.671 8.64l18.375 14.7c10.703-7.798 21.881-14.644 33.407-20.575-5.301-5.433-9.634-12.804-12.719-19.822z" fill="#0193fa"/><path d="m262.398 283.205h-28.508c-6.358 0-11.513-5.155-11.513-11.513s-5.154-11.513-11.513-11.513h-21.929c-6.358 0-11.513-5.155-11.513-11.513v-9.32c0-6.358-5.155-11.513-11.513-11.513h-31.414c-3.054 0-5.982-1.213-8.141-3.372l-22.312-22.312c-2.159-2.159-3.372-5.087-3.372-8.141v-20.998c0-6.358 5.154-11.513 11.513-11.513h31.835c2.468 0 4.87-.793 6.853-2.261l51.496-38.145c2.932-2.172 4.66-5.603 4.66-9.251v-10.099c0-6.358-5.155-11.513-11.513-11.513h-8.772c-6.358 0-11.513-5.155-11.513-11.513v-21.33c0-3.497-1.59-6.805-4.321-8.99l-18.77-15.016c-2.731-2.185-4.321-5.493-4.321-8.99v-.484c-26.371 12.288-51.081 29.31-72.845 51.074-21.381 21.381-38.173 45.609-50.409 71.457l20.158 18.493c2.377 2.18 3.73 5.258 3.73 8.484v25.091c0 3.07 1.226 6.013 3.406 8.175l39.737 39.405c3.665 3.635 4.463 9.264 1.953 13.774l-2.388 4.29c-.953 1.712-1.453 3.64-1.453 5.599v32.78c0 3.703 1.781 7.18 4.786 9.343l45.251 32.581c3.005 2.163 4.786 5.64 4.786 9.343v47.395c0 1.729.389 3.436 1.14 4.994l11.974 24.87c.75 1.558 1.14 3.265 1.14 4.995v20.947c0 6.358 5.154 11.513 11.513 11.513h17.132c6.358 0 11.513-5.154 11.513-11.513v-32.834c0-3.186 1.321-6.23 3.647-8.407l16.143-15.105c2.327-2.177 3.647-5.221 3.647-8.407v-14.727c0-3.477 1.571-6.767 4.275-8.953l42.985-34.753c2.703-2.186 4.274-5.476 4.274-8.953v-30.139c-.001-6.357-5.155-11.512-11.514-11.512z" fill="#43cb8e"/><path d="m147.818 24.389v-.471c-55.478 25.84-99.457 71.262-123.254 122.518l20.158 18.493c2.377 2.18 3.729 5.258 3.729 8.484v25.091c0 3.07 1.226 6.013 3.406 8.175l14.883 14.759c7.258-53.569 31.457-105.283 72.633-146.458 9.888-9.888 20.391-18.784 31.375-26.713l-18.609-14.887c-2.731-2.185-4.321-5.493-4.321-8.991z" fill="#00ba66"/><path d="m511.982 255.994c0-65.515-24.993-131.029-74.979-181.015-24.768-24.768-53.35-43.39-83.854-55.886-2.759 6.841-3.669 14.426-2.274 21.677.945 4.911 2.85 9.699 2.799 14.699-.121 11.87-10.952 21.142-12.867 32.857-1.351 8.267 1.836 17.262-1.679 24.865-2.05 4.434-6.151 7.735-7.864 12.31-4.036 10.778 7.292 21.581 18.505 24.177s23.309.776 34.082 4.827c11.012 4.141 21.444 14.316 32.637 10.693 2.763-.894 5.191-2.587 7.841-3.774 7.632-3.418 17.13-2.205 23.657 3.022 6.528 5.227 9.788 14.23 8.121 22.424-1.354 6.654-5.668 13.093-4.072 19.693.912 3.771 3.714 7.559 2.225 11.141-.726 1.747-2.341 2.946-3.946 3.948-13.571 8.471-31.066 9.075-44.229 18.168-11.658 8.054-18.468 22.632-17.162 36.742 1.613 17.427 14.224 31.901 18.524 48.866 2.15 8.482 2.158 17.345 3.412 26.005 2.648 18.283 11.032 35.694 23.676 49.163 6.007 6.4 12.881 11.866 20.042 16.969 38.263-46.922 57.373-104.246 57.372-161.57h.033z" fill="#43cb8e"/><path d="m416.488 165.198c2.763-.895 5.191-2.587 7.841-3.774 7.632-3.418 17.129-2.205 23.657 3.022s9.788 14.23 8.121 22.424c-1.354 6.654-5.668 13.093-4.072 19.693.912 3.771 3.714 7.559 2.225 11.141-.043.104-.1.2-.149.301 11.862-5.399 25.643-7.059 36.784-14.014 1.605-1.002 3.221-2.201 3.947-3.948 1.488-3.582-1.313-7.371-2.225-11.141-1.596-6.6 2.718-13.039 4.072-19.693.023-.113.035-.228.056-.342-2.834-7.847-6.064-15.582-9.689-23.177-6.426-4.28-15.082-5.09-22.144-1.927-2.651 1.187-5.079 2.88-7.841 3.774-11.193 3.623-21.625-6.552-32.637-10.693-10.773-4.051-22.869-2.232-34.082-4.827-11.212-2.596-22.54-13.398-18.505-24.177 1.713-4.575 5.814-7.876 7.864-12.31 3.515-7.604.328-16.598 1.679-24.865 1.774-10.853 11.193-19.61 12.668-30.277-13.102-8.406-26.795-15.515-40.907-21.296-2.759 6.841-3.669 14.426-2.274 21.676.945 4.911 2.85 9.699 2.799 14.7-.121 11.87-10.952 21.141-12.867 32.857-1.351 8.267 1.836 17.262-1.679 24.865-2.05 4.434-6.151 7.735-7.864 12.31-4.036 10.778 7.292 21.581 18.505 24.177s23.309.776 34.082 4.827c11.01 4.142 21.442 14.317 32.635 10.694z" fill="#00ba66"/><path d="m475.116 382.935c-12.643-13.47-21.028-30.88-23.676-49.163-1.254-8.66-1.262-17.523-3.412-26.006-4.3-16.965-16.911-31.438-18.524-48.866-1.133-12.234 3.843-24.813 12.784-33.193-11.978 4.943-25.518 6.731-36.203 14.112-11.658 8.054-18.468 22.632-17.162 36.742 1.613 17.427 14.224 31.901 18.524 48.866 2.15 8.482 2.158 17.345 3.412 26.006 2.648 18.283 11.033 35.694 23.676 49.163 6.007 6.4 12.881 11.866 20.042 16.969 8.461-10.375 15.981-21.261 22.569-32.542-.685-.687-1.365-1.379-2.03-2.088z" fill="#00ba66"/><path d="m262.297 34.587c1.249-3.43 1.605-7.151 3.022-10.516 3.025-7.18 10.503-14.997 12.938-22.398.074-.224.129-.45.192-.675-7.472-.654-14.966-.998-22.461-.998v.033c-22.167 0-44.332 2.868-65.897 8.585 3.891 9.156 9.959 19.123 17.559 24.684 3.259 2.385 6.903 4.533 8.975 8 1.169 1.956 1.765 4.232 3.077 6.095 2.394 3.399 6.667 4.814 10.645 6.022 3.082.936 6.245 1.882 9.46 1.681s6.543-1.796 7.903-4.716c1.294-2.778 1.039-6.796 3.856-8.003 1.028-.441 2.198-.326 3.305-.484 3.616-.516 6.176-3.88 7.426-7.31z" fill="#43cb8e"/><path d="m278.448 1.001c-7.595-.665-15.121-1.001-22.46-1.001v.033c-21.53 0-44.096 2.786-65.897 8.585 2.973 6.996 7.221 14.459 12.449 20.075 23.783-12.328 49.092-20.679 74.948-25.046.63-1.447.767-1.953.96-2.646z" fill="#00ba66"/><g fill="#dfebfa"><path d="m268.852 245.383c-4.11 0-7.529-3.238-7.714-7.385-.189-4.263 3.114-7.873 7.377-8.061 1.614-.072 3.264-.166 4.947-.284 4.262-.302 7.95 2.91 8.249 7.168.299 4.257-2.91 7.95-7.167 8.248-1.78.125-3.578.228-5.343.306-.117.006-.234.008-.349.008z"/><path d="m232.893 243.652c-.388 0-.781-.029-1.176-.09-3.444-.526-5.388-.955-5.599-1.002-4.164-.934-6.783-5.066-5.85-9.23.933-4.16 5.06-6.784 9.22-5.852.036.008 1.663.364 4.562.807 4.218.645 7.116 4.587 6.472 8.806-.584 3.823-3.877 6.561-7.629 6.561z"/><path d="m309.545 239.299c-3.431 0-6.564-2.302-7.472-5.776-1.078-4.129 1.395-8.351 5.524-9.43 1.582-.414 3.183-.855 4.758-1.314 4.099-1.187 8.387 1.161 9.579 5.258 1.193 4.098-1.161 8.387-5.258 9.581-1.712.498-3.453.979-5.174 1.429-.654.17-1.311.252-1.957.252z"/><path d="m347.892 224.43c-2.769 0-5.447-1.493-6.834-4.11-1.999-3.771-.562-8.448 3.208-10.447 1.443-.765 2.895-1.562 4.316-2.369 3.71-2.109 8.427-.81 10.536 2.9 2.109 3.711.81 8.427-2.9 10.536-1.552.882-3.138 1.753-4.714 2.589-1.153.61-2.391.901-3.612.901z"/><path d="m381.668 201.004c-2.138 0-4.265-.881-5.792-2.609-2.826-3.198-2.526-8.08.671-10.908 1.224-1.082 2.451-2.198 3.645-3.317 3.115-2.917 8.004-2.757 10.922.357 2.917 3.115 2.758 8.004-.357 10.922-1.302 1.219-2.64 2.437-3.974 3.617-1.47 1.299-3.296 1.938-5.115 1.938z"/><path d="m177.925 233.395c-5.244 0-10.135-1.502-14.276-4.092v53.713c0 6.98 5.711 12.69 12.69 12.69h3.173c6.98 0 12.69-5.71 12.69-12.69v-53.713c-4.141 2.59-9.032 4.092-14.277 4.092z"/></g><path d="m177.925 233.395c-5.244 0-10.135-1.502-14.276-4.092v53.713c0 6.98 5.711 12.69 12.69 12.69h2.953c-.003-.11-.017-.216-.017-.327v-40.304c0-5.805 5.092-10.276 10.85-9.547.684.087 1.377.148 2.076.182v-16.407c-4.14 2.59-9.031 4.092-14.276 4.092z" fill="#b1dbfc"/><ellipse cx="177.925" cy="209.52" fill="#ff8188" rx="26.966" ry="26.967" transform="matrix(.16 -.987 .987 .16 -57.389 351.586)"/><path d="m177.925 209.52c0-9.98 5.425-18.687 13.483-23.35-3.967-2.296-8.57-3.617-13.483-3.617-14.893 0-26.967 12.073-26.967 26.967 0 14.893 12.073 26.966 26.967 26.966 4.914 0 9.516-1.321 13.483-3.617-8.057-4.663-13.483-13.37-13.483-23.349z" fill="#ff656f"/><path d="m424.34 56.601c-5.244 0-10.135-1.502-14.276-4.092v53.713c0 6.98 5.711 12.69 12.69 12.69h3.173c6.98 0 12.69-5.71 12.69-12.69v-53.713c-4.142 2.59-9.033 4.092-14.277 4.092z" fill="#dfebfa"/><path d="m424.34 56.601c-5.244 0-10.135-1.502-14.276-4.092v53.713c0 6.979 5.711 12.69 12.69 12.69h2.953c-.003-.11-.017-.216-.017-.327v-40.303c0-5.805 5.092-10.276 10.85-9.547.684.087 1.377.148 2.076.182v-16.408c-4.14 2.59-9.032 4.092-14.276 4.092z" fill="#b1dbfc"/><ellipse cx="424.34" cy="32.726" fill="#ffd301" rx="26.966" ry="26.967" transform="matrix(.16 -.987 .987 .16 324.066 446.345)"/><path d="m424.34 32.726c0-9.98 5.425-18.687 13.483-23.35-3.967-2.296-8.57-3.617-13.483-3.617-14.893 0-26.967 12.073-26.967 26.967 0 14.893 12.073 26.966 26.967 26.966 4.914 0 9.516-1.321 13.483-3.617-8.058-4.663-13.483-13.37-13.483-23.349z" fill="#ffc20c"/></svg>