<svg id="Capa_1" enable-background="new 0 0 512 512" height="512" viewBox="0 0 512 512" width="512" xmlns="http://www.w3.org/2000/svg"><path d="m449.505 192.226v-64.953c0-18.259-14.802-33.061-33.061-33.061h-122.88c-18.259 0-33.061 14.802-33.061 33.061v64.953c0 17.272 14.002 31.273 31.273 31.273h126.455c17.273.001 31.274-14.001 31.274-31.273z" fill="#fa9801"/><path d="m449.505 192.226v-64.953c0-18.259-14.802-33.061-33.061-33.061h-122.88c-18.259 0-33.061 14.802-33.061 33.061v64.953c0 17.272 14.002 31.273 31.273 31.273h126.455c17.273.001 31.274-14.001 31.274-31.273z" fill="#fa9801"/><path d="m416.444 94.212h-3.753v109.251c0 11.066-8.971 20.036-20.036 20.036h25.577c17.272 0 31.273-14.002 31.273-31.273v-64.953c0-18.259-14.802-33.061-33.061-33.061z" fill="#f88604"/><path d="m279.179 255.607c0 28.737 41.101 73.794 75.113 73.967 34.012-.172 75.113-44.38 75.113-73.967l-35.293-5.573c-5.815-.918-10.097-5.931-10.096-11.818l.006-31.52h-29.729-29.729l.006 31.52c.001 5.887-4.281 10.9-10.096 11.818z" fill="#fff0dc"/><path d="m493.314 304.041c-1.542-22.676-18.558-41.273-41.009-44.819l-22.901-3.616c-12.023 29.743-41.101 50.76-75.113 50.932-34.012-.172-63.09-21.189-75.113-50.932l-22.901 3.616c-22.45 3.545-39.467 22.142-41.008 44.818l-5.705 103.351h289.455z" fill="#d5b0ec"/><path d="m347.201 254.455c-.001 5.887 4.281 10.899 10.096 11.818 37.058 5.852 45.212 7.139 58.194 9.189 2.776.438 5.469 1.109 8.06 1.986 3.708-7.577 5.854-15.091 5.854-21.842l-35.293-5.573c-5.815-.918-10.097-5.931-10.096-11.818l.006-31.52h-29.729-7.087z" fill="#ffddce"/><path d="m456.5 320.281 4.808 87.111h37.711l-5.705-103.351c-1.542-22.676-18.558-41.273-41.009-44.818l-22.901-3.616c-2.965 7.336-6.972 14.138-11.831 20.231 21.414 4.332 37.433 22.473 38.927 44.443z" fill="#c995e4"/><path d="m295.106 166.127c.339 15.817 6.986 31.041 18.994 41.38 9.667 8.324 23.256 23.884 41.206 24.085 17.95-.2 31.539-15.761 41.206-24.085 12.008-10.339 18.654-25.563 18.994-41.38l.086-79.632h-121.159z" fill="#fff0dc"/><path d="m378.751 86.495-.06 91.497c-.34 15.817-6.986 31.041-18.994 41.38-3.589 3.09-7.719 7.177-12.411 11.105 2.57.683 5.242 1.083 8.019 1.114 17.95-.2 31.539-15.761 41.206-24.085 12.008-10.339 18.654-25.563 18.994-41.38l.086-79.632h-36.84z" fill="#ffddce"/><path d="m449.505 136.646s-27.427-2.177-40.699-25.62c-2.013-3.556-6.69-4.546-10.04-2.205-20.478 14.308-83.996 53.179-138.263 27.826v-16.022c0-47.908 38.837-86.745 86.745-86.745h15.512c47.908 0 86.745 38.837 86.745 86.745z" fill="#fba615"/><path d="m162.879 416.983h-66.581l18.297-98.791h29.987z" fill="#a8d0d5"/><path d="m250.269 344.345h-241.68c-4.744 0-8.589-3.845-8.589-8.589v-152.098c0-4.744 3.845-8.589 8.589-8.589h241.68c4.744 0 8.589 3.845 8.589 8.589v152.098c0 4.744-3.845 8.589-8.589 8.589z" fill="#eff3f5"/><path d="m250.269 175.07h-28.225v150.122c0 10.579-8.576 19.154-19.154 19.154h47.379c4.744 0 8.589-3.845 8.589-8.589v-152.099c0-4.743-3.845-8.588-8.589-8.588z" fill="#e5ecf1"/><circle cx="129.429" cy="255.064" fill="#557981" r="25.46"/><path d="m181.533 425.791h-104.208v-29.824c0-9.741 7.896-17.637 17.637-17.637h68.933c9.741 0 17.637 7.896 17.637 17.637v29.824z" fill="#8db9c2"/><path d="m497.858 478.12h-483.701c-7.81 0-14.142-6.331-14.142-14.142v-43.88c0-7.81 6.331-14.142 14.142-14.142h483.701c7.81 0 14.142 6.331 14.142 14.142v43.88c0 7.811-6.331 14.142-14.142 14.142z" fill="#e7b467"/><path d="m497.858 405.957h-22.68v20.729c0 8.165-6.619 14.783-14.783 14.783h-460.38v22.509c0 7.81 6.331 14.142 14.142 14.142h483.702c7.81 0 14.142-6.332 14.142-14.142v-43.88c-.001-7.809-6.332-14.141-14.143-14.141z" fill="#d7a85f"/></svg>