<?xml version="1.0" encoding="iso-8859-1"?>
<!-- Generator: Adobe Illustrator 21.0.0, SVG Export Plug-In . SVG Version: 6.00 Build 0)  -->
<svg xmlns="http://www.w3.org/2000/svg" xmlns:xlink="http://www.w3.org/1999/xlink" version="1.1" id="Capa_1" x="0px" y="0px" viewBox="0 0 511.534 511.534" style="enable-background:new 0 0 511.534 511.534;" xml:space="preserve" width="512" height="512">
<g>
	<path style="fill:#45BF7F;" d="M401.9,216.303c-11.126-23.583-17.007-49.876-17.007-76.036V92.545c0-4.143-3.357-7.5-7.5-7.5   h-66.429c-4.142,0-7.5,3.357-7.5,7.5v47.722c0,26.162-5.881,52.455-17.006,76.036c-34.369,72.851-34.369,85.784-34.369,90.034   v165.597c0,21.836,15.763,39.601,35.137,39.601h113.905c19.375,0,35.138-17.765,35.138-39.601V306.337   C436.269,302.087,436.269,289.153,401.9,216.303z"/>
	<path style="fill:#00B76C;" d="M401.9,216.303c-11.126-23.583-17.007-49.876-17.007-76.036V92.545c0-4.143-3.357-7.5-7.5-7.5h-34.5   c4.142,0,7.5,3.357,7.5,7.5v47.722c0,26.16,5.881,52.453,17.007,76.036c34.369,72.851,34.369,85.784,34.369,90.034v165.597   c0,21.836-15.763,39.601-35.138,39.601h34.501c19.375,0,35.138-17.765,35.138-39.601V306.337   C436.269,302.087,436.269,289.153,401.9,216.303z"/>
	<path style="fill:#FFDF65;" d="M385.081,148.006l-40.788,31.721l-30.108-23.137c-0.287-0.221-0.59-0.415-0.9-0.589   c-3.458-2.646-6.862-5.252-10.021-7.669c-0.962,20.94-5.65,41.769-13.738,61.044c16.829,15,49.754,44.338,49.754,44.338   c1.426,1.281,3.22,1.922,5.014,1.922c1.794,0,3.588-0.641,5.014-1.922l49.756-43.795   C390.791,190.391,386.018,169.25,385.081,148.006z"/>
	<path style="fill:#FFCD2C;" d="M367.4,216.303c2.551,5.406,4.907,10.475,7.093,15.242l24.569-21.626   c-8.271-19.527-13.045-40.668-13.981-61.913l-31.688,24.644C356.183,187.749,360.884,202.492,367.4,216.303z"/>
	<rect x="252.09" y="316.625" style="fill:#FFDF65;" width="184.18" height="133.801"/>
	<path style="fill:#C4C4C4;" d="M188.03,496.534h-40.104V360.526c0-4.143-3.357-7.5-7.5-7.5c-4.143,0-7.5,3.357-7.5,7.5v136.008   H94.855c-4.143,0-7.5,3.357-7.5,7.5c0,4.143,3.357,7.5,7.5,7.5h93.175c4.142,0,7.5-3.357,7.5-7.5   C195.53,499.892,192.173,496.534,188.03,496.534z"/>
	<path style="fill:#6E563D;" d="M355.59,0h-22.82c-15.163,0-27.5,12.337-27.5,27.5v30.258c0,4.143,3.357,7.5,7.5,7.5h62.82   c4.143,0,7.5-3.357,7.5-7.5V27.5C383.09,12.337,370.753,0,355.59,0z"/>
	<path style="fill:#604B35;" d="M355.59,0h-22.82c-1.872,0-3.7,0.19-5.468,0.548c12.552,2.543,22.032,13.661,22.032,26.952v30.258   c0,4.143-3.357,7.5-7.5,7.5h33.757c4.143,0,7.5-3.357,7.5-7.5V27.5C383.09,12.337,370.753,0,355.59,0z"/>
	<path style="fill:#E0E0E0;" d="M205.127,295.112l-14.499-145.547c-0.382-3.836-3.608-6.757-7.463-6.757H97.688   c-3.854,0-7.081,2.921-7.463,6.757L75.727,295.111c-2.214,18.472,3.59,37.045,15.931,50.971   c12.358,13.946,30.134,21.944,48.769,21.944c18.634,0,36.409-7.998,48.768-21.943C201.534,332.158,207.339,313.584,205.127,295.112   z"/>
	<path style="fill:#C4C4C4;" d="M205.127,295.112l-14.499-145.547c-0.382-3.836-3.608-6.757-7.463-6.757h-34.644   c3.854,0,7.081,2.921,7.463,6.757l14.499,145.547c2.212,18.472-3.593,37.046-15.933,50.971   c-8.439,9.523-19.406,16.267-31.446,19.59c5.591,1.543,11.413,2.353,17.322,2.353c18.634,0,36.409-7.998,48.768-21.943   C201.534,332.158,207.339,313.584,205.127,295.112z"/>
	<path style="fill:#FFDF65;" d="M75.727,295.111c-2.214,18.472,3.59,37.045,15.931,50.971   c12.358,13.946,30.134,21.944,48.769,21.944c18.634,0,36.409-7.998,48.768-21.943c12.34-13.925,18.145-32.499,15.933-50.971   l-8.262-82.939H83.989L75.727,295.111z"/>
	<path style="fill:#FFCD2C;" d="M205.127,295.112l-8.262-82.939h-34.644l8.262,82.939c2.212,18.472-3.593,37.046-15.933,50.971   c-8.439,9.523-19.406,16.267-31.446,19.59c5.591,1.543,11.413,2.353,17.322,2.353c18.634,0,36.409-7.998,48.768-21.943   C201.534,332.158,207.339,313.584,205.127,295.112z"/>
	<path style="fill:#008950;" d="M388.232,50.258h-88.106c-4.143,0-7.5,3.357-7.5,7.5v34.787c0,4.143,3.357,7.5,7.5,7.5h88.106   c4.143,0,7.5-3.357,7.5-7.5V57.758C395.732,53.615,392.375,50.258,388.232,50.258z"/>
	<path style="fill:#00723F;" d="M388.232,50.258h-27v49.787h27c4.143,0,7.5-3.357,7.5-7.5V57.758   C395.732,53.615,392.375,50.258,388.232,50.258z"/>
	<rect x="401.769" y="316.625" style="fill:#FFCD2C;" width="34.5" height="133.801"/>
</g>















</svg>
