<svg height="512pt" viewBox="0 -65 512.00002 512" width="512pt" xmlns="http://www.w3.org/2000/svg"><path d="m447.949219 10.40625v268.71875c0 3.121094-1.375 5.921875-3.550781 7.824219-1.820313 1.605469-4.222657 2.582031-6.859376 2.582031h-427.132812c-2.632812 0-5.023438-.976562-6.855469-2.582031-2.175781-1.914063-3.550781-4.714844-3.550781-7.824219v-268.71875c0-5.746094 4.660156-10.40625 10.40625-10.40625h427.136719c5.753906 0 10.40625 4.660156 10.40625 10.40625zm0 0" fill="#fdc26b"/><path d="m447.949219 10.40625v268.71875c0 3.121094-1.375 5.921875-3.550781 7.824219-1.820313 1.605469-4.222657 2.582031-6.859376 2.582031h-14.515624v-167.398438c0-9.230468-9.957032-15.050781-17.992188-10.5l-113.453125 64.113282h-.007813l-19.472656 11-43 24.296875c-3.183594 1.792969-7.066406 1.792969-10.238281 0l-43-24.296875h-.011719l-19.46875-11-156.378906-88.363282v-76.976562c0-5.746094 4.660156-10.40625 10.40625-10.40625h427.136719c5.753906 0 10.40625 4.660156 10.40625 10.40625zm0 0" fill="#fcb54c"/><path d="m444.398438 286.949219c-1.820313 1.601562-4.222657 2.582031-6.859376 2.582031h-427.132812c-2.632812 0-5.023438-.980469-6.855469-2.582031l152.828125-111.203125 16.183594-11.78125 51.417969-37.410156 51.40625 37.410156h.011719l16.171874 11.78125h.007813l131.445313 95.644531zm0 0" fill="#fba72d"/><path d="m444.398438 286.949219c-1.820313 1.601562-4.222657 2.582031-6.859376 2.582031h-24.183593l-141.257813-102.785156-16.171875-11.769532h-.007812l-31.9375-23.25-31.949219 23.25-16.171875 11.769532h-.011719l-141.246094 102.785156h-24.195312c-2.632812 0-5.023438-.980469-6.855469-2.582031l152.828125-111.203125 16.183594-11.78125 51.417969-37.410156 51.40625 37.410156h.011719l16.171874 11.78125h.007813l131.445313 95.644531zm0 0" fill="#fa9a0f"/><path d="m291.570312 175.742188-67.59375-49.1875-67.59375 49.1875 62.472657 35.300781c3.179687 1.792969 7.0625 1.792969 10.242187 0zm0 0" fill="#fa9a0f"/><path d="m447.949219 10.40625v49.988281c0 3.75-2.019531 7.214844-5.289063 9.058594l-167.261718 94.511719h-.011719l-19.457031 11.011718h-.011719l-26.816407 15.152344c-3.183593 1.789063-7.066406 1.789063-10.242187 0l-26.828125-15.152344-19.46875-11.011718-167.277344-94.511719c-3.265625-1.84375-5.285156-5.308594-5.285156-9.058594v-49.988281c0-5.746094 4.660156-10.40625 10.40625-10.40625h427.136719c5.753906 0 10.40625 4.660156 10.40625 10.40625zm0 0" fill="#fecf8a"/><path d="m512 268.488281c0 63.222657-51.25 114.472657-114.472656 114.472657-63.21875 0-114.472656-51.25-114.472656-114.472657 0-63.222656 51.253906-114.472656 114.472656-114.472656 63.222656 0 114.472656 51.25 114.472656 114.472656zm0 0" fill="#93dcfc"/><path d="m473.097656 182.511719c17.734375 20.164062 28.496094 46.609375 28.496094 75.570312 0 63.222657-51.25 114.472657-114.472656 114.472657-28.960938 0-55.40625-10.761719-75.570313-28.496094 20.980469 23.847656 51.71875 38.902344 85.976563 38.902344 63.222656 0 114.472656-51.25 114.472656-114.472657 0-34.257812-15.054688-64.996093-38.902344-85.976562zm0 0" fill="#72d1fb"/><path d="m397.527344 351.738281c-45.90625 0-83.25-37.34375-83.25-83.25s37.34375-83.253906 83.25-83.253906 83.253906 37.347656 83.253906 83.253906-37.347656 83.25-83.253906 83.25zm0 0" fill="#e1ebf0"/><path d="m449.785156 203.742188c11.5625 14.300781 18.507813 32.480468 18.507813 52.257812 0 45.90625-37.347657 83.253906-83.253907 83.253906-19.777343 0-37.957031-6.945312-52.253906-18.511718 15.273438 18.890624 38.617188 30.996093 64.742188 30.996093 45.90625 0 83.253906-37.34375 83.253906-83.25 0-26.128906-12.109375-49.46875-30.996094-64.746093zm0 0" fill="#b4d2d7"/><path d="m428.746094 276.292969h-31.21875c-4.308594 0-7.804688-3.492188-7.804688-7.804688v-49.953125c0-4.308594 3.496094-7.804687 7.804688-7.804687 4.3125 0 7.804687 3.496093 7.804687 7.804687v42.148438h23.414063c4.3125 0 7.808594 3.492187 7.808594 7.804687s-3.496094 7.804688-7.808594 7.804688zm0 0" fill="#72d1fb"/></svg>