<svg id="Layer_1" enable-background="new 0 0 128 128" height="512" viewBox="0 0 128 128" width="512" xmlns="http://www.w3.org/2000/svg"><path d="m109.9 91.7-13.3-13.3c-5.5-5.5-14.3-5.5-19.8 0-1.1 1.1-2 2.3-2.6 3.7l-2.9 5.7c-1 2-3.4 2.8-5.4 1.8-.4-.2-.7-.4-1-.8l-26.1-26c-1.6-1.6-1.6-4.1 0-5.7.3-.3.7-.6 1-.8l5.7-2.9c6.9-3.4 9.7-11.8 6.3-18.8-.7-1.4-1.6-2.6-2.6-3.7l-13.2-13.1c-3.9-3.9-10.2-3.9-14.1 0l-10.1 10.1c-13.3 13.2-13.3 34.8 0 48.1l39.9 40c13.3 13.3 34.8 13.3 48.1 0l10.1-10.1c3.9-4 3.9-10.3 0-14.2z" fill="#5a6571"/><g fill="#40b4f9"><path d="m78.2 63.6h9.6c-.4-12.8-10.9-23-23.8-23.1v9.6c7.6.1 13.8 6 14.2 13.5z"/><path d="m97.4 63.6h9.6c-.4-23.4-19.5-42.2-43-42.3v9.6c18.2.1 33 14.6 33.4 32.7z"/><path d="m116.6 63.6h9.6c-.4-34-28.1-61.4-62.2-61.5v9.6c28.8.1 52.2 23.2 52.6 51.9z"/></g></svg>