<?xml version="1.0" encoding="UTF-8" standalone="no"?>
<svg
   xmlns:dc="http://purl.org/dc/elements/1.1/"
   xmlns:cc="http://creativecommons.org/ns#"
   xmlns:rdf="http://www.w3.org/1999/02/22-rdf-syntax-ns#"
   xmlns:svg="http://www.w3.org/2000/svg"
   xmlns="http://www.w3.org/2000/svg"
   xmlns:sodipodi="http://sodipodi.sourceforge.net/DTD/sodipodi-0.dtd"
   xmlns:inkscape="http://www.inkscape.org/namespaces/inkscape"
   height="456pt"
   viewBox="-4 0 456 456.60804"
   width="456pt"
   version="1.1"
   id="svg6580"
   sodipodi:docname="happier.svg"
   inkscape:version="0.92.3 (2405546, 2018-03-11)">
  <metadata
     id="metadata6586">
    <rdf:RDF>
      <cc:Work
         rdf:about="">
        <dc:format>image/svg+xml</dc:format>
        <dc:type
           rdf:resource="http://purl.org/dc/dcmitype/StillImage" />
      </cc:Work>
    </rdf:RDF>
  </metadata>
  <defs
     id="defs6584" />
  <sodipodi:namedview
     pagecolor="#ffffff"
     bordercolor="#666666"
     borderopacity="1"
     objecttolerance="10"
     gridtolerance="10"
     guidetolerance="10"
     inkscape:pageopacity="0"
     inkscape:pageshadow="2"
     inkscape:window-width="1853"
     inkscape:window-height="1025"
     id="namedview6582"
     showgrid="false"
     inkscape:zoom="0.77631579"
     inkscape:cx="106.50833"
     inkscape:cy="353.98526"
     inkscape:window-x="67"
     inkscape:window-y="27"
     inkscape:window-maximized="1"
     inkscape:current-layer="svg6580" />
  <path
     style="fill:#b4b4b4;fill-opacity:0.55294118;stroke-width:0.99999994"
     d="M 227.55552,38.72931 C 149.79127,39.120131 90.178773,76.69375 58.495427,112.77029 23.221989,152.93826 3.7936563,204.52721 3.7780317,258.03893 c 0,0.0195 -0.0044,0.0397 -0.0044,0.0631 0,2.76172 2.2385922,5.00032 5.0003109,5.00032 H 127.36302 c 0.69141,0 1.34781,-0.14067 1.94937,-0.39457 1.79297,-0.75782 3.05534,-2.53592 3.05534,-4.61014 0,-30.11329 14.8042,-58.33491 39.60498,-75.48725 2.26953,-1.57031 2.84007,-4.68454 1.26584,-6.95408 -1.57031,-2.27343 -4.68357,-2.83909 -6.95701,-1.26878 -26.12109,18.06641 -42.23115,47.21028 -43.77803,78.71419 H 13.840259 c 0.386718,-16.25782 2.656262,-32.1246 6.609388,-47.3746 l 20.10832,5.39047 c 0.433594,0.11328 0.872334,0.16868 1.298115,0.16868 2.207031,0 4.229573,-1.47368 4.827229,-3.70806 0.714844,-2.66406 -0.867013,-5.4061 -3.534981,-6.12094 L 23.195491,196.1093 c 4.460937,-14.34375 10.429366,-28.06581 17.726241,-40.98378 l 17.281803,9.98009 c 0.789063,0.45313 1.647364,0.67179 2.495022,0.67179 1.726562,0 3.407137,-0.89786 4.332918,-2.49942 1.382812,-2.39453 0.562995,-5.44953 -1.827629,-6.83234 l -17.168859,-9.90968 c 7.914063,-12.58984 17.13277,-24.30534 27.468708,-34.95378 l 13.648548,13.64855 c 0.980468,0.97657 2.258129,1.46533 3.539381,1.46533 1.277338,0 2.558416,-0.48876 3.534979,-1.46533 1.953126,-1.95312 1.953126,-5.11684 0,-7.06996 L 80.632331,104.5709 C 91.397954,94.46932 103.23113,85.47371 115.9616,77.79012 l 9.47991,16.42079 c 0.92578,1.60156 2.60488,2.50089 4.33145,2.50089 0.84765,0 1.71133,-0.21477 2.49649,-0.6718 2.39063,-1.37891 3.21094,-4.4373 1.83203,-6.82793 l -9.46084,-16.38706 c 12.8867,-6.96484 26.58969,-12.6254 40.95297,-16.793356 l 4.8551,18.120806 c 0.60156,2.23437 2.62167,3.70806 4.8287,3.70806 0.42578,0 0.86305,-0.0559 1.29664,-0.17308 2.66798,-0.71484 4.24982,-3.45591 3.53498,-6.12387 l -4.84776,-18.087082 c 6.37575,-1.521879 47.70986,-8.705007 76.93204,-3.955953 0.29767,0.101416 0.60842,0.178198 0.93141,0.222957 6.73047,0.925781 13.34723,2.179282 19.84723,3.73006 l -4.84629,18.090018 c -0.71485,2.66796 0.87092,5.40903 3.53498,6.12387 0.4375,0.11719 0.86989,0.17308 1.29958,0.17308 2.20703,0 4.22664,-1.47369 4.8243,-3.70806 l 4.85656,-18.125207 c 14.36718,4.167967 28.07309,9.828507 40.9559,16.793357 l -9.46084,16.39146 c -1.38281,2.39062 -0.56152,5.44903 1.8291,6.82793 0.78906,0.45704 1.64736,0.6718 2.49502,0.6718 1.73047,0 3.41154,-0.89933 4.33732,-2.50089 l 9.48431,-16.4296 c 12.72656,7.6875 24.55828,16.6846 35.32781,26.78225 l -13.59868,13.59721 c -1.95312,1.95313 -1.95312,5.12124 0,7.07436 0.97657,0.97266 2.2552,1.46094 3.53645,1.46093 1.27734,0 2.55841,-0.48827 3.53498,-1.46093 l 13.65588,-13.65588 c 10.33203,10.64844 19.55025,22.36687 27.46431,34.95671 l -17.17179,9.91408 c -2.39063,1.37891 -3.21044,4.43732 -1.82764,6.82794 0.92578,1.60547 2.60539,2.49942 4.33586,2.49942 0.84765,0 1.70693,-0.21426 2.49209,-0.66739 l 17.28913,-9.98449 c 7.29297,12.91797 13.25846,26.64443 17.72331,40.98818 l -19.95431,5.34354 c -2.66797,0.71484 -4.24885,3.45738 -3.53791,6.12534 0.60156,2.23438 2.6202,3.7066 4.82723,3.7066 0.42969,0 0.86305,-0.0544 1.29665,-0.17162 l 20.10978,-5.39047 c 3.95313,15.25 6.22707,31.11679 6.61379,47.3746 H 325.73411 c -1.55859,-31.85547 -17.94943,-61.19535 -44.52756,-79.2305 -2.28906,-1.54688 -5.39841,-0.95331 -6.94528,1.33185 -1.55078,2.28516 -0.95624,5.3945 1.32891,6.94529 25.22266,17.11328 40.27678,45.50446 40.27678,75.95367 0,2.07032 1.2614,3.84794 3.05828,4.60575 0.59765,0.25391 1.25894,0.39457 1.94643,0.39457 h 118.59348 c 2.76171,0 5.00031,-2.2386 5.00031,-5.00032 0,-0.0195 -0.009,-0.0386 -0.009,-0.0543 -0.0117,-53.52735 -19.44887,-105.12514 -54.73793,-145.30091 -34.97266,-39.81641 -82.99648,-65.710866 -135.22695,-72.910087 -0.3882,-0.05331 -0.77106,-0.0554 -1.14557,-0.02053 -0.35486,-0.02839 -0.7167,-0.02242 -1.08397,0.02787 -8.42226,-0.798223 -16.66214,-1.155196 -24.70672,-1.11477 z"
     id="path6556"
     inkscape:connector-curvature="0" />
  <path
     d="m 220.55809,47.678031 0.0875,18.961789 c 0.01,1.84985 1.02251,3.46307 2.52176,4.3194 0.73605,0.42041 1.59222,0.66201 2.50069,0.65457 2.75977,-0.0117 4.98904,-2.26074 4.97735,-5.02052 l -0.088,-18.92157 c 0,0 -12.31501,-1.459629 -9.99934,0.0063 z"
     id="path6558-4"
     inkscape:connector-curvature="0"
     style="fill:#b4b4b4;fill-opacity:0.55294118;stroke-width:0.99999994"
     sodipodi:nodetypes="ccscccc" />
  <path
     style="fill:#00c749;fill-opacity:1;stroke:none;stroke-width:9.98727417;stroke-linecap:round;stroke-miterlimit:13.80000019;stroke-dasharray:none;stroke-opacity:1"
     d="m 196.43141,285.68331 c -11.63993,-4.12304 -22.09967,-15.8718 -24.69204,-27.73506 -0.90913,-4.16036 -0.49651,-13.26505 0.7843,-17.28772 2.55886,-8.04193 10.04769,-18.03353 15.96475,-21.3002 5.5407,-3.05887 17.62197,-5.44702 75.03946,-14.83336 96.57577,-15.78775 149.31751,-24.20531 150.00583,-23.94089 0.85033,0.32666 1.34802,0.0527 -80.04668,43.90794 -92.53306,49.85543 -113.40864,60.88258 -116.98104,61.79316 -3.53441,0.9009 -16.96634,0.49685 -20.07374,-0.60383 z"
     id="path7157"
     inkscape:connector-curvature="0" />
  <g
     id="g7358"
     transform="matrix(0.2727009,0,0,0.2727009,307.58332,277.68938)">
    <g
       id="g7338">
      <g
         id="g7336">
        <path
           style="fill:#ffe846;fill-opacity:1"
           inkscape:connector-curvature="0"
           d="M 256,512 C 114.841,512 0,397.159 0,256 0,114.841 114.841,0 256,0 397.159,0 512,114.841 512,256 512,397.159 397.159,512 256,512 Z"
           id="path7334" />
      </g>
    </g>
    <g
       id="g7342">
      <path
         style="fill:#ffd700;fill-opacity:1"
         inkscape:connector-curvature="0"
         d="M 256,0 V 512 C 397.159,512 512,397.159 512,256 512,114.841 397.159,0 256,0 Z"
         id="path7340" />
    </g>
    <g
       id="g7346">
      <path
         style="fill:#00347b"
         inkscape:connector-curvature="0"
         d="m 113.516,218.18 c -1.608,0 -3.243,-0.261 -4.85,-0.81 -7.84,-2.678 -12.024,-11.204 -9.346,-19.043 9.057,-26.514 33.966,-44.327 61.984,-44.327 27.998,0 52.901,17.797 61.969,44.284 2.683,7.838 -1.496,16.366 -9.333,19.05 -7.839,2.682 -16.367,-1.495 -19.05,-9.333 C 189.975,193.646 176.478,184 161.304,184 c -15.185,0 -28.686,9.654 -33.594,24.024 -2.129,6.233 -7.956,10.156 -14.194,10.156 z"
         id="path7344" />
    </g>
    <g
       id="g7350">
      <path
         style="fill:#001737"
         inkscape:connector-curvature="0"
         d="m 303,218.18 c -1.608,0 -3.243,-0.261 -4.85,-0.81 -7.84,-2.678 -12.024,-11.204 -9.346,-19.043 9.058,-26.514 33.967,-44.327 61.984,-44.327 27.998,0 52.901,17.797 61.969,44.284 2.683,7.838 -1.496,16.366 -9.333,19.05 -7.84,2.682 -16.367,-1.495 -19.05,-9.333 C 379.459,193.646 365.962,184 350.788,184 c -15.185,0 -28.686,9.654 -33.594,24.024 -2.129,6.233 -7.955,10.156 -14.194,10.156 z"
         id="path7348" />
    </g>
    <g
       id="g7354">
      <path
         style="fill:#00347b"
         inkscape:connector-curvature="0"
         d="m 256,397.755 c -41.94,0 -81.383,-22.35 -102.938,-58.326 -4.258,-7.106 -1.949,-16.318 5.158,-20.576 7.109,-4.257 16.32,-1.947 20.577,5.158 16.167,26.982 45.749,43.744 77.204,43.744 31.544,0 61.17,-16.834 77.317,-43.933 4.24,-7.117 13.446,-9.451 20.563,-5.208 7.117,4.24 9.449,13.447 5.208,20.563 C 337.56,375.31 298.059,397.755 256,397.755 Z"
         id="path7352" />
    </g>
    <path
       style="fill:#001737"
       inkscape:connector-curvature="0"
       d="m 353.88,318.614 c -7.117,-4.243 -16.324,-1.909 -20.563,5.208 -16.135,27.08 -45.731,43.908 -77.251,43.932 v 30 c 42.034,-0.023 81.506,-22.463 103.023,-58.576 4.24,-7.116 1.908,-16.324 -5.209,-20.564 z"
       id="path7356" />
  </g>
  <g
     id="g7325"
     transform="matrix(0.27403694,0,0,0.27403694,-2.9744624,277.00533)">
    <g
       id="g7305">
      <g
         id="g7303">
        <path
           style="fill:#ffde82;fill-opacity:1"
           inkscape:connector-curvature="0"
           d="M 256,512 C 114.841,512 0,397.159 0,256 0,114.841 114.841,0 256,0 397.159,0 512,114.841 512,256 512,397.159 397.159,512 256,512 Z"
           id="path7301" />
      </g>
    </g>
    <g
       id="g7309">
      <path
         style="fill:#ffcd64;fill-opacity:1"
         inkscape:connector-curvature="0"
         d="M 256,0 V 512 C 397.159,512 512,397.159 512,256 512,114.841 397.159,0 256,0 Z"
         id="path7307" />
    </g>
    <g
       id="g7313">
      <path
         style="fill:#00347b"
         inkscape:connector-curvature="0"
         d="m 346.217,368.502 c -5.112,0 -10.094,-2.614 -12.9,-7.325 -16.146,-27.099 -45.772,-43.933 -77.316,-43.933 -31.455,0 -61.038,16.762 -77.204,43.745 -4.258,7.106 -13.469,9.418 -20.576,5.158 -7.106,-4.257 -9.416,-13.47 -5.158,-20.576 21.555,-35.977 60.998,-58.327 102.938,-58.327 42.059,0 81.56,22.445 103.088,58.577 4.24,7.117 1.909,16.323 -5.208,20.564 -2.407,1.435 -5.053,2.117 -7.664,2.117 z"
         id="path7311" />
    </g>
    <g
       id="g7317">
      <path
         style="fill:#00347b"
         inkscape:connector-curvature="0"
         d="m 161.304,248 c -28.018,0 -52.927,-17.814 -61.982,-44.327 -2.678,-7.84 1.506,-16.366 9.346,-19.043 7.841,-2.678 16.365,1.508 19.043,9.346 4.908,14.37 18.409,24.024 33.594,24.024 15.175,0 28.672,-9.646 33.586,-24.001 2.683,-7.837 11.211,-12.017 19.05,-9.333 7.837,2.683 12.016,11.212 9.333,19.049 C 214.205,230.203 189.302,248 161.304,248 Z"
         id="path7315" />
    </g>
    <g
       id="g7321">
      <path
         style="fill:#001737"
         inkscape:connector-curvature="0"
         d="m 350.789,248 c -28.019,0 -52.928,-17.814 -61.983,-44.327 -2.678,-7.84 1.506,-16.366 9.346,-19.043 7.843,-2.678 16.365,1.508 19.043,9.346 4.908,14.37 18.409,24.024 33.595,24.024 15.174,0 28.671,-9.646 33.586,-24.001 2.685,-7.837 11.216,-12.014 19.05,-9.333 7.838,2.684 12.017,11.212 9.333,19.05 -9.07,26.487 -33.973,44.284 -61.97,44.284 z"
         id="path7319" />
    </g>
    <path
       style="fill:#001737"
       inkscape:connector-curvature="0"
       d="M 359.088,345.822 C 337.56,309.69 298.059,287.245 256,287.245 v 30 c 31.544,0 61.17,16.834 77.316,43.933 2.807,4.71 7.788,7.325 12.9,7.325 2.611,0 5.257,-0.683 7.663,-2.116 7.118,-4.241 9.449,-13.448 5.209,-20.565 z"
       id="path7323" />
  </g>
</svg>
