<svg height="512pt" viewBox="-25 0 512 512.00011" width="512pt" xmlns="http://www.w3.org/2000/svg"><path d="m127.679688 0-127.679688 127.679688v327.183593c0 4.40625 3.574219 7.980469 7.980469 7.980469h375.0625c4.40625 0 7.980469-3.574219 7.980469-7.980469v-446.882812c0-4.40625-3.574219-7.980469-7.980469-7.980469zm0 0" fill="#f0edef"/><path d="m47.878906 454.863281v-375.0625l-47.878906 47.878907v327.183593c0 4.40625 3.574219 7.980469 7.980469 7.980469h47.878906c-4.40625 0-7.980469-3.574219-7.980469-7.980469zm0 0" fill="#d2cad0"/><path d="m127.679688 119.699219v-119.699219l-127.679688 127.679688h119.699219c4.410156 0 7.980469-3.570313 7.980469-7.980469zm0 0" fill="#e1dce0"/><g fill="#c3b9c1"><path d="m247.382812 87.78125h-79.800781c-4.40625 0-7.980469-3.574219-7.980469-7.980469s3.574219-7.980469 7.980469-7.980469h79.800781c4.40625 0 7.980469 3.574219 7.980469 7.980469s-3.574219 7.980469-7.980469 7.980469zm0 0"/><path d="m343.140625 87.78125h-63.839844c-4.40625 0-7.980469-3.574219-7.980469-7.980469s3.574219-7.980469 7.980469-7.980469h63.839844c4.410156 0 7.980469 3.574219 7.980469 7.980469s-3.570313 7.980469-7.980469 7.980469zm0 0"/><path d="m287.28125 143.640625h-127.679688c-4.40625 0-7.980468-3.574219-7.980468-7.980469s3.574218-7.980468 7.980468-7.980468h127.679688c4.40625 0 7.980469 3.574218 7.980469 7.980468s-3.574219 7.980469-7.980469 7.980469zm0 0"/><path d="m343.140625 143.640625h-23.9375c-4.40625 0-7.980469-3.574219-7.980469-7.980469s3.574219-7.980468 7.980469-7.980468h23.9375c4.410156 0 7.980469 3.574218 7.980469 7.980468s-3.570313 7.980469-7.980469 7.980469zm0 0"/><path d="m175.5625 199.5h-119.703125c-4.40625 0-7.980469-3.570312-7.980469-7.980469 0-4.40625 3.574219-7.976562 7.980469-7.976562h119.703125c4.40625 0 7.980469 3.570312 7.980469 7.976562 0 4.410157-3.574219 7.980469-7.980469 7.980469zm0 0"/><path d="m343.140625 199.5h-135.660156c-4.40625 0-7.980469-3.570312-7.980469-7.980469 0-4.40625 3.574219-7.976562 7.980469-7.976562h135.660156c4.410156 0 7.980469 3.570312 7.980469 7.976562 0 4.410157-3.570313 7.980469-7.980469 7.980469zm0 0"/><path d="m95.761719 255.363281h-39.902344c-4.40625 0-7.980469-3.574219-7.980469-7.980469 0-4.410156 3.574219-7.980468 7.980469-7.980468h39.902344c4.40625 0 7.980469 3.570312 7.980469 7.980468 0 4.40625-3.574219 7.980469-7.980469 7.980469zm0 0"/><path d="m343.140625 255.363281h-215.460937c-4.40625 0-7.980469-3.574219-7.980469-7.980469 0-4.410156 3.574219-7.980468 7.980469-7.980468h215.460937c4.410156 0 7.980469 3.570312 7.980469 7.980468 0 4.40625-3.570313 7.980469-7.980469 7.980469zm0 0"/><path d="m159.601562 311.222656h-103.742187c-4.40625 0-7.980469-3.574218-7.980469-7.980468s3.574219-7.980469 7.980469-7.980469h103.742187c4.40625 0 7.980469 3.574219 7.980469 7.980469s-3.574219 7.980468-7.980469 7.980468zm0 0"/><path d="m295.261719 311.222656h-103.742188c-4.40625 0-7.976562-3.574218-7.976562-7.980468s3.570312-7.980469 7.976562-7.980469h103.742188c4.40625 0 7.980469 3.574219 7.980469 7.980469s-3.574219 7.980468-7.980469 7.980468zm0 0"/><path d="m103.742188 367.082031h-47.882813c-4.40625 0-7.980469-3.574219-7.980469-7.980469s3.574219-7.980468 7.980469-7.980468h47.882813c4.40625 0 7.980468 3.574218 7.980468 7.980468s-3.574218 7.980469-7.980468 7.980469zm0 0"/><path d="m199.5 367.082031h-63.839844c-4.40625 0-7.980468-3.574219-7.980468-7.980469s3.574218-7.980468 7.980468-7.980468h63.839844c4.410156 0 7.980469 3.574218 7.980469 7.980468s-3.570313 7.980469-7.980469 7.980469zm0 0"/></g><path d="m462.453125 367.445312c-.941406-2.890624-3.4375-4.996093-6.441406-5.429687l-74.6875-10.855469-33.398438-67.675781c-1.347656-2.722656-4.121093-4.449219-7.15625-4.449219-3.039062 0-5.8125 1.726563-7.15625 4.449219l-33.402343 67.675781-74.683594 10.855469c-3.007813.433594-5.503906 2.539063-6.441406 5.429687-.941407 2.890626-.15625 6.058594 2.015624 8.179688l54.042969 52.679688-12.757812 74.382812c-1.09375 6.386719 5.832031 11.433594 11.578125 8.414062l66.804687-35.121093 66.800781 35.121093c5.753907 3.023438 12.671876-2.035156 11.578126-8.414062l-12.757813-74.382812 54.042969-52.679688c2.175781-2.121094 2.957031-5.289062 2.019531-8.179688zm0 0" fill="#ffe06f"/><path d="m291.078125 494.972656 12.757813-74.382812-54.042969-52.679688c-2.175781-2.117187-2.960938-5.289062-2.019531-8.179687.113281-.347657.25-.683594.40625-1.007813l-22.652344 3.292969c-3.007813.433594-5.503906 2.539063-6.441406 5.429687-.941407 2.890626-.15625 6.058594 2.015624 8.179688l54.042969 52.679688-12.757812 74.382812c-1.09375 6.386719 5.832031 11.433594 11.578125 8.414062l18.773437-9.871093c-1.355469-1.660157-2.070312-3.863281-1.660156-6.257813zm0 0" fill="#ffcb0f"/></svg>