<?xml version="1.0" encoding="UTF-8" standalone="no"?>
<svg
   xmlns:dc="http://purl.org/dc/elements/1.1/"
   xmlns:cc="http://creativecommons.org/ns#"
   xmlns:rdf="http://www.w3.org/1999/02/22-rdf-syntax-ns#"
   xmlns:svg="http://www.w3.org/2000/svg"
   xmlns="http://www.w3.org/2000/svg"
   id="svg23"
   version="1.1"
   width="512"
   viewBox="0 0 50 58"
   height="512">
  <metadata
     id="metadata29">
    <rdf:RDF>
      <cc:Work
         rdf:about="">
        <dc:format>image/svg+xml</dc:format>
        <dc:type
           rdf:resource="http://purl.org/dc/dcmitype/StillImage" />
        <dc:title></dc:title>
      </cc:Work>
    </rdf:RDF>
  </metadata>
  <defs
     id="defs27" />
  <g
     transform="translate(-1)"
     fill="none"
     id="015---No-Social-Media">
    <g
       transform="matrix(-1,0,0,1,52,0)"
       id="g867">
      <path
         id="Shape"
         d="M 38,11.07 H 14 C 3.9799601,16.552494 -1.0502211,28.128882 1.7792155,39.19474 4.6086521,50.260599 14.578138,58.001712 26,58.001712 c 11.421862,0 21.391348,-7.741113 24.220784,-18.806972 C 53.050221,28.128882 48.02004,16.552494 38,11.07 Z M 8.66,44.82 C 2.2125834,35.319022 4.5912345,22.401254 14,15.82 L 38,16.37 9.43,44.89 C 9.3249369,44.99671 9.1775762,45.05071 9.0284407,45.037153 8.8793052,45.023595 8.7440981,44.943906 8.66,44.82 Z m 19.79,9 C 22.493528,54.524186 16.521319,52.637842 12.05,48.64 11.88432,48.465228 11.863473,48.198382 12,48 L 41,19 c 0.09598,-0.09835 0.227581,-0.153805 0.365,-0.153805 0.137419,0 0.269023,0.05546 0.365,0.153805 5.231576,5.852871 6.76189,14.134954 3.967259,21.470861 C 42.902628,47.806767 36.24974,52.971439 28.45,53.86 Z"
         style="opacity:0.95999995;fill:#d61e1e;fill-opacity:1" />
      <path
         style="fill:#35495e"
         id="path3"
         d="m 38,22 v 20 c 0,1.104569 -0.895431,2 -2,2 H 16 Z" />
      <path
         style="fill:#35495e"
         id="path5"
         d="M 14,40.546562 V 2.2265625 c 0,-1.1045695 0.895431,-2 2,-2 h 20 c 1.104569,0 2,0.8954305 2,2 V 16.546562 Z" />
      <circle
         style="fill:#955ba5"
         id="Oval"
         cx="20"
         cy="12"
         r="2" />
      <g
         style="fill:#f0c419"
         id="g14">
        <path
           id="path8"
           d="m 32,14 h -4 c -1.10457,0 -2,-0.89543 -2,-2 0,-1.104569 0.89543,-2 2,-2 h 4 c 1.104569,0 2,0.895431 2,2 0,1.10457 -0.895431,2 -2,2 z" />
        <path
           id="path10"
           d="m 20,23 h 5 c 1.104569,0 2,-0.895431 2,-2 0,-1.10457 -0.895431,-2 -2,-2 h -5 c -1.10457,0 -2,0.89543 -2,2 0,1.104569 0.89543,2 2,2 z" />
        <path
           id="path12"
           d="M 25.56,28.76 C 25.182705,28.282525 24.608544,28.002805 24,28 h -4 c -1.10457,0 -2,0.89543 -2,2 0,1.104569 0.89543,2 2,2 h 2.32 z" />
      </g>
      <path
         style="fill:#95a5a5"
         id="path16"
         d="m 38,38 v 4 c 0,1.104569 -0.895431,2 -2,2 H 16 l 6,-6 z" />
      <path
         style="fill:#7f8c8d"
         id="path18"
         d="m 27,42 v 2 h -2 v -2 c 0,-0.552285 0.447715,-1 1,-1 0.552285,0 1,0.447715 1,1 z" />
      <path
         style="fill:#95a5a5"
         id="path20"
         d="M 38,2 V 6 H 14 V 2 c 0,-1.1045695 0.895431,-2 2,-2 h 20 c 1.104569,0 2,0.8954305 2,2 z" />
      <circle
         style="fill:#955ba5;stroke-width:1"
         id="Oval-2"
         cx="33.451221"
         cy="30.716465"
         r="2" />
    </g>
  </g>
</svg>
