<?xml version="1.0" encoding="UTF-8" standalone="no"?>
<svg
   xmlns:dc="http://purl.org/dc/elements/1.1/"
   xmlns:cc="http://creativecommons.org/ns#"
   xmlns:rdf="http://www.w3.org/1999/02/22-rdf-syntax-ns#"
   xmlns:svg="http://www.w3.org/2000/svg"
   xmlns="http://www.w3.org/2000/svg"
   xmlns:sodipodi="http://sodipodi.sourceforge.net/DTD/sodipodi-0.dtd"
   xmlns:inkscape="http://www.inkscape.org/namespaces/inkscape"
   height="469pt"
   viewBox="0 0 469 469.33335"
   width="469pt"
   version="1.1"
   id="svg3304"
   sodipodi:docname="pizza.svg"
   inkscape:version="0.92.3 (2405546, 2018-03-11)">
  <metadata
     id="metadata3310">
    <rdf:RDF>
      <cc:Work
         rdf:about="">
        <dc:format>image/svg+xml</dc:format>
        <dc:type
           rdf:resource="http://purl.org/dc/dcmitype/StillImage" />
      </cc:Work>
    </rdf:RDF>
  </metadata>
  <defs
     id="defs3308" />
  <sodipodi:namedview
     pagecolor="#ffffff"
     bordercolor="#666666"
     borderopacity="1"
     objecttolerance="10"
     gridtolerance="10"
     guidetolerance="10"
     inkscape:pageopacity="0"
     inkscape:pageshadow="2"
     inkscape:window-width="1853"
     inkscape:window-height="1025"
     id="namedview3306"
     showgrid="false"
     inkscape:zoom="0.53372239"
     inkscape:cx="312.66667"
     inkscape:cy="312.66667"
     inkscape:window-x="67"
     inkscape:window-y="27"
     inkscape:window-maximized="1"
     inkscape:current-layer="svg3304" />
  <g
     id="g5001"
     transform="matrix(0.88678766,0,0,0.88678766,29.816825,6.6326246)">
    <g
       id="020---Cheese-Board"
       style="fill:none"
       transform="matrix(8.8883999,0,0,8.8883999,-25.197247,-100.06113)">
      <path
         d="M 58,52 29,47 0,52 v 4 c 0,1.104569 0.8954305,2 2,2 h 54 c 1.104569,0 2,-0.895431 2,-2 z"
         id="Shape"
         inkscape:connector-curvature="0"
         style="fill:#805333" />
      <path
         d="m 51.23,12 c 1.0089,2.4e-4 1.860809,0.749406 1.99,1.75 L 58,52 H 0 L 4.78,13.75 C 4.9091914,12.749406 5.7611004,12.00024 6.77,12 Z"
         id="path3"
         inkscape:connector-curvature="0"
         style="fill:#a56a43" />
      <path
         d="m 48.93,12 c 0.952809,0.0456 1.720075,0.798245 1.784,1.75 L 55,52 H 3 L 7.286,13.75 C 7.3499249,12.798245 8.1171913,12.045601 9.07,12 Z"
         id="path5"
         inkscape:connector-curvature="0"
         style="fill:#cb8252" />
    </g>
    <g
       id="g4815"
       transform="matrix(0.68586682,0,0,0.68586682,64.337079,14.351301)">
      <path
         d="M 255.48828,256 H 5.734375 C 1.742188,260.46094 -0.332031,266.39062 0.0429688,272.36328 5.09375,352.33203 47.4375,424.91406 113.60547,469.05859 c 4.78906,3.19532 10.89062,4.53516 16.98437,3.25782 0,0.004 0,0.008 0.004,0.0117 z m 0,0"
         id="path4141"
         inkscape:connector-curvature="0"
         style="fill:#ffa000" />
      <path
         d="m 130.58984,39.671875 c 0,0.0039 0,0.0039 -0.004,0.0078 -5.85146,-1.22655 -12.01162,-0.05468 -16.98037,3.261731 C 47.496094,87.050781 5.097656,159.60156 0.0429688,239.63672 -0.332031,245.60937 1.742188,251.53906 5.734375,256 H 255.48828 Z m 0,0"
         id="path4143"
         inkscape:connector-curvature="0"
         style="fill:#ffa000" />
      <path
         d="M 380.38672,39.671875 C 378.53125,33.996094 374.46094,29.242188 369.125,26.59375 c -71.41406,-35.445312 -155.79688,-35.472656 -227.26953,0 -5.33985,2.648438 -9.40625,7.402344 -11.26172,13.078125 L 255.48828,256 Z m 0,0"
         id="path4145"
         inkscape:connector-curvature="0"
         style="fill:#ffa000" />
      <path
         d="m 130.59375,472.32812 c 1.85547,5.67579 5.92187,10.42969 11.26172,13.07813 71.41015,35.44141 155.79687,35.47266 227.26953,0 11.57422,-5.74219 15.83203,-20.15625 9.375,-31.34766 L 268.47656,263.5 255.48828,256 Z m 0,0"
         id="path4147"
         inkscape:connector-curvature="0"
         style="fill:#ffa000" />
      <path
         d="M 510.93359,239.63672 C 505.88672,159.66406 463.53906,87.085938 397.375,42.941406 392.40625,39.625 386.24609,38.453125 380.39062,39.679688 c 0,-0.0039 -0.004,-0.0078 -0.004,-0.0078 L 255.48828,256 l 12.98828,7.5 h 219.9961 c 12.95703,0 23.27734,-10.95313 22.46093,-23.86328 z m 0,0"
         id="path4149"
         inkscape:connector-curvature="0"
         style="fill:#ffa000" />
      <path
         d="M 203.94922,256 90.828125,451.93359 c 7.273437,6.12891 14.878905,11.85547 22.777345,17.125 4.78906,3.19532 10.89062,4.53516 16.98047,3.25782 0.004,0.004 0.004,0.008 0.004,0.0117 L 255.48828,256 Z m 0,0"
         id="path4151"
         inkscape:connector-curvature="0"
         style="fill:#f57c00" />
      <path
         d="m 130.58984,39.671875 c 0,0.0039 0,0.0039 -0.004,0.0078 -5.85156,-1.226563 -12.01172,-0.05469 -16.98047,3.261718 -2.30859,1.539063 -4.58203,3.125 -6.83594,4.742188 L 215.49609,236.00391 H 0.328125 c -0.09375,1.21093 -0.207031,2.42187 -0.2851562,3.63281 C -0.332031,245.60937 1.742188,251.53906 5.734375,256 H 255.48828 Z m 0,0"
         id="path4153"
         inkscape:connector-curvature="0"
         style="fill:#f57c00" />
      <path
         d="m 369.125,26.59375 c -10.44922,-5.183594 -21.13672,-9.597656 -32.02734,-13.269531 1.41406,1.917969 2.54687,4.050781 3.29687,6.347656 L 229.71875,211.36719 255.48828,256 380.38672,39.671875 C 378.53125,33.996094 374.46094,29.242188 369.125,26.59375 Z m 0,0"
         id="path4155"
         inkscape:connector-curvature="0"
         style="fill:#f57c00" />
      <path
         d="M 378.5,454.0625 268.47656,263.5 255.48828,256 l -9.89453,17.13672 92.91406,160.92578 c 6.45703,11.1875 2.19531,25.60156 -9.375,31.34766 -63.13672,31.33593 -134.07031,33.90625 -195.24219,13.26953 2.07813,2.8164 4.78907,5.15234 7.96485,6.72656 35.5,17.62109 73.73437,26.55469 113.63672,26.55469 39.90234,0 78.13281,-8.9336 113.63281,-26.55469 11.57422,-5.74219 15.83203,-20.15625 9.375,-31.34375 z m 0,0"
         id="path4157"
         inkscape:connector-curvature="0"
         style="fill:#f57c00" />
      <path
         d="M 510.93359,239.63672 C 505.88672,159.66406 463.53906,87.085938 397.375,42.941406 392.40625,39.625 386.24609,38.453125 380.39062,39.679688 c 0,-0.0039 -0.004,-0.0078 -0.004,-0.0078 l -0.23047,0.398437 C 434.29297,85.6875 466.57422,150.47656 470.94141,219.64062 471.75391,232.54687 461.4375,243.5 448.47656,243.5 H 262.70703 l -7.21875,12.5 12.98828,7.5 h 219.9961 c 12.95703,0 23.27734,-10.95313 22.46093,-23.86328 z m 0,0"
         id="path4159"
         inkscape:connector-curvature="0"
         style="fill:#f57c00" />
      <path
         d="m 48.234375,256 c 0,12.39453 -2.890625,24.88672 -0.820313,36.69141 2.125,12.13671 9.144532,22.89062 13.265626,34.21093 4.195312,11.52735 5.765624,24.26172 11.828124,34.73828 6.121094,10.57813 16.398438,18.28125 24.210938,27.58204 7.83594,9.32421 13.65234,20.77734 22.97656,28.60937 9.30078,7.8125 21.57422,11.56641 32.14844,17.68359 L 255.48828,256 Z m 0,0"
         id="path4161"
         inkscape:connector-curvature="0"
         style="fill:#ffe082" />
      <path
         d="m 203.94922,256 -90.08594,156.03906 c 1.8086,2.07031 3.73047,4.02735 5.83203,5.79297 9.30078,7.8125 21.57422,11.56641 32.14844,17.68359 L 255.48828,256 Z m 0,0"
         id="path4163"
         inkscape:connector-curvature="0"
         style="fill:#ffca28" />
      <path
         d="m 151.84375,435.51562 c 10.44141,6.03125 19.83594,14.85157 31.375,19.05079 11.32422,4.12109 24.12891,3.44531 36.26953,5.57031 11.80469,2.07031 23.60547,7.11719 36,7.11719 12.39844,0 24.19922,-5.04688 36.00391,-7.11719 12.13672,-2.125 24.94531,-1.44922 36.26953,-5.57031 5.6914,-2.07422 10.85937,-5.26563 15.89062,-8.69922 8.67188,-5.91016 11.36328,-17.46875 6.11719,-26.5586 C 324.27734,375.15234 255.48828,256 255.48828,256 Z m 0,0"
         id="path4165"
         inkscape:connector-curvature="0"
         style="fill:#ffe082" />
      <path
         d="m 255.48828,256 -14.22266,24.63672 77.875,134.88281 c -13.14453,8.08984 -20.65625,15.14844 -31.37109,19.05078 -11.32422,4.1211 -24.13281,3.44531 -36.27344,5.57031 -11.80468,2.06641 -23.60546,7.11719 -36,7.11719 -12.39453,0 -24.19531,-5.05078 -36,-7.11719 -8.1289,-1.42187 -16.55859,-1.59375 -24.63671,-2.78906 9.29687,5.89063 17.94921,13.42578 28.35937,17.21485 11.32422,4.12109 24.13281,3.44531 36.27344,5.57421 11.80078,2.06641 23.60156,7.11329 36,7.11329 12.39453,0 24.19531,-5.04688 36,-7.11329 12.13672,-2.1289 24.94531,-1.45312 36.26953,-5.57421 5.69141,-2.07032 10.85937,-5.26563 15.89062,-8.69532 8.67188,-5.91406 11.36719,-17.47265 6.1211,-26.55859 C 324.27734,375.15234 255.48828,256 255.48828,256 Z m 0,0"
         id="path4167"
         inkscape:connector-curvature="0"
         style="fill:#ffca28" />
      <path
         d="M 151.84375,76.484375 C 141.26953,82.601562 128.99609,86.355469 119.69531,94.167969 110.36719,102 104.55078,113.45313 96.71875,122.78125 88.90625,132.08203 78.625,139.78516 72.507812,150.35937 66.445312,160.83594 64.875,173.57422 60.679688,185.09766 56.558594,196.42187 49.539062,207.17187 47.414062,219.30859 45.34375,231.11328 48.234375,243.60547 48.234375,256 H 255.48828 Z m 0,0"
         id="path4169"
         inkscape:connector-curvature="0"
         style="fill:#ffe082" />
      <path
         d="m 151.84375,76.484375 c -7.06641,4.085937 -14.89063,7.125 -22.08203,11.019531 l 68.41797,118.503904 c 7.69531,13.33203 -1.92578,29.9961 -17.32032,29.9961 H 46.949219 c 0.453125,6.60937 1.285156,13.3164 1.285156,19.99609 H 255.48828 Z m 0,0"
         id="path4171"
         inkscape:connector-curvature="0"
         style="fill:#ffca28" />
      <path
         d="M 327.76172,57.433594 C 316.4375,53.3125 303.62891,53.988281 291.49219,51.863281 279.6875,49.792969 267.88672,44.746094 255.48828,44.746094 c -12.39453,0 -24.19531,5.046875 -36,7.117187 -12.13672,2.125 -24.94531,1.449219 -36.26953,5.570313 -11.52344,4.195312 -20.89062,12.984375 -31.36719,19.046875 -0.004,0 -0.004,0.0039 -0.004,0.0039 L 255.48828,256 359.13281,76.484375 l -0.004,-0.0039 C 348.65224,70.417975 339.28506,61.628912 327.76162,57.4336 Z m 0,0"
         id="path4173"
         inkscape:connector-curvature="0"
         style="fill:#ffe082" />
      <path
         d="m 359.12891,76.480469 c -10.47657,-6.0625 -19.84375,-14.851563 -31.36719,-19.046875 -2.57422,-0.9375 -5.23047,-1.613282 -7.9336,-2.140625 L 229.71875,211.36719 255.48828,256 359.13281,76.484375 Z m 0,0"
         id="path4175"
         inkscape:connector-curvature="0"
         style="fill:#ffca28" />
      <path
         d="m 447.60156,256 c 8.34375,0 15.30078,-6.38672 16.01172,-14.70703 0.64063,-7.46094 1.20313,-14.84766 -0.0469,-21.98438 -2.125,-12.13672 -9.14844,-22.89062 -13.26954,-34.21093 -4.19531,-11.52735 -5.76171,-24.26172 -11.82421,-34.74219 -6.1211,-10.57422 -16.39844,-18.27735 -24.21094,-27.57813 C 406.42578,113.44922 400.60937,102 391.28125,94.167969 381.98437,86.355469 369.71094,82.601562 359.13281,76.484375 L 255.48828,256 h 100.98438 v 50.05469 c -0.004,10.23437 8.29296,18.52734 18.52734,18.52734 11.83594,0 19.66797,-9.09375 19.66797,-19.09766 v -6.8789 c 0,-6.57031 5.32812,-11.89453 11.89844,-11.89453 6.57031,0 11.89843,5.32422 11.89843,11.89453 v 53.44922 c 0,8.04687 6.52344,14.57031 14.56641,14.57031 8.04687,0 14.57031,-6.52344 14.57031,-14.57031 z m 0,0"
         id="path4177"
         inkscape:connector-curvature="0"
         style="fill:#ffe082" />
      <path
         d="m 463.56641,219.30859 c -2.125,-12.13672 -9.14844,-22.89062 -13.26954,-34.21093 -4.19531,-11.52735 -5.76171,-24.26172 -11.82421,-34.74219 -6.1211,-10.57422 -16.39844,-18.27735 -24.21094,-27.57813 C 406.42578,113.44922 400.60937,102 391.28125,94.167969 381.98437,86.355469 369.71094,82.601562 359.13281,76.484375 l -2.00781,3.480469 c 6.21484,7.105468 11.07422,15.59375 17.14062,22.816406 7.8125,9.30078 18.09375,17.00391 24.21094,27.57812 6.0625,10.47657 7.63281,23.21485 11.82813,34.73829 4.12109,11.32421 11.14453,22.07421 13.26953,34.21484 0.0195,0.11719 0.0391,0.23437 0.0586,0.35547 3.17969,19.0664 -11.83594,36.33594 -31.16406,36.33594 H 267.03516 L 255.48828,256 h 152.12109 v 30.76172 c 6.08204,0.52734 10.85547,5.625 10.85547,11.84375 v 53.45312 c 0,8.04688 6.52344,14.56641 14.56641,14.56641 8.04687,0 14.57031,-6.52344 14.57031,-14.56641 V 256 c 8.33985,0 15.30078,-6.38672 16.01172,-14.70703 0.64063,-7.46094 1.20313,-14.84766 -0.0469,-21.98438 z m 0,0"
         id="path4179"
         inkscape:connector-curvature="0"
         style="fill:#ffca28" />
      <path
         d="m 262.90625,400.10547 c 0,16.41797 -13.30859,29.72265 -29.72266,29.72265 -16.41797,0 -29.72656,-13.30468 -29.72656,-29.72265 0,-16.41797 13.30859,-29.72266 29.72656,-29.72266 16.41407,0 29.72266,13.30469 29.72266,29.72266 z m 0,0"
         id="path4181"
         inkscape:connector-curvature="0"
         style="fill:#ef5350" />
      <path
         d="m 170.23047,352.96875 c 0,16.41797 -13.30469,29.72656 -29.72266,29.72656 -16.41797,0 -29.72265,-13.30859 -29.72265,-29.72656 0,-16.41406 13.30468,-29.72266 29.72265,-29.72266 16.41797,0 29.72266,13.3086 29.72266,29.72266 z m 0,0"
         id="path4183"
         inkscape:connector-curvature="0"
         style="fill:#ef5350" />
      <path
         d="m 194.69141,199.86328 c 0,16.41797 -13.3086,29.72656 -29.72657,29.72656 -16.41406,0 -29.72265,-13.30859 -29.72265,-29.72656 0,-16.41406 13.30859,-29.72266 29.72265,-29.72266 16.41797,0 29.72657,13.3086 29.72657,29.72266 z m 0,0"
         id="path4185"
         inkscape:connector-curvature="0"
         style="fill:#ef5350" />
      <path
         d="m 257.10156,99.140625 c 0,16.417965 -13.30859,29.726565 -29.72656,29.726565 -16.41797,0 -29.72266,-13.3086 -29.72266,-29.726565 0,-16.414063 13.30469,-29.722656 29.72266,-29.722656 16.41797,0 29.72656,13.308593 29.72656,29.722656 z m 0,0"
         id="path4187"
         inkscape:connector-curvature="0"
         style="fill:#ef5350" />
      <g
         id="g4209"
         style="fill:#ff6f00">
        <path
           d="m 387.67187,135.93359 c 0,8.20703 -6.65625,14.86328 -14.86328,14.86328 -8.20703,0 -14.86328,-6.65625 -14.86328,-14.86328 0,-8.21093 6.65625,-14.86328 14.86328,-14.86328 8.20703,0 14.86328,6.65235 14.86328,14.86328 z m 0,0"
           id="path4189"
           inkscape:connector-curvature="0" />
        <path
           d="m 339.83984,213.12109 c 0,8.20703 -6.65234,14.86328 -14.86328,14.86328 -8.20703,0 -14.85937,-6.65625 -14.85937,-14.86328 0,-8.20703 6.65234,-14.86328 14.85937,-14.86328 8.21094,0 14.86328,6.65625 14.86328,14.86328 z m 0,0"
           id="path4191"
           inkscape:connector-curvature="0" />
        <path
           d="m 322.40234,91.34375 c 0,8.210938 -6.65234,14.86328 -14.86328,14.86328 -8.20703,0 -14.85937,-6.652342 -14.85937,-14.86328 0,-8.207031 6.65234,-14.859375 14.85937,-14.859375 8.21094,0 14.86328,6.652344 14.86328,14.859375 z m 0,0"
           id="path4193"
           inkscape:connector-curvature="0" />
        <path
           d="m 270.35156,173.57812 c 0,8.20704 -6.65234,14.85938 -14.86328,14.85938 -8.20703,0 -14.85937,-6.65234 -14.85937,-14.85938 0,-8.21093 6.65234,-14.86328 14.85937,-14.86328 8.21094,0 14.86328,6.65235 14.86328,14.86328 z m 0,0"
           id="path4195"
           inkscape:connector-curvature="0" />
        <path
           d="m 103.80859,219.12109 c 0,8.20703 -6.65234,14.85938 -14.863278,14.85938 -8.207031,0 -14.859374,-6.65235 -14.859374,-14.85938 0,-8.21093 6.652343,-14.86328 14.859374,-14.86328 8.210938,0 14.863278,6.65235 14.863278,14.86328 z m 0,0"
           id="path4197"
           inkscape:connector-curvature="0" />
        <path
           d="m 189.16797,289.62109 c 0,8.21094 -6.65625,14.86328 -14.86328,14.86328 -8.21094,0 -14.86328,-6.65234 -14.86328,-14.86328 0,-8.20703 6.65234,-14.85937 14.86328,-14.85937 8.20703,0 14.86328,6.65234 14.86328,14.85937 z m 0,0"
           id="path4199"
           inkscape:connector-curvature="0" />
        <path
           d="m 154.76172,124.69531 c -2.30078,-7.8789 -10.55469,-12.39843 -18.4336,-10.09375 -7.8789,2.30078 -12.39843,10.55469 -10.09765,18.4336 2.30469,7.8789 10.55859,12.39843 18.4375,10.09375 7.8789,-2.30079 12.39844,-10.55469 10.09375,-18.4336 z m 0,0"
           id="path4201"
           inkscape:connector-curvature="0" />
        <path
           d="m 109.16016,300.58594 c 0,8.21093 -6.65235,14.86328 -14.859379,14.86328 -8.210937,0 -14.863281,-6.65235 -14.863281,-14.86328 0,-8.20703 6.652344,-14.86328 14.863281,-14.86328 8.207029,0 14.859379,6.65625 14.859379,14.86328 z m 0,0"
           id="path4203"
           inkscape:connector-curvature="0" />
        <path
           d="m 318.48828,414.96875 c 0,8.20703 -6.65625,14.86328 -14.86328,14.86328 -8.20703,0 -14.86328,-6.65625 -14.86328,-14.86328 0,-8.21094 6.65625,-14.86328 14.86328,-14.86328 8.20703,0 14.86328,6.65234 14.86328,14.86328 z m 0,0"
           id="path4205"
           inkscape:connector-curvature="0" />
        <path
           d="m 270.35156,330.3125 c 0,8.20703 -6.65234,14.86328 -14.86328,14.86328 -8.20703,0 -14.85937,-6.65625 -14.85937,-14.86328 0,-8.21094 6.65234,-14.86328 14.85937,-14.86328 8.21094,0 14.86328,6.65234 14.86328,14.86328 z m 0,0"
           id="path4207"
           inkscape:connector-curvature="0" />
      </g>
      <path
         d="m 427.79297,201.86328 c 0,16.41797 -13.3086,29.72656 -29.72266,29.72656 -16.41797,0 -29.72656,-13.30859 -29.72656,-29.72656 0,-16.41406 13.30859,-29.72266 29.72656,-29.72266 16.41406,0 29.72266,13.3086 29.72266,29.72266 z m 0,0"
         id="path4211"
         inkscape:connector-curvature="0"
         style="fill:#ef5350" />
      <path
         d="m 239.37109,371.03125 c 2.25782,4.1875 3.53907,8.98047 3.53907,14.07812 0,18.85938 -17.3711,33 -35.91016,29.07422 5.01953,9.3125 14.85937,15.64453 26.18359,15.64453 16.41797,0 29.72266,-13.30468 29.72266,-29.72265 0,-14.29297 -10.08984,-26.22656 -23.53516,-29.07422 z m 0,0"
         id="path4213"
         inkscape:connector-curvature="0"
         style="fill:#d32f2f" />
      <path
         d="m 146.69531,323.89453 c 2.25781,4.19141 3.53906,8.98438 3.53906,14.07813 0,16.41406 -13.30859,29.72265 -29.72265,29.72265 -2.12109,0 -4.19141,-0.22656 -6.1875,-0.64844 5.01953,9.31641 14.85937,15.64844 26.18359,15.64844 16.41797,0 29.72266,-13.30859 29.72266,-29.72656 0,-14.29297 -10.08985,-26.22656 -23.53516,-29.07422 z m 0,0"
         id="path4215"
         inkscape:connector-curvature="0"
         style="fill:#d32f2f" />
      <path
         d="m 171.15234,170.78906 c 2.25782,4.19141 3.54297,8.98438 3.54297,14.07813 0,16.41797 -13.30859,29.72265 -29.72656,29.72265 -2.12109,0 -4.19141,-0.22656 -6.1875,-0.64843 5.01953,9.3164 14.86328,15.64843 26.18359,15.64843 16.41797,0 29.72657,-13.30859 29.72657,-29.72656 0,-14.29297 -10.09375,-26.22656 -23.53907,-29.07422 z m 0,0"
         id="path4217"
         inkscape:connector-curvature="0"
         style="fill:#d32f2f" />
      <path
         d="m 233.5625,70.066406 c 2.25781,4.191406 3.54297,8.984375 3.54297,14.078125 0,16.414059 -13.3086,29.722659 -29.72656,29.722659 -2.1211,0 -4.19141,-0.22656 -6.1875,-0.64844 5.01953,9.31641 14.86328,15.64844 26.18359,15.64844 16.41797,0 29.72656,-13.3086 29.72656,-29.726565 0,-14.292969 -10.09375,-26.226563 -23.53906,-29.074219 z m 0,0"
         id="path4219"
         inkscape:connector-curvature="0"
         style="fill:#d32f2f" />
      <path
         d="m 404.25391,172.78906 c 2.25781,4.19141 3.54296,8.98438 3.54296,14.07813 0,16.41406 -13.30859,29.72265 -29.72656,29.72265 -2.12109,0 -4.1875,-0.22656 -6.1875,-0.64843 5.01953,9.3164 14.86328,15.64843 26.1875,15.64843 16.41406,0 29.72266,-13.30859 29.72266,-29.72656 0,-14.29297 -10.08985,-26.22656 -23.53906,-29.07422 z m 0,0"
         id="path4221"
         inkscape:connector-curvature="0"
         style="fill:#d32f2f" />
    </g>
  </g>
  <g
     transform="matrix(4.2307593,0,0,4.2307593,255.72237,245.17548)"
     id="g1533">
    <path
       inkscape:connector-curvature="0"
       style="fill:#e6e6e6"
       d="m 44.5,20.232 h -6 v 4 h 4 c 1.1,0 2,0.9 2,2 v 10 c 0,1.1 -0.9,2 -2,2 h -4 v 4 h 6 c 2.2,0 4,-1.8 4,-4 v -14 c 0,-2.2 -1.8,-4 -4,-4 z"
       id="path1517" />
    <path
       inkscape:connector-curvature="0"
       style="fill:#e6e6e6"
       d="M 32.5,4 C 31.117,4 29.847,4.472 28.833,5.258 27.837,3.325 25.825,2 23.5,2 22.651,2 21.845,2.178 21.113,2.496 19.924,0.979 18.078,0 16,0 12.875,0 10.268,2.205 9.644,5.144 9.275,5.057 8.895,5 8.5,5 c -2.761,0 -5,2.239 -5,5 v 8 c 0,1.1 0.9,2 2,2 h 1 c 1.1,0 2,-0.9 2,-2 V 16.404 C 9.106,16.775 9.809,17 10.568,17 h 1.967 c 1.275,0 2.402,-0.615 3.136,-1.551 1.089,1.539 2.879,2.551 4.897,2.551 3.3,0 6,-2.7 6,-6 h 11.583 c 0.222,-0.626 0.349,-1.298 0.349,-2 0,-3.314 -2.686,-6 -6,-6 z"
       id="path1519" />
    <path
       inkscape:connector-curvature="0"
       style="fill:#f4d83f;fill-opacity:1"
       d="m 26.568,12 c 0,3.3 -2.7,6 -6,6 C 18.55,18 16.76,16.988 15.671,15.449 14.937,16.385 13.81,17 12.535,17 H 10.568 C 9.81,17 9.106,16.775 8.5,16.404 V 47 c 0,2.75 2.25,5 5,5 h 20 c 2.75,0 5,-2.25 5,-5 V 12 Z"
       id="path1521" />
    <path
       inkscape:connector-curvature="0"
       style="fill:#f9ee49;fill-opacity:1"
       d="m 14.5,25 c 0,-1.65 -1.35,-3 -3,-3 -1.65,0 -3,1.35 -3,3 v 21 h 6 z"
       id="path1523" />
    <path
       inkscape:connector-curvature="0"
       style="fill:#eec34b;fill-opacity:1"
       d="m 20.5,25 c 0,-1.65 -1.35,-3 -3,-3 -1.65,0 -3,1.35 -3,3 v 21 h 6 z"
       id="path1525" />
    <path
       inkscape:connector-curvature="0"
       style="fill:#f9ee49;fill-opacity:1"
       d="m 26.5,25 c 0,-1.65 -1.35,-3 -3,-3 -1.65,0 -3,1.35 -3,3 v 21 h 6 z"
       id="path1527" />
    <path
       inkscape:connector-curvature="0"
       style="fill:#eec34b;fill-opacity:1"
       d="m 32.5,25 c 0,-1.65 -1.35,-3 -3,-3 -1.65,0 -3,1.35 -3,3 v 21 h 6 z"
       id="path1529" />
    <path
       inkscape:connector-curvature="0"
       style="fill:#f9ee49;fill-opacity:1"
       d="m 38.5,25 c 0,-1.65 -1.35,-3 -3,-3 -1.65,0 -3,1.35 -3,3 v 21 h 6 z"
       id="path1531" />
  </g>
</svg>
