<svg height="512pt" viewBox="0 -1 512.0005 512" width="512pt" xmlns="http://www.w3.org/2000/svg"><path d="m350.144531 509.175781c-8.308593 0-15.046875-6.738281-15.046875-15.046875 0-60.296875 22.910156-124.3125 59.789063-167.066406 5.425781-6.289062 14.925781-6.992188 21.21875-1.5625 6.289062 5.425781 6.992187 14.925781 1.566406 21.21875-32.371094 37.527344-52.480469 94.011719-52.480469 147.410156 0 8.308594-6.738281 15.046875-15.046875 15.046875zm0 0" fill="#f2d813"/><path d="m306.632812 415.082031c-1.636718 0-3.300781-.269531-4.929687-.835937-7.851563-2.722656-12.011719-11.292969-9.285156-19.144532 14.523437-41.878906 9.710937-87.742187-13.558594-129.144531-23.609375-42-63.300781-74.390625-111.765625-91.199219-7.851562-2.722656-12.007812-11.292968-9.285156-19.144531 2.722656-7.851562 11.296875-12.007812 19.144531-9.285156 55.417969 19.222656 100.921875 56.472656 128.136719 104.886719 27.546875 49.015625 33.144531 103.617187 15.753906 153.75-2.15625 6.214844-7.980469 10.117187-14.210938 10.117187zm0 0" fill="#ff9f00"/><path d="m126.570312 509.730469c-3.164062 0-6.339843-.117188-9.527343-.351563-33.765625-2.492187-64.542969-17.984375-86.65625-43.625-39.269531-45.53125-34.175781-114.519531 11.351562-153.789062 19.035157-16.421875 43.324219-24.445313 68.40625-22.59375 25.074219 1.851562 47.925781 13.355468 64.347657 32.394531 14.234374 16.503906 21.1875 37.558594 19.582031 59.292969-1.601563 21.730468-11.574219 41.539062-28.074219 55.769531-14.367188 12.394531-32.695312 18.453125-51.621094 17.050781-18.921875-1.398437-36.164062-10.078125-48.554687-24.445312-22.382813-25.949219-19.480469-65.269532 6.46875-87.648438 7.425781-6.40625 16.429687-10.699218 26.039062-12.417968 8.179688-1.460938 15.996094 3.980468 17.460938 12.160156 1.464843 8.179687-3.980469 15.996094-12.160157 17.460937-4.304687.769531-8.34375 2.699219-11.6875 5.582031-6.484374 5.59375-10.402343 13.375-11.03125 21.914063-.628906 8.539063 2.101563 16.8125 7.695313 23.296875 7.140625 8.28125 17.078125 13.285156 27.984375 14.089844 10.910156.804687 21.472656-2.683594 29.753906-9.828125 10.414063-8.980469 16.707032-21.484375 17.71875-35.199219 1.011719-13.71875-3.375-27.007812-12.359375-37.421875-23.0625-26.738281-63.578125-29.734375-90.316406-6.667969-32.964844 28.429688-36.652344 78.382813-8.222656 111.347656 19.089843 22.132813 46.109375 33.488282 73.273437 33.488282 22.371094.003906 44.839844-7.699219 63.070313-23.421875 23.8125-20.539063 38.207031-49.125 40.519531-80.488281 2.316406-31.363282-7.722656-61.75-28.261719-85.5625-5.425781-6.292969-4.726562-15.792969 1.566407-21.222657 6.292968-5.425781 15.792968-4.722656 21.21875 1.570313 25.789062 29.898437 38.390624 68.050781 35.484374 107.429687-2.90625 39.378907-20.972656 75.269531-50.875 101.058594-23.214843 20.023437-52.242187 30.777344-82.59375 30.777344zm0 0" fill="#f30051"/><path d="m136.410156 42.769531-31.722656-9.296875-18.710938-26.996094c-2.808593-4.058593-7.429687-6.476562-12.363281-6.476562-4.933593 0-9.554687 2.417969-12.367187 6.476562l-18.710938 26.996094-31.722656 9.296875c-4.773438 1.398438-8.546875 5.066407-10.082031 9.800781-1.53125 4.734376-.625 9.917969 2.421875 13.851563l20.097656 25.929687-.875 32.664063c-.132812 4.949219 2.179688 9.648437 6.179688 12.5625 2.609374 1.902344 5.71875 2.886719 8.863281 2.886719 1.675781 0 3.359375-.28125 4.984375-.851563l31.210937-10.960937 31.207031 10.960937c4.671876 1.644531 9.847657.878907 13.851563-2.035156 4-2.917969 6.308594-7.613281 6.175781-12.5625l-.875-32.664063 20.097656-25.929687c3.046876-3.933594 3.953126-9.121094 2.421876-13.851563-1.53125-4.734374-5.308594-8.402343-10.082032-9.800781zm0 0" fill="#00ddc1"/><path d="m509.984375 241.007812-19.371094-33.550781c-2.6875-4.65625-7.652343-7.523437-13.027343-7.523437h-38.746094c-5.375 0-10.339844 2.867187-13.027344 7.523437l-19.371094 33.550781c-2.6875 4.65625-2.6875 10.390626 0 15.046876l19.371094 33.550781c2.6875 4.65625 7.652344 7.523437 13.027344 7.523437h38.746094c5.375 0 10.339843-2.867187 13.027343-7.523437l19.371094-33.550781c2.6875-4.65625 2.6875-10.390626 0-15.046876zm0 0" fill="#00ab94"/><path d="m332.390625 203.480469c-5.925781 0-11.546875-3.527344-13.929687-9.351563-11.488282-28.0625-13.703126-53.476562-6.585938-75.539062 8.191406-25.390625 28.242188-45.128906 59.597656-58.65625 7.632813-3.292969 16.484375.222656 19.777344 7.851562 3.289062 7.628906-.226562 16.484375-7.855469 19.773438-23.042969 9.945312-37.46875 23.492187-42.882812 40.269531-4.878907 15.121094-2.929688 33.589844 5.796875 54.902344 3.148437 7.6875-.535156 16.476562-8.222656 19.621093-1.867188.765626-3.796876 1.128907-5.695313 1.128907zm0 0" fill="#4a7aff"/><path d="m134.933594 227.902344c0 8.308594-6.738282 15.046875-15.046875 15.046875-8.308594 0-15.042969-6.738281-15.042969-15.046875s6.734375-15.046875 15.042969-15.046875c8.308593 0 15.046875 6.738281 15.046875 15.046875zm0 0" fill="#80dbff"/><path d="m473.257812 433.746094c0 8.308594-6.734374 15.046875-15.042968 15.046875-8.3125 0-15.046875-6.738281-15.046875-15.046875s6.734375-15.042969 15.046875-15.042969c8.308594 0 15.042968 6.734375 15.042968 15.042969zm0 0" fill="#4ab8f7"/><path d="m34.003906 196.371094c0 8.308594-6.734375 15.042968-15.046875 15.042968-8.308593 0-15.042969-6.734374-15.042969-15.042968s6.734376-15.046875 15.042969-15.046875c8.3125 0 15.046875 6.738281 15.046875 15.046875zm0 0" fill="#80dbff"/><path d="m387.65625 267.375c0 8.3125-6.738281 15.046875-15.046875 15.046875s-15.042969-6.734375-15.042969-15.046875c0-8.308594 6.734375-15.042969 15.042969-15.042969s15.046875 6.734375 15.046875 15.042969zm0 0" fill="#4ab8f7"/><path d="m352.945312 31.457031c0 8.308594-6.734374 15.046875-15.046874 15.046875-8.308594 0-15.042969-6.738281-15.042969-15.046875 0-8.308593 6.734375-15.042969 15.042969-15.042969 8.3125 0 15.046874 6.734376 15.046874 15.042969zm0 0" fill="#80dbff"/><path d="m505.320312 61.871094-34.601562-51.757813c-2.789062-4.175781-7.480469-6.683593-12.503906-6.683593-5.023438 0-9.71875 2.507812-12.507813 6.683593l-34.601562 51.757813c-3.386719 5.0625-3.386719 11.664062 0 16.722656l34.601562 51.757812c2.789063 4.175782 7.480469 6.683594 12.507813 6.683594 5.023437 0 9.714844-2.507812 12.503906-6.683594l34.601562-51.757812c3.382813-5.058594 3.382813-11.660156 0-16.722656zm0 0" fill="#bdf052"/><path d="m231.417969 16.414062c-24.886719 0-45.136719 20.246094-45.136719 45.132813 0 24.890625 20.25 45.136719 45.136719 45.136719s45.136719-20.246094 45.136719-45.136719c0-24.886719-20.25-45.132813-45.136719-45.132813zm0 0" fill="#bdf052"/><path d="m276.476562 175.59375c-5.816406 0-11.351562-3.390625-13.8125-9.0625l-14.957031-34.480469c-3.308593-7.625.191407-16.484375 7.8125-19.789062 7.625-3.308594 16.484375.191406 19.789063 7.8125l14.960937 34.480469c3.304688 7.625-.191406 16.484374-7.816406 19.789062-1.949219.847656-3.980469 1.25-5.976563 1.25zm0 0" fill="#fff04a"/><path d="m391.429688 188.183594c-2.285157 0-4.605469-.519532-6.785157-1.625-7.414062-3.753906-10.378906-12.804688-6.625-20.21875l16.980469-33.53125c3.75-7.414063 12.804688-10.382813 20.21875-6.628906 7.414062 3.753906 10.378906 12.808593 6.625 20.21875l-16.980469 33.535156c-2.648437 5.234375-7.941406 8.25-13.433593 8.25zm0 0" fill="#0053bf"/><path d="m278.859375 265.957031c23.269531 41.398438 28.082031 87.265625 13.558594 129.144531-2.722657 7.851563 1.433593 16.425782 9.285156 19.144532 1.632813.566406 3.292969.835937 4.929687.835937 6.230469 0 12.058594-3.902343 14.214844-10.117187 17.386719-50.132813 11.792969-104.734375-15.757812-153.75-5.414063-9.632813-11.5625-18.816406-18.359375-27.511719l-21.460938 21.460937c4.976563 6.628907 9.527344 13.566407 13.589844 20.792969zm0 0" fill="#f77e00"/><path d="m230.03125 375.679688c-2.3125 31.363281-16.703125 59.945312-40.519531 80.484374-18.230469 15.726563-40.699219 23.425782-63.070313 23.425782-24.695312 0-49.265625-9.386719-67.875-27.726563l-21.277344 21.28125c21.410157 21.214844 49.367188 33.992188 79.753907 36.234375 3.1875.234375 6.363281.351563 9.527343.351563 30.351563 0 59.378907-10.753907 82.597657-30.78125 29.898437-25.789063 47.964843-61.675781 50.875-101.054688 2.636719-35.714843-7.484375-70.421875-28.628907-98.875l-21.574218 21.574219c15.054687 21.949219 22.179687 48.15625 20.191406 75.085938zm0 0" fill="#d20041"/><path d="m318.460938 194.132812c2.382812 5.824219 8.003906 9.347657 13.929687 9.347657 1.898437 0 3.828125-.363281 5.695313-1.125 7.6875-3.148438 11.371093-11.933594 8.222656-19.625-1.945313-4.746094-3.53125-9.34375-4.800782-13.800781l-23.652343 23.652343c.203125.515625.390625 1.027344.605469 1.550781zm0 0" fill="#0053bf"/><path d="m482.578125 27.855469-63.164063 63.167969 26.292969 39.328124c2.789063 4.175782 7.484375 6.683594 12.507813 6.683594 5.023437 0 9.714844-2.507812 12.507812-6.683594l34.597656-51.757812c3.386719-5.0625 3.386719-11.660156 0-16.722656zm0 0" fill="#86c42b"/></svg>