<svg height="511pt" viewBox="0 -8 511.95602 511" width="511pt" xmlns="http://www.w3.org/2000/svg"><path d="m282.351562 151.429688-8.742187 86.511718-1.410156 14.386719-18.183594 180.878906-3.796875 37.78125c-1.394531 13.570313-12.84375 23.875-26.484375 23.835938h-165.074219c-13.640625.039062-25.089844-10.265625-26.484375-23.835938l-25.070312-249.203125-7.0625002-70.355468c-.2499998-2.488282.5703122-4.96875 2.2539062-6.820313s4.074219-2.902344 6.574219-2.890625h264.652344c2.503906-.011719 4.890624 1.039062 6.574218 2.890625s2.503906 4.332031 2.253906 6.820313zm0 0" fill="#b0d3f0"/><path d="m262.664062 234.320312-.882812 9.179688-16.683594 180.878906-3.53125 37.78125c-.765625 13.039063-11.3125 23.355469-24.363281 23.835938h-152.097656c-13.078125-.417969-23.664063-10.769532-24.367188-23.835938l-21.980469-237.019531c11.386719 5.207031 17.480469 13.683594 37.164063 13.683594 28.335937 0 28.335937-17.65625 56.761719-17.65625 28.425781 0 28.425781 17.65625 56.851562 17.65625 28.421875 0 28.421875-17.65625 56.9375-17.65625 19.15625 0 25.421875 8.03125 36.191406 13.152343zm0 0" fill="#67b9cc"/><path d="m511.957031 353.582031c0 78.003907-63.238281 141.242188-141.242187 141.242188s-141.242188-63.238281-141.242188-141.242188c0-78.007812 63.238282-141.242187 141.242188-141.242187s141.242187 63.234375 141.242187 141.242187zm0 0" fill="#14a085"/><path d="m350.121094 433.03125c-2.019532-.003906-3.976563-.695312-5.546875-1.960938l-41.195313-33.226562c-3.796875-3.0625-4.390625-8.621094-1.328125-12.417969 3.058594-3.792969 8.617188-4.390625 12.414063-1.328125l33.210937 26.785156 77.203125-132.335937c1.472656-2.929687 4.445313-4.804687 7.726563-4.863281 3.277343-.0625 6.320312 1.699218 7.898437 4.570312 1.582032 2.875 1.4375 6.386719-.367187 9.121094l-82.390625 141.242188c-1.296875 2.21875-3.5 3.761718-6.027344 4.226562-.527344.117188-1.0625.175781-1.597656.1875zm0 0" fill="#fff"/><g fill="#f0c419"><path d="m247.128906.476562 12.480469 22.828126 22.828125 12.484374-22.828125 12.480469-12.480469 22.828125-12.484375-22.828125-22.828125-12.480469 22.828125-12.484374zm0 0"/><path d="m114.714844 53.445312 12.480468 22.828126 22.828126 12.480468-22.828126 12.480469-12.480468 22.828125-12.480469-22.828125-22.828125-12.480469 22.828125-12.480468zm0 0"/></g></svg>