<svg height="512" viewBox="0 0 58 58" width="512" xmlns="http://www.w3.org/2000/svg"><g id="Page-1" fill="none" fill-rule="evenodd"><g id="018---Watering-Plants" fill-rule="nonzero"><path id="Shape" d="m32.88 16.23c-.4724791.0014415-.881495-.3280024-.9807409-.7899427-.099246-.4619404.1383632-.9303089.5697409-1.1230573l3.6-1.617c.9776573-.439258 1.6467085-1.3667232 1.7551285-2.4330282.10842-1.0663051-.3602627-2.10945301-1.2295-2.73650003-.8692372-.62704703-2.0069712-.74272981-2.9846285-.30347177l-3.287 1.473c-.3260049.14647889-.7053913.10790945-.9952482-.10117958-.2898568-.20908904-.446148-.55693208-.41-.9125.036148-.35556793.2592433-.66484153.5852482-.81132042l3.285-1.475c1.6293097-.73239446 3.5255818-.53992846 4.9745089.50489792 1.448927 1.04482638 2.2303826 2.78327916 2.05 4.56049998-.1803827 1.7772209-1.2951992 3.3232076-2.9245089 4.0556021l-3.6 1.618c-.1282959.0580654-.2671895.0890442-.408.091z" fill="#3f5c6c"/><path id="Shape" d="m49 43c-.5522847 0-1-.4477153-1-1v-15c0-.5522847.4477153-1 1-1s1 .4477153 1 1v15c0 .5522847-.4477153 1-1 1z" fill="#24ae5f"/><path id="Shape" d="m12.142 58h-6.284c-.49344879-.0001878-.91299581-.3602848-.988-.848l-1.87-10.152h12l-1.87 10.152c-.0750042.4877152-.4945512.8478122-.988.848z" fill="#e57e25"/><rect id="Rectangle-path" fill="#f29c1f" height="5" rx="1" width="16" x="1" y="41.998"/><path id="Shape" d="m32.142 58h-6.284c-.4934488-.0001878-.9129958-.3602848-.988-.848l-1.87-10.152h12l-1.87 10.152c-.0750042.4877152-.4945512.8478122-.988.848z" fill="#e57e25"/><rect id="Rectangle-path" fill="#f29c1f" height="5" rx="1" width="16" x="21" y="41.998"/><path id="Shape" d="m52.142 58h-6.284c-.4934488-.0001878-.9129958-.3602848-.988-.848l-1.87-10.152h12l-1.87 10.152c-.0750042.4877152-.4945512.8478122-.988.848z" fill="#e57e25"/><rect id="Rectangle-path" fill="#f29c1f" height="5" rx="1" width="16" x="41" y="41.998"/><path id="Shape" d="m7.393 36.148c1.953 1.953 2 3.9.825 5.068s-3.118 1.127-5.068-.825c-1.25627347-1.5524962-2.06130427-3.4206382-2.327-5.4-.01707138-.3165533.1016545-.6253654.32638885-.8489542.22473436-.2235887.53414919-.3407348.85061115-.3220458 1.97702325.2671731 3.84261159 1.0724929 5.393 2.328z" fill="#4fba6f"/><path id="Shape" d="m10.607 36.148c-1.953 1.953-2 3.9-.825 5.068s3.115 1.127 5.068-.825c1.2562735-1.5524962 2.0613043-3.4206382 2.327-5.4.0170714-.3165533-.1016545-.6253654-.3263889-.8489542-.2247343-.2235887-.5341491-.3407348-.8506111-.3220458-1.9770232.2671731-3.8426116 1.0724929-5.393 2.328z" fill="#4fba6f"/><path id="Shape" d="m26.01 42c-.01-.1-.01-7.062-.01-7.173.2099353-1.9843156.9605391-3.8729318 2.17-5.46.2124744-.2340505.5138909-.3675141.83-.3675141s.6175256.1334636.83.3675141c1.2094609 1.5870682 1.9600647 3.4756844 2.17 5.46 0 .111 0 7.073-.01 7.173z" fill="#24ae5f"/><path id="Shape" d="m47.393 36.148c1.953 1.953 2 3.9.825 5.068s-3.115 1.127-5.068-.825c-1.2562735-1.5524962-2.0613043-3.4206382-2.327-5.4-.0170714-.3165533.1016545-.6253654.3263889-.8489542.2247343-.2235887.5341491-.3407348.8506111-.3220458 1.9770232.2671731 3.8426116 1.0724929 5.393 2.328z" fill="#4fba6f"/><path id="Shape" d="m50.607 36.148c-1.953 1.953-2 3.9-.825 5.068s3.115 1.127 5.068-.825c1.2562735-1.5524962 2.0613043-3.4206382 2.327-5.4.0170714-.3165533-.1016545-.6253654-.3263889-.8489542-.2247343-.2235887-.5341491-.3407348-.8506111-.3220458-1.9770232.2671731-3.8426116 1.0724929-5.393 2.328z" fill="#4fba6f"/><path id="Shape" d="m46.01 28.5c-.01-.1-.01-4.562-.01-4.673.2099353-1.9843156.9605391-3.8729318 2.17-5.46.2124744-.2340505.5138909-.3675141.83-.3675141s.6175256.1334636.83.3675141c1.2094609 1.5870682 1.9600647 3.4756844 2.17 5.46 0 .111 0 4.573-.01 4.673z" fill="#24ae5f"/><path id="Shape" d="m47.393 25.148c1.953 1.953 2 3.9.825 5.068s-3.115 1.127-5.068-.825c-1.2547691-1.5499637-2.0597143-3.4147937-2.327-5.391-.0197471-.3180693.0977953-.6293457.3228503-.8549744.2250549-.2256286.5360312-.3439629.8541497-.3250256 1.9770232.2671731 3.8426116 1.0724929 5.393 2.328z" fill="#4fba6f"/><path id="Shape" d="m50.607 25.148c-1.953 1.953-2 3.9-.825 5.068s3.115 1.127 5.068-.825c1.2547691-1.5499637 2.0597143-3.4147937 2.327-5.391.0197471-.3180693-.0977953-.6293457-.3228503-.8549744-.2250549-.2256286-.5360312-.3439629-.8541497-.3250256-1.9770232.2671731-3.8426116 1.0724929-5.393 2.328z" fill="#4fba6f"/><path id="Shape" d="m36.29 18.08-4.92-10.95c-.4544252-1.00350695-1.6347735-1.45060858-2.64-1l-2.74 1.23-3.64 1.64-2.74 1.23c-1.0073612.4506407-1.4593434 1.6320595-1.01 2.64l.409.919-6.379 2.867c-2.1404237.9530934-3.80853731 2.7256893-4.63 4.92l3.728 1.416c.4641239-1.1943234 1.3762175-2.1602384 2.542-2.692h.005l9.245 3.52c.2182169.4845364.6202953.8623075 1.1174812 1.0499248s1.0485981.169654 1.5325188-.0499248l9.12-4.1c.4849457-.2149045.8636434-.615048 1.0515361-1.1110848.1878928-.4960368.1693327-1.0466567-.0515361-1.5289152z" fill="#3f5c6c"/><path id="Shape" d="m22.35 9-2.74 1.23c-1.0073612.4506407-1.4593434 1.6320595-1.01 2.64l.41.92 1.64 3.64 2.87 6.39c.2182169.4845364.6202953.8623075 1.1174812 1.0499248s1.0485981.169654 1.5325188-.0499248l9.12-4.1c.4849457-.2149045.8636434-.615048 1.0515361-1.1110848.1878928-.4960368.1693327-1.0466567-.0515361-1.5289152l-4.92-10.95c-.4544252-1.00350695-1.6347735-1.45060858-2.64-1l-2.74 1.23z" fill="#35495e"/><rect id="Rectangle-path" fill="#547580" height="16" rx="2" transform="matrix(.912 -.41 .41 .912 -1.229 10.627)" width="4" x="22.169" y=".18"/><path id="Shape" d="m19.014 13.786 1.64 3.649-6.384 2.865c-1.1650192.530818-2.077003 1.4951818-2.542 2.688l-3.728-1.412c.82146269-2.1943107 2.4895763-3.9669066 4.63-4.92z" fill="#547580"/><path id="Shape" d="m13 28c0 1.6568542-1.3431458 2.9999999-3 2.9999999-1.65685422 0-2.99999997-1.3431457-3-2.9999999 0-2 3-5 3-5s3 3 3 5z" fill="#2fa8cc"/><g fill="#4fba6f"><path id="Shape" d="m27.393 36.148c1.953 1.953 2 3.9.825 5.068s-3.115 1.127-5.068-.825c-1.2562735-1.5524962-2.0613043-3.4206382-2.327-5.4-.0170714-.3165533.1016545-.6253654.3263889-.8489542.2247343-.2235887.5341491-.3407348.8506111-.3220458 1.9770232.2671731 3.8426116 1.0724929 5.393 2.328z"/><path id="Shape" d="m30.607 36.148c-1.953 1.953-2 3.9-.825 5.068s3.115 1.127 5.068-.825c1.2562735-1.5524962 2.0613043-3.4206382 2.327-5.4.0170714-.3165533-.1016545-.6253654-.3263889-.8489542-.2247343-.2235887-.5341491-.3407348-.8506111-.3220458-1.9770232.2671731-3.8426116 1.0724929-5.393 2.328z"/></g></g></g></svg>