<svg height="512pt" viewBox="-71 0 512 512" width="512pt" xmlns="http://www.w3.org/2000/svg"><path d="m334.476562 273.65625h27.453126c4.875 0 8.828124-3.953125 8.828124-8.828125v-17.65625c0-4.875-3.953124-8.828125-8.828124-8.828125h-27.453126zm0 0" fill="#a5a5a4"/><path d="m272.15625 387.179688-22.160156 110.609374c-1.640625 8.253907-8.882813 14.203126-17.300782 14.210938h-129.941406c-8.417968-.007812-15.660156-5.957031-17.304687-14.210938l-22.15625-110.609374v-262.359376l22.15625-110.609374c1.644531-8.253907 8.886719-14.2031255 17.304687-14.210938h129.941406c8.417969.0078125 15.660157 5.957031 17.300782 14.210938l22.160156 110.609374zm0 0" fill="#5e5f62"/><path d="m335.449219 256c0 92.632812-75.09375 167.722656-167.726563 167.722656-92.628906 0-167.722656-75.089844-167.722656-167.722656s75.09375-167.722656 167.722656-167.722656c92.632813 0 167.726563 75.089844 167.726563 167.722656zm0 0" fill="#d1d4d1"/><path d="m299.785156 247.171875c-.753906-11.578125-3.039062-23.007813-6.796875-33.984375-1.78125-5.324219-3.9375-10.515625-6.445312-15.539062l-15.007813 8.652343c-4.238281 2.4375-9.65625.976563-12.09375-3.265625-2.4375-4.242187-.972656-9.65625 3.265625-12.09375l15.007813-8.652344c-9.640625-14.320312-21.960938-26.640624-36.28125-36.28125l-8.648438 15.007813c-2.4375 4.242187-7.855468 5.703125-12.09375 3.265625-4.242187-2.4375-5.707031-7.851562-3.269531-12.09375l8.652344-15.007812c-15.464844-7.65625-32.300781-12.15625-49.523438-13.242188v17.304688c0 4.875-3.953125 8.828124-8.828125 8.828124s-8.824218-3.953124-8.824218-8.828124v-17.304688c-17.222657 1.085938-34.058594 5.585938-49.523438 13.242188l8.648438 15.007812c2.4375 4.242188.976562 9.65625-3.265626 12.09375-4.242187 2.4375-9.65625.976562-12.09375-3.265625l-8.648437-15.007813c-14.320313 9.640626-26.640625 21.960938-36.285156 36.28125l15.007812 8.652344c4.242188 2.4375 5.703125 7.851563 3.265625 12.09375-2.4375 4.242188-7.851562 5.703125-12.09375 3.265625l-15.003906-8.652343c-7.65625 15.464843-12.160156 32.300781-13.242188 49.523437h17.300782c4.875 0 8.828125 3.953125 8.828125 8.828125s-3.953125 8.828125-8.828125 8.828125h-17.300782c.667969 10.527344 2.625 20.933594 5.824219 30.984375 1.960938 6.371094 4.4375 12.574219 7.417969 18.539062 12.855469 26.328126 34.136719 47.609376 60.46875 60.46875 15.464844 7.65625 32.300781 12.15625 49.523438 13.242188 2.910156.261719 5.824218.351562 8.824218.351562 3.003906 0 5.914063-.089843 8.828125-.351562 17.222657-1.085938 34.058594-5.585938 49.523438-13.242188 26.328125-12.859374 47.609375-34.140624 60.46875-60.46875 7.65625-15.464843 12.15625-32.300781 13.242187-49.523437.265625-2.914063.351563-5.828125.351563-8.828125s-.085938-5.914062-.351563-8.828125zm-140.886718-70.621094c0-4.875 3.949218-8.828125 8.824218-8.828125s8.828125 3.953125 8.828125 8.828125v56.320313c-6 1.765625-11.917969 3.53125-17.652343 5.472656zm0 0" fill="#90bae1"/><path d="m211.863281 52.964844h-88.277343c-4.875 0-8.828126-3.953125-8.828126-8.828125s3.953126-8.828125 8.828126-8.828125h88.277343c4.875 0 8.828125 3.953125 8.828125 8.828125s-3.953125 8.828125-8.828125 8.828125zm0 0" fill="#2c2f38"/><path d="m211.863281 476.691406h-88.277343c-4.875 0-8.828126-3.953125-8.828126-8.828125s3.953126-8.828125 8.828126-8.828125h88.277343c4.875 0 8.828125 3.953125 8.828125 8.828125s-3.953125 8.828125-8.828125 8.828125zm0 0" fill="#2c2f38"/><path d="m176.550781 370.757812v17.304688c-2.914062.261719-5.824219.351562-8.828125.351562-3 0-5.914062-.089843-8.824218-.351562v-17.304688c0-4.875 3.949218-8.828124 8.824218-8.828124s8.828125 3.953124 8.828125 8.828124zm0 0" fill="#5e5f62"/><path d="m241.433594 365.992188c-4.917969 3.28125-10.046875 6.230468-15.359375 8.828124l-8.652344-15.007812c-2.4375-4.242188-.972656-9.65625 3.269531-12.09375 4.238282-2.4375 9.65625-.976562 12.09375 3.265625zm0 0" fill="#5e5f62"/><path d="m286.542969 314.351562c-2.597657 5.308594-5.546875 10.441407-8.828125 15.359376l-15.007813-8.652344c-2.742187-1.578125-4.4375-4.496094-4.441406-7.660156-.007813-3.167969 1.675781-6.09375 4.414063-7.679688 2.738281-1.589844 6.113281-1.597656 8.855468-.019531zm0 0" fill="#5e5f62"/><path d="m300.136719 256c0 3-.085938 5.914062-.351563 8.828125h-17.300781c-4.878906 0-8.828125-3.953125-8.828125-8.828125s3.949219-8.828125 8.828125-8.828125h17.300781c.265625 2.914063.351563 5.828125.351563 8.828125zm0 0" fill="#5e5f62"/><path d="m72.738281 321.058594-15.007812 8.652344c-3.277344-4.917969-6.226563-10.050782-8.824219-15.359376l15.003906-8.652343c2.746094-1.578125 6.121094-1.570313 8.859375.019531 2.738281 1.585938 4.421875 4.511719 4.414063 7.679688-.007813 3.164062-1.699219 6.082031-4.445313 7.660156zm0 0" fill="#5e5f62"/><path d="m118.023438 359.8125-8.648438 15.007812c-5.3125-2.597656-10.441406-5.546874-15.359375-8.828124l8.648437-15.007813c1.578126-2.742187 4.5-4.4375 7.664063-4.445313 3.164063-.003906 6.089844 1.679688 7.679687 4.414063 1.585938 2.738281 1.59375 6.117187.015626 8.859375zm0 0" fill="#5e5f62"/><path d="m235.785156 324.0625c-3.480468 3.414062-9.054687 3.414062-12.535156 0l-61.792969-61.792969c-1.625-1.683593-2.542969-3.929687-2.558593-6.269531v-17.65625c5.734374-1.941406 11.652343-3.707031 17.652343-5.472656v19.507812l59.234375 59.148438c3.441406 3.46875 3.441406 9.0625 0 12.535156zm0 0" fill="#2c2f38"/><path d="m176.550781 176.550781v56.320313c-6 1.765625-11.917969 3.53125-17.652343 5.472656v-61.792969c0-4.875 3.949218-8.828125 8.824218-8.828125s8.828125 3.953125 8.828125 8.828125zm0 0" fill="#5e5f62"/><g fill="#a5a5a4"><path d="m241.433594 146.007812-8.648438 15.007813c-2.4375 4.242187-7.855468 5.703125-12.09375 3.265625-4.242187-2.4375-5.707031-7.851562-3.269531-12.09375l8.652344-15.007812c5.3125 2.597656 10.441406 5.546874 15.359375 8.828124zm0 0"/><path d="m286.542969 197.648438-15.007813 8.652343c-4.238281 2.4375-9.65625.976563-12.09375-3.265625-2.4375-4.242187-.972656-9.65625 3.265625-12.09375l15.007813-8.652344c3.28125 4.917969 6.230468 10.050782 8.828125 15.359376zm0 0"/><path d="m114.757812 164.28125c-4.246093 2.386719-9.625.9375-12.09375-3.265625l-8.648437-15.007813c4.917969-3.28125 10.046875-6.230468 15.359375-8.828124l8.648438 15.007812c2.40625 4.246094.949218 9.636719-3.265626 12.09375zm0 0"/><path d="m76.003906 203.035156c-2.464844 4.203125-7.84375 5.652344-12.09375 3.265625l-15.003906-8.652343c2.597656-5.308594 5.546875-10.441407 8.824219-15.359376l15.007812 8.652344c4.214844 2.457032 5.671875 7.847656 3.265625 12.09375zm0 0"/><path d="m61.792969 256c0 4.875-3.953125 8.828125-8.828125 8.828125h-17.300782c-.265624-2.914063-.355468-5.828125-.355468-8.828125s.089844-5.914062.355468-8.828125h17.300782c4.875 0 8.828125 3.953125 8.828125 8.828125zm0 0"/><path d="m176.550781 123.9375v17.304688c0 4.875-3.953125 8.828124-8.828125 8.828124s-8.824218-3.953124-8.824218-8.828124v-17.304688c2.910156-.261719 5.824218-.351562 8.824218-.351562 3.003906 0 5.914063.089843 8.828125.351562zm0 0"/></g><path d="m176.550781 232.871094v-56.320313c0-4.875-3.953125-8.828125-8.828125-8.828125s-8.824218 3.953125-8.824218 8.828125v61.792969c-41.632813 13.566406-81.15625 32.910156-117.410157 57.46875-3.199219-10.050781-5.15625-20.457031-5.824219-30.984375h17.300782c4.875 0 8.828125-3.953125 8.828125-8.828125s-3.953125-8.828125-8.828125-8.828125h-17.300782c1.082032-17.222656 5.585938-34.058594 13.242188-49.523437l15.003906 8.652343c2.746094 1.578125 6.121094 1.570313 8.859375-.019531 2.738281-1.585938 4.421875-4.511719 4.414063-7.679688-.007813-3.164062-1.699219-6.082031-4.445313-7.660156l-15.007812-8.652344c9.644531-14.320312 21.964843-26.640624 36.285156-36.28125l8.648437 15.007813c1.578126 2.742187 4.5 4.4375 7.664063 4.445313 3.164063.003906 6.089844-1.679688 7.679687-4.414063 1.585938-2.738281 1.59375-6.117187.015626-8.859375l-8.648438-15.007812c15.464844-7.65625 32.300781-12.15625 49.523438-13.242188v17.304688c0 4.875 3.949218 8.828124 8.824218 8.828124s8.828125-3.953124 8.828125-8.828124v-17.304688c17.222657 1.085938 34.058594 5.585938 49.523438 13.242188l-8.652344 15.007812c-2.4375 4.242188-.972656 9.65625 3.269531 12.09375 4.238282 2.4375 9.65625.976562 12.09375-3.265625l8.648438-15.007813c14.320312 9.640626 26.640625 21.960938 36.28125 36.28125l-15.007813 8.652344c-4.238281 2.4375-5.703125 7.851563-3.265625 12.09375 2.4375 4.242188 7.855469 5.703125 12.09375 3.265625l15.007813-8.652343c2.507812 5.023437 4.664062 10.214843 6.445312 15.539062-39.414062 2.300781-78.457031 8.902344-116.4375 19.683594zm0 0" fill="#b0d3f0"/></svg>