<?xml version="1.0" encoding="UTF-8" standalone="no"?>
<svg
   xmlns:dc="http://purl.org/dc/elements/1.1/"
   xmlns:cc="http://creativecommons.org/ns#"
   xmlns:rdf="http://www.w3.org/1999/02/22-rdf-syntax-ns#"
   xmlns:svg="http://www.w3.org/2000/svg"
   xmlns="http://www.w3.org/2000/svg"
   xmlns:sodipodi="http://sodipodi.sourceforge.net/DTD/sodipodi-0.dtd"
   xmlns:inkscape="http://www.inkscape.org/namespaces/inkscape"
   width="150mm"
   height="30mm"
   viewBox="0 0 150 30"
   version="1.1"
   id="svg4032"
   inkscape:version="1.0.1 (3bc2e813f5, 2020-09-07)"
   sodipodi:docname="logo-text.svg">
  <defs
     id="defs4026" />
  <sodipodi:namedview
     id="base"
     pagecolor="#ffffff"
     bordercolor="#666666"
     borderopacity="1.0"
     inkscape:pageopacity="0.0"
     inkscape:pageshadow="2"
     inkscape:zoom="1.3343279"
     inkscape:cx="299.73995"
     inkscape:cy="307.62003"
     inkscape:document-units="mm"
     inkscape:current-layer="layer1"
     inkscape:document-rotation="0"
     showgrid="false"
     inkscape:window-width="2475"
     inkscape:window-height="1376"
     inkscape:window-x="85"
     inkscape:window-y="27"
     inkscape:window-maximized="1" />
  <metadata
     id="metadata4029">
    <rdf:RDF>
      <cc:Work
         rdf:about="">
        <dc:format>image/svg+xml</dc:format>
        <dc:type
           rdf:resource="http://purl.org/dc/dcmitype/StillImage" />
        <dc:title></dc:title>
      </cc:Work>
    </rdf:RDF>
  </metadata>
  <g
     inkscape:label="Layer 1"
     inkscape:groupmode="layer"
     id="layer1">
    <g
       id="g4689"
       transform="translate(-22.197857,-87.036808)">
      <path
         d="m 42.737762,107.55731 c -2.65e-4,1.53811 -0.446265,2.9598 -1.217083,4.16277 -0.504825,0.7867 -1.150761,1.47462 -1.899709,2.032 v -9.12283 l 3.116792,-2.67053 v 4.51909 z m -8.26276,7.71525 v -6.24064 l 3.38596,-2.89631 v 8.59367 c -0.87771,0.34925 -1.832682,0.54328 -2.837744,0.54328 z m -1.760009,-4.73075 v 4.73075 h -5.527322 z m -7.02945,-0.889 v -0.14111 h 5.526617 l -5.526617,4.73075 z m 8.526637,-20.351752 8.525582,6.339416 v 3.527778 h -9.337675 c -1.699329,0 -3.300587,0.451555 -4.681008,1.234718 -1.20015,0.68439 -2.234847,1.62278 -3.033536,2.74109 v -7.503586 z m 4.320824,13.941772 H 27.896401 c 0.50024,-0.51152 1.068565,-0.9525 1.693334,-1.3088 1.124302,-0.63853 2.421467,-1.00542 3.810352,-1.00542 h 7.8359 z m -5.264854,4.5085 h -7.530749 c 0.113242,-0.98777 0.410986,-1.91205 0.85972,-2.74813 h 9.879893 z m 11.22962,-1.27352 V 94.755002 L 34.21218,87.10678 23.925535,94.755002 v 13.874748 0 1.02306 7.38011 h 11.097683 c 1.466144,0 2.858559,-0.33514 4.098925,-0.93134 1.591027,-0.76552 2.933346,-1.95791 3.87985,-3.43252 0.946502,-1.47109 1.496129,-3.23145 1.495777,-5.11175 v -1.0795 0"
         style="fill:#ef1434;fill-opacity:1;fill-rule:nonzero;stroke:none;stroke-width:0.0352777"
         id="path1569" />
      <path
         d="m 33.885862,94.299919 h -1.60655 v 1.605139 h 1.60655 v -1.605139"
         style="fill:#ef1434;fill-opacity:1;fill-rule:nonzero;stroke:none;stroke-width:0.0352777"
         id="path1571" />
      <path
         d="m 36.144345,94.299919 h -1.606902 v 1.605139 h 1.606902 v -1.605139"
         style="fill:#ef1434;fill-opacity:1;fill-rule:nonzero;stroke:none;stroke-width:0.0352777"
         id="path1573" />
      <path
         d="m 33.885862,96.529474 h -1.60655 v 1.605139 h 1.60655 v -1.605139"
         style="fill:#ef1434;fill-opacity:1;fill-rule:nonzero;stroke:none;stroke-width:0.0352777"
         id="path1575" />
      <path
         d="m 36.144345,96.529474 h -1.606902 v 1.605139 h 1.606902 v -1.605139"
         style="fill:#ef1434;fill-opacity:1;fill-rule:nonzero;stroke:none;stroke-width:0.0352777"
         id="path1577" />
      <g
         id="g4663"
         transform="matrix(1.8373758,0,0,1.8373758,48.613177,-127.85891)">
        <path
           d="m 13.583855,128.63931 c -0.03986,-0.0741 -0.09455,-0.13759 -0.163689,-0.1905 -0.06915,-0.0564 -0.149931,-0.0988 -0.242711,-0.13406 -0.09278,-0.0318 -0.191912,-0.0494 -0.297392,-0.0494 h -0.430742 v 1.21355 h 0.430742 c 0.138289,0 0.255411,-0.0177 0.352072,-0.0494 0.09631,-0.0317 0.175331,-0.0776 0.237067,-0.13053 0.06209,-0.0564 0.106539,-0.11994 0.133703,-0.1905 0.02716,-0.0741 0.04092,-0.15169 0.04092,-0.23636 0,-0.0811 -0.02011,-0.15522 -0.05997,-0.23283 z m 0.502002,0.68086 c -0.06914,0.13758 -0.162983,0.26105 -0.280811,0.36689 -0.118533,0.1023 -0.257528,0.18697 -0.417689,0.24694 -0.159808,0.06 -0.329141,0.0882 -0.507294,0.0882 h -0.430742 v 1.51342 h -0.545747 v -3.81353 h 0.971197 c 0.178153,0 0.347134,0.0318 0.507295,0.0917 0.159808,0.0635 0.299861,0.14464 0.420158,0.25047 0.119944,0.1023 0.214489,0.22225 0.283633,0.36336 0.06915,0.14111 0.103364,0.28928 0.103364,0.4445 0,0.16228 -0.03422,0.31044 -0.103364,0.44803"
           style="fill:#ef1434;fill-opacity:1;fill-rule:nonzero;stroke:none;stroke-width:0.0352777"
           id="path1579" />
        <path
           d="m 18.033088,128.6005 c -0.03457,-0.067 -0.08114,-0.12347 -0.138995,-0.17286 -0.05856,-0.0494 -0.126647,-0.0882 -0.204611,-0.11642 -0.07832,-0.0282 -0.159455,-0.0459 -0.242711,-0.0459 h -0.414867 v 1.09714 h 0.583848 c 0.06174,0 0.121002,-0.0141 0.177094,-0.0423 0.05644,-0.0282 0.106539,-0.0705 0.150283,-0.11994 0.04339,-0.0494 0.07796,-0.10936 0.103364,-0.17639 0.02575,-0.067 0.03845,-0.14111 0.03845,-0.2152 0,-0.0741 -0.01729,-0.14464 -0.05186,-0.20814 z m 0.608189,2.92453 -1.10737,-1.59456 h -0.502003 v 1.60867 H 16.48651 v -3.81706 h 1.025525 c 0.152753,0 0.298097,0.0282 0.436386,0.0882 0.138289,0.0564 0.259292,0.13406 0.363008,0.23284 0.103364,0.0988 0.186267,0.21519 0.248003,0.34572 0.06209,0.13405 0.09278,0.27164 0.09278,0.4198 0,0.20461 -0.04904,0.39159 -0.147109,0.56092 -0.09842,0.16581 -0.229305,0.30339 -0.392994,0.41275 l 1.194858,1.74272 h -0.66569"
           style="fill:#ef1434;fill-opacity:1;fill-rule:nonzero;stroke:none;stroke-width:0.0352777"
           id="path1581" />
        <path
           d="m 24.718579,129.03089 c -0.0762,-0.16581 -0.179916,-0.31397 -0.310797,-0.43744 -0.130881,-0.127 -0.282928,-0.22578 -0.455789,-0.29987 -0.172508,-0.0705 -0.355247,-0.10936 -0.548217,-0.10936 -0.200025,0 -0.389113,0.0388 -0.567266,0.10936 -0.178153,0.0741 -0.333728,0.17287 -0.466372,0.29634 -0.132645,0.12347 -0.237067,0.26811 -0.31362,0.43391 -0.07655,0.16581 -0.114653,0.33867 -0.114653,0.52564 0,0.21167 0.03916,0.40923 0.117475,0.59267 0.07796,0.18697 0.183445,0.34925 0.316442,0.48683 0.132644,0.13759 0.288219,0.24695 0.466372,0.32809 0.178153,0.0811 0.369006,0.11994 0.572559,0.11994 0.192969,0 0.37465,-0.0388 0.545747,-0.11994 0.170744,-0.0811 0.321028,-0.1905 0.450144,-0.32809 0.128764,-0.13758 0.231775,-0.29633 0.307975,-0.47977 0.07655,-0.18345 0.114653,-0.37748 0.114653,-0.58209 0,-0.1905 -0.0381,-0.37041 -0.114653,-0.53622 z m 0.502003,1.32292 c -0.105481,0.254 -0.248356,0.47272 -0.428272,0.65969 -0.179917,0.18697 -0.390878,0.33514 -0.632884,0.4445 -0.241652,0.10936 -0.49918,0.16581 -0.771877,0.16581 -0.272698,0 -0.529873,-0.0564 -0.771878,-0.16581 -0.242006,-0.10936 -0.452967,-0.25753 -0.632883,-0.4445 -0.179917,-0.18697 -0.322792,-0.40569 -0.428273,-0.65969 -0.10548,-0.254 -0.158044,-0.52211 -0.158044,-0.80434 0,-0.26105 0.05256,-0.508 0.158044,-0.74083 0.105481,-0.22931 0.248356,-0.43039 0.428273,-0.60325 0.179916,-0.17286 0.390877,-0.31044 0.632883,-0.41275 0.242005,-0.10231 0.49918,-0.15169 0.771878,-0.15169 0.272697,0 0.530225,0.0494 0.771877,0.15169 0.242006,0.10231 0.452967,0.23989 0.632884,0.41275 0.179916,0.17286 0.322791,0.37394 0.428272,0.60325 0.10548,0.23283 0.158044,0.47978 0.158044,0.74083 0,0.28223 -0.05256,0.55034 -0.158044,0.80434"
           style="fill:#ef1434;fill-opacity:1;fill-rule:nonzero;stroke:none;stroke-width:0.0352777"
           id="path1583" />
        <path
           d="m 29.350552,128.63931 c -0.03986,-0.0741 -0.09454,-0.13759 -0.16369,-0.1905 -0.06914,-0.0564 -0.149929,-0.0988 -0.24271,-0.13406 -0.09278,-0.0318 -0.191559,-0.0494 -0.297392,-0.0494 h -0.431095 v 1.21355 h 0.431095 c 0.13829,0 0.255765,-0.0177 0.352073,-0.0494 0.09631,-0.0317 0.175329,-0.0776 0.237067,-0.13053 0.06209,-0.0564 0.106537,-0.11994 0.133702,-0.1905 0.02716,-0.0741 0.04092,-0.15169 0.04092,-0.23636 0,-0.0811 -0.02011,-0.15522 -0.05997,-0.23283 z m 0.502002,0.68086 c -0.06914,0.13758 -0.162984,0.26105 -0.281163,0.36689 -0.118181,0.1023 -0.257175,0.18697 -0.417337,0.24694 -0.159809,0.06 -0.329142,0.0882 -0.507294,0.0882 h -0.431095 v 1.51342 h -0.545394 v -3.81353 h 0.971197 c 0.178152,0 0.347134,0.0318 0.507294,0.0917 0.159808,0.0635 0.300215,0.14464 0.420158,0.25047 0.119946,0.1023 0.21449,0.22225 0.283634,0.36336 0.06915,0.14111 0.103364,0.28928 0.103364,0.4445 0,0.16228 -0.03422,0.31044 -0.103364,0.44803"
           style="fill:#ef1434;fill-opacity:1;fill-rule:nonzero;stroke:none;stroke-width:0.0352777"
           id="path1585" />
        <path
           d="m 32.253208,131.53914 v -3.81706 h 2.290937 v 0.54328 h -1.745543 v 0.95603 h 1.325385 v 0.54681 h -1.325385 v 1.21708 h 1.854903 v 0.55386 h -2.400297"
           style="fill:#ef1434;fill-opacity:1;fill-rule:nonzero;stroke:none;stroke-width:0.0352777"
           id="path1587" />
        <path
           d="m 38.464212,128.6005 c -0.03457,-0.067 -0.08114,-0.12347 -0.138994,-0.17286 -0.05821,-0.0494 -0.126648,-0.0882 -0.204613,-0.11642 -0.07832,-0.0282 -0.159453,-0.0459 -0.24271,-0.0459 h -0.414866 v 1.09714 h 0.583848 c 0.06173,0 0.121002,-0.0141 0.177445,-0.0423 0.05609,-0.0282 0.106188,-0.0705 0.149932,-0.11994 0.04339,-0.0494 0.07796,-0.10936 0.103364,-0.17639 0.02574,-0.067 0.03845,-0.14111 0.03845,-0.2152 0,-0.0741 -0.01728,-0.14464 -0.05186,-0.20814 z m 0.60819,2.92453 -1.107372,-1.59456 h -0.502001 v 1.60867 h -0.545394 v -3.81706 h 1.025525 c 0.152752,0 0.29845,0.0282 0.436385,0.0882 0.13829,0.0564 0.259292,0.13406 0.363009,0.23284 0.103716,0.0988 0.186266,0.21519 0.248001,0.34572 0.06209,0.13405 0.09278,0.27164 0.09278,0.4198 0,0.20461 -0.04903,0.39159 -0.147108,0.56092 -0.09843,0.16581 -0.229307,0.30339 -0.392994,0.41275 l 1.194858,1.74272 H 39.0724"
           style="fill:#ef1434;fill-opacity:1;fill-rule:nonzero;stroke:none;stroke-width:0.0352777"
           id="path1589" />
        <path
           d="m 43.453195,128.26536 v 3.27378 h -0.545393 v -3.27378 h -1.189215 v -0.54328 h 2.924175 v 0.54328 h -1.189567"
           style="fill:#ef1434;fill-opacity:1;fill-rule:nonzero;stroke:none;stroke-width:0.0352777"
           id="path1591" />
        <path
           d="m 46.830337,131.53914 v -3.81706 h 0.545393 v 3.81706 h -0.545393"
           style="fill:#ef1434;fill-opacity:1;fill-rule:nonzero;stroke:none;stroke-width:0.0352777"
           id="path1593" />
        <path
           d="m 49.782029,131.53914 v -3.81706 h 2.290939 v 0.54328 h -1.745546 v 0.95603 h 1.32574 v 0.54681 h -1.32574 v 1.21708 h 1.854907 v 0.55386 h -2.4003"
           style="fill:#ef1434;fill-opacity:1;fill-rule:nonzero;stroke:none;stroke-width:0.0352777"
           id="path1595" />
        <path
           d="m 56.426597,130.83711 c -0.06173,0.13759 -0.145343,0.26106 -0.250825,0.36336 -0.105479,0.10584 -0.228952,0.1905 -0.370768,0.25048 -0.142169,0.06 -0.292807,0.0882 -0.452967,0.0882 -0.272698,0 -0.513644,-0.0706 -0.722842,-0.21167 -0.209198,-0.14111 -0.357365,-0.32808 -0.4445,-0.55739 l 0.479777,-0.2928 c 0.02928,0.14817 0.107598,0.27164 0.23495,0.37042 0.127,0.0988 0.27799,0.14816 0.452615,0.14816 0.08361,0 0.16369,-0.0177 0.23989,-0.0494 0.07655,-0.0353 0.142875,-0.0776 0.199318,-0.13052 0.05644,-0.0564 0.100894,-0.11995 0.133702,-0.1905 0.03246,-0.0741 0.04904,-0.1517 0.04904,-0.23637 0,-0.14111 -0.04163,-0.254 -0.12559,-0.33513 -0.08361,-0.0811 -0.187325,-0.1517 -0.310798,-0.21167 -0.123825,-0.06 -0.258233,-0.11642 -0.403577,-0.16933 -0.145698,-0.0494 -0.2794,-0.11642 -0.401108,-0.19403 -0.12171,-0.0811 -0.222959,-0.18345 -0.302685,-0.30692 -0.08008,-0.12347 -0.118182,-0.28575 -0.114652,-0.49036 0,-0.13053 0.02257,-0.254 0.06809,-0.37042 0.04551,-0.11641 0.111125,-0.21872 0.196498,-0.30691 0.08537,-0.0847 0.187325,-0.15523 0.305504,-0.20461 0.118181,-0.0529 0.249766,-0.0776 0.395465,-0.0776 0.214489,0 0.4064,0.0529 0.575381,0.15875 0.169333,0.10936 0.295627,0.24694 0.379235,0.41275 l -0.490715,0.34925 c -0.0074,-0.0494 -0.02363,-0.0988 -0.04939,-0.14464 -0.0254,-0.0459 -0.05891,-0.0847 -0.100896,-0.11995 -0.04163,-0.0353 -0.08996,-0.06 -0.144637,-0.0811 -0.05433,-0.0212 -0.110773,-0.0318 -0.168981,-0.0318 -0.112536,0 -0.210961,0.0423 -0.294569,0.12347 -0.08361,0.0811 -0.12559,0.17992 -0.12559,0.29281 0,0.11642 0.04092,0.20814 0.122767,0.27164 0.08184,0.067 0.184856,0.12347 0.308327,0.17639 0.123825,0.0494 0.256471,0.1023 0.398288,0.15522 0.141816,0.0529 0.27446,0.12347 0.397933,0.21167 0.123825,0.0882 0.226835,0.20461 0.308327,0.34572 0.08184,0.13758 0.122767,0.32103 0.122767,0.5468 0,0.15875 -0.03069,0.31045 -0.09278,0.44803"
           style="fill:#ef1434;fill-opacity:1;fill-rule:nonzero;stroke:none;stroke-width:0.0352777"
           id="path1597" />
        <path
           d="m 5.1281257,120.89936 -1.0354027,2.50472 h 2.0612804 z m 2.1307764,5.17878 -0.670982,-1.69686 H 3.6587358 l -0.670807,1.69686 H 1.9031372 l 2.8799719,-6.91444 h 0.6805083 l 2.8800764,6.91444 H 7.2589021"
           style="fill:#333333;fill-opacity:1;fill-rule:nonzero;stroke:none;stroke-width:0.0352777"
           id="path1599" />
        <path
           d="m 14.252368,120.15147 v 5.91609 h -0.986366 v -5.91609 h -2.150181 v -0.98777 h 5.286375 v 0.98777 h -2.149828"
           style="fill:#333333;fill-opacity:1;fill-rule:nonzero;stroke:none;stroke-width:0.0352777"
           id="path1601" />
        <path
           d="m 22.419526,120.89936 -1.035755,2.50472 h 2.06128 z m 2.130425,5.17878 -0.67063,-1.69686 h -2.929467 l -0.67063,1.69686 h -1.085145 l 2.880078,-6.91444 h 0.680508 l 2.880078,6.91444 h -1.084792"
           style="fill:#333333;fill-opacity:1;fill-rule:nonzero;stroke:none;stroke-width:0.0352777"
           id="path1603" />
        <path
           d="m 31.597745,120.7512 c -0.06244,-0.11642 -0.146402,-0.22225 -0.251529,-0.31045 -0.105129,-0.0882 -0.2286,-0.15875 -0.370064,-0.21167 -0.141111,-0.0529 -0.287515,-0.0776 -0.438857,-0.0776 h -0.7493 v 1.98261 h 1.055159 c 0.111831,0 0.218723,-0.0282 0.320675,-0.0811 0.101954,-0.0529 0.192264,-0.12347 0.271287,-0.21519 0.07867,-0.0917 0.141463,-0.20109 0.187325,-0.32103 0.04586,-0.12347 0.06914,-0.254 0.06914,-0.39158 0,-0.13053 -0.0314,-0.254 -0.09384,-0.37395 z m 1.099609,5.28813 -2.002013,-2.88219 h -0.907346 v 2.91042 h -0.986366 v -6.90386 h 1.8542 c 0.276225,0 0.539046,0.0529 0.789164,0.15875 0.249767,0.10583 0.468136,0.24694 0.655815,0.42333 0.187325,0.17639 0.336902,0.38453 0.448733,0.62442 0.111829,0.23988 0.167569,0.49388 0.167569,0.75494 0,0.37747 -0.08855,0.71614 -0.266348,1.016 -0.177446,0.30339 -0.41416,0.55386 -0.710142,0.75142 l 2.160059,3.14677 h -1.203325"
           style="fill:#333333;fill-opacity:1;fill-rule:nonzero;stroke:none;stroke-width:0.0352777"
           id="path1605" />
        <path
           d="m 39.927535,120.89936 -1.035405,2.50472 h 2.061282 z m 2.130425,5.17878 -0.670631,-1.69686 h -2.929467 l -0.670632,1.69686 h -1.084791 l 2.880079,-6.91444 h 0.680509 l 2.880077,6.91444 H 42.05796"
           style="fill:#333333;fill-opacity:1;fill-rule:nonzero;stroke:none;stroke-width:0.0352777"
           id="path1607" />
        <path
           d="m 51.48771,126.06756 -2.150181,-2.82928 -2.160059,2.82928 h -1.25236 l 2.7813,-3.65831 -2.465917,-3.24555 h 1.242836 l 1.844323,2.42711 1.8542,-2.42711 h 1.242835 l -2.465565,3.25613 2.801057,3.64773 H 51.48771"
           style="fill:#333333;fill-opacity:1;fill-rule:nonzero;stroke:none;stroke-width:0.0352777"
           id="path1609" />
        <path
           d="m 55.917187,126.06756 v -6.90386 h 0.986015 v 6.90386 h -0.986015"
           style="fill:#333333;fill-opacity:1;fill-rule:nonzero;stroke:none;stroke-width:0.0352777"
           id="path1611" />
        <path
           d="m 63.304705,120.89936 -1.035401,2.50472 h 2.061281 z m 2.130425,5.17878 -0.670628,-1.69686 h -2.929115 l -0.670983,1.69686 h -1.084792 l 2.879725,-6.91444 h 0.68086 l 2.88008,6.91444 H 65.43513"
           style="fill:#333333;fill-opacity:1;fill-rule:nonzero;stroke:none;stroke-width:0.0352777"
           id="path1613" />
      </g>
    </g>
  </g>
</svg>
