<svg id="Capa_1" enable-background="new 0 0 494.055 494.055" height="512" viewBox="0 0 494.055 494.055" width="512" xmlns="http://www.w3.org/2000/svg"><path d="m278.426 155.294v-22.376l-10-57.767 10-36.621h-62.797l10 36.91-10 57.478v22.376c0 9.453-5.907 18.025-14.867 21.035-20.323 6.827-34.964 26.021-34.964 48.645v47.788l20 58.324-20 58.324v85.382c0 10.639 8.624 19.263 19.263 19.263h123.934c10.639 0 19.263-8.624 19.263-19.263v-85.382l-10-54.703 10-61.945v-47.788c0-22.624-14.641-41.818-34.964-48.645-8.962-3.01-14.868-11.582-14.868-21.035z" fill="#3e5959"/><path d="m293.293 176.329c-8.961-3.01-14.868-11.582-14.868-21.035v-22.376l-10-56.61 10-37.778h-30v116.764c0 9.453 5.907 18.025 14.868 21.035 20.323 6.827 34.964 26.021 34.964 48.645v249.817c0 10.639-8.625 19.263-19.263 19.263h30c10.639 0 19.263-8.624 19.263-19.263v-85.381l-20-58.324 20-58.324v-47.788c.001-22.624-14.64-41.818-34.964-48.645z" fill="#384949"/><path d="m261.159 38.53h-48.263c-5.56 0-10.067-4.507-10.067-10.067v-18.396c0-5.56 4.507-10.067 10.067-10.067h48.263c5.56 0 10.067 4.507 10.067 10.067v18.395c0 5.561-4.507 10.068-10.067 10.068z" fill="#fd5426"/><path d="m281.159 0h-30c5.56 0 10.067 4.507 10.067 10.067v18.395c0 5.56-4.507 10.067-10.067 10.067h30c5.56 0 10.067-4.507 10.067-10.067v-18.395c0-5.56-4.507-10.067-10.067-10.067z" fill="#d73d24"/><path d="m165.797 272.762h162.461v116.648h-162.461z" fill="#fff9f0"/><path d="m298.258 272.762h30v116.648h-30z" fill="#ffefe1"/><path d="m215.629 100.02v32.898h62.797v-32.898l-33.853-20z" fill="#fac600"/><path d="m248.426 38.53h30v94.388h-30z" fill="#e8b800"/><path d="m215.629 38.53h62.797v61.593h-62.797z" fill="#fd5426"/><path d="m248.426 38.53h30v61.593h-30z" fill="#d73d24"/><path d="m285.837 312.147h-74.286c-4.142 0-7.5-3.358-7.5-7.5s3.358-7.5 7.5-7.5h74.286c4.143 0 7.5 3.358 7.5 7.5s-3.357 7.5-7.5 7.5z" fill="#8ebac5"/><path d="m269.269 342.207h-41.149c-4.142 0-7.5-3.358-7.5-7.5s3.358-7.5 7.5-7.5h41.148c4.143 0 7.5 3.358 7.5 7.5.001 4.143-3.357 7.5-7.499 7.5z" fill="#8ebac5"/><ellipse cx="247.027" cy="389.41" fill="#fd5426" rx="24.641" ry="24.641" transform="matrix(.707 -.707 .707 .707 -203.002 288.73)"/></svg>