<svg id="Capa_1" enable-background="new 0 0 512 512" height="512" viewBox="0 0 512 512" width="512" xmlns="http://www.w3.org/2000/svg"><path d="m229.841 104.658h-82.104v-95.865c0-4.856 3.937-8.793 8.793-8.793h64.517c4.856 0 8.793 3.937 8.793 8.793v95.865z" fill="#9e5528"/><path d="m229.839 8.789v95.866h-20.717v-95.866c0-4.847-3.942-8.789-8.799-8.789h20.727c4.858 0 8.789 3.942 8.789 8.789z" fill="#904d24"/><path d="m229.841 43.532h-82.104v-34.739c0-4.856 3.937-8.793 8.793-8.793h64.517c4.856 0 8.793 3.937 8.793 8.793v34.739z" fill="#fae2c0"/><path d="m229.839 8.789v34.744h-20.717v-34.744c0-4.847-3.942-8.789-8.799-8.789h20.727c4.858 0 8.789 3.942 8.789 8.789z" fill="#fece85"/><path d="m229.799 128.564v-42.429h-41.052-41.01v42.429c0 13.338-3.398 26.455-9.873 38.115l-21.388 38.513c-6.475 11.66-9.873 24.778-9.873 38.115v246.824h82.145.042 82.145v-246.823c0-13.338-3.398-26.455-9.873-38.115l-21.388-38.513c-6.477-11.661-9.875-24.778-9.875-38.116z" fill="#01998d"/><path d="m270.933 243.312v239.947h-164.335v-19.204h132.514c6.252 0 11.321-5.068 11.321-11.321v-210.296c0-13.338-3.396-26.449-9.87-38.11l-21.396-38.521c-6.473-11.66-9.87-24.772-9.87-38.11v-41.557h20.501v42.422c0 13.338 3.396 26.46 9.88 38.12l21.386 38.511c6.473 11.66 9.869 24.781 9.869 38.119z" fill="#008b81"/><path d="m261.057 205.192-10.503-18.912-61.774 21.181-61.802-21.19-10.503 18.921c-2.927 5.279-5.233 10.873-6.872 16.643l79.167 26.368v.009h.019v-.009l79.149-26.358c-1.63-5.78-3.936-11.364-6.881-16.653z" fill="#fdb441"/><path d="m229.69 427.305h-81.844c-4.97 0-9-4.029-9-9v-102.745c0-4.97 4.029-9 9-9h81.844c4.97 0 9 4.029 9 9v102.745c0 4.97-4.029 9-9 9z" fill="#fae2c0"/><path d="m238.69 315.559v102.751c0 4.971-4.024 8.995-8.995 8.995h-81.849c-4.971 0-8.995-4.024-8.995-8.995v-13.461c1.081.607 2.336.957 3.664.957h68.037c4.137 0 7.482-3.345 7.482-7.482v-85.409c0-2.686-1.41-5.033-3.53-6.35h15.19c4.972-.001 8.996 4.023 8.996 8.994z" fill="#fece85"/><circle cx="188.768" cy="223.046" fill="#fae2c0" r="36.775"/><path d="m325.799 247.902h-70.997c-2.716 0-4.773 2.451-4.302 5.126l11.413 64.81c2.927 16.623 14.753 30.292 30.782 35.58l18.744 6.183c9.326 3.077 19.394 3.077 28.721 0l18.744-6.183c16.029-5.288 27.855-18.957 30.782-35.58l11.413-64.81c.471-2.674-1.587-5.126-4.302-5.126z" fill="#d8ecfe"/><path d="m401.097 253.024-11.416 64.815c-2.925 16.625-14.752 30.293-30.777 35.575l-18.74 6.187c-9.333 3.072-19.403 3.072-28.725 0l-18.74-6.187c-10.28-3.388-18.824-10.217-24.401-19.055 1.515.694 3.083 1.315 4.693 1.841l18.74 6.187c9.323 3.072 19.392 3.072 28.725 0l18.74-6.187c16.025-5.293 27.852-18.961 30.787-35.585l9.28-52.715h17.53c2.715-.001 4.777 2.451 4.304 5.124z" fill="#b3dafe"/><path d="m340.996 459.53.106-109.229h-15.303-15.304l.106 109.229c.009 4.994-2.042 9.771-5.667 13.206l-11.57 10.96c-1.716 1.626-.566 4.514 1.798 4.514h30.637 30.637c2.364 0 3.515-2.888 1.798-4.514l-11.57-10.96c-3.626-3.434-5.676-8.212-5.668-13.206z" fill="#8ac9fe"/><path d="m356.431 488.213h-18.571c2.367 0 3.514-2.894 1.799-4.514l-11.574-10.964c-3.62-3.43-2.294-10.638-2.283-15.636v-106.798h15.298l-.105 109.229c-.011 4.998 2.041 9.775 5.671 13.205l11.564 10.964c1.715 1.621.568 4.514-1.799 4.514z" fill="#60b7ff"/><path d="m397.245 274.943-7.556 42.895c-2.93 16.624-14.755 30.29-30.791 35.581l-18.735 6.177c-9.329 3.084-19.4 3.084-28.729 0l-18.744-6.177c-16.027-5.291-27.852-18.957-30.781-35.581l-7.556-42.895c26.579 4.703 33.528 17.569 71.441 17.569 37.923 0 44.871-12.866 71.451-17.569z" fill="#fd4755"/><path d="m397.235 274.941c-1.144.203-3.291 18.685-3.568 20.262-1.583 8.986-2.541 18.445-5.039 27.235-.846 2.978-1.984 5.864-3.42 8.607-2.168 4.142-4.771 7.735-8.081 11.079-5.008 5.061-11.216 8.975-18.224 11.29-14.768 4.878-28.172 11.139-43.94 7.197-1.178-.295-2.357-.621-3.525-1.01-11.711-3.866-25.006-6.93-34.504-15.164-1.824-1.581-3.49-3.336-5.035-5.19-.878-1.053-2.517-4.39-3.601-4.888 1.515.694 3.083 1.315 4.693 1.841 4.375 1.43 8.798 2.72 13.269 3.816 2.302.564 4.617 1.078 6.945 1.532 7.654 1.494 15.486 1.992 23.272 1.633 2.269-.104 4.51-.248 6.77-.45 7.505-.67 14.636-2.241 21.865-4.537 3.546-1.127 6.941-2.788 9.894-5.063 11.309-8.712 13.768-25.515 16.074-38.568.712-4.027 1.409-8.057 2.092-12.089 7.039-2.914 14.204-5.786 24.063-7.533z" fill="#fb2b3a"/><path d="m467.694 512h-423.388c-3.719 0-6.733-3.014-6.733-6.733v-15.278c0-3.719 3.014-6.733 6.733-6.733h423.388c3.719 0 6.733 3.014 6.733 6.733v15.278c0 3.719-3.015 6.733-6.733 6.733z" fill="#596c76"/></svg>