<svg id="Capa_1" enable-background="new 0 0 512 512" height="512" viewBox="0 0 512 512" width="512" xmlns="http://www.w3.org/2000/svg"><g fill="#b1dbfc"><path d="m388.381 218.292c-4.267 0-7.726-3.459-7.726-7.726v-50.445c0-17.422-14.174-31.595-31.595-31.595h-76.876c-4.267 0-7.726-3.459-7.726-7.726 0-4.268 3.459-7.726 7.726-7.726h76.876c25.942 0 47.048 21.106 47.048 47.047v50.445c0 4.267-3.46 7.726-7.727 7.726z"/><path d="m233.552 402.981h-76.876c-25.942 0-47.048-21.106-47.048-47.047v-50.445c0-4.268 3.459-7.726 7.726-7.726s7.726 3.459 7.726 7.726v50.445c0 17.422 14.174 31.595 31.595 31.595h76.876c4.267 0 7.726 3.459 7.726 7.726.002 4.267-3.458 7.726-7.725 7.726z"/><path d="m364.788 210.751 20.44 25.946c1.32 1.675 3.859 1.675 5.179 0l20.44-25.946c1.704-2.163.163-5.337-2.59-5.337h-40.88c-2.753 0-4.293 3.174-2.589 5.337z"/><path d="m140.949 305.303-20.44-25.946c-1.32-1.675-3.859-1.675-5.179 0l-20.44 25.946c-1.704 2.163-.163 5.337 2.59 5.337h40.88c2.752 0 4.292-3.174 2.589-5.337z"/></g><path d="m119.908 2.759c-66.224 0-119.908 53.684-119.908 119.907 0 36.974 16.739 70.034 43.047 92.029l38.666-14.99 6.622 7.036c17.056 18.123 44.965 18.122 62.02 0l6.907-7.34 39.502 15.299c26.311-21.996 43.052-55.057 43.052-92.033 0-66.224-53.685-119.908-119.908-119.908z" fill="#4f67d2"/><path d="m162.898 10.704c-13.346-5.128-27.838-7.946-42.99-7.946-66.224.001-119.908 53.685-119.908 119.908 0 36.974 16.739 70.034 43.047 92.029l38.666-14.99 23.008-12.654c-11.864-18.599-18.74-40.689-18.74-64.385 0-51.071 31.932-94.677 76.917-111.962z" fill="#324ccc"/><path d="m87.26 204.976c17.637 18.74 46.496 18.739 64.132 0l6.802-7.229-9.562-3.703c-2.29-.886-3.799-3.089-3.799-5.544v-18.881c-15.597 10.759-35.767 9.703-49.919.661v18.006c0 2.584-1.588 4.902-3.997 5.837l-10.164 3.94z" fill="#ffbd86"/><path d="m119.908 177.367c-8.961.061-17.763-2.468-24.995-7.088v18.006c0 2.584-1.588 4.902-3.997 5.837l-10.164 3.94 6.507 6.914c5.163 5.485 11.29 9.352 17.812 11.626l8.823-5.412c3.736-2.292 6.013-6.36 6.013-10.743v-23.08z" fill="#f6a96c"/><path d="m119.908 242.574c30.017 0 57.458-11.03 78.491-29.257l-41.136-15.932-6.907 7.34c-17.055 18.122-44.964 18.123-62.02.001l-6.622-7.036-40.299 15.623c21.032 18.23 48.474 29.261 78.493 29.261z" fill="#23a8fe"/><path d="m105.91 216.089c-6.438-2.181-12.49-5.96-17.575-11.362l-6.622-7.036-40.299 15.623c10.217 8.854 21.949 16.004 34.751 21.023z" fill="#0193fa"/><path d="m162.857 101.393c6.165.061 12.517 2.577 16.22 6.539v-22.232c0-32.99-26.742-59.733-59.733-59.733s-59.733 26.743-59.733 59.733v22.594c3.904-4.216 9.497-6.965 15.335-7.416.453-1.896 2.225-3.267 4.244-3.113 23.095 1.659 46.598-5.679 64.369-17.289 1.659-1.084 3.856-.815 5.204.635 15.193 16.331 14.094 15.699 14.094 17.831z" fill="#685e68"/><path d="m89.841 85.7c0-27.768 18.947-51.106 44.618-57.8-4.828-1.259-9.892-1.933-15.115-1.933-32.99 0-59.733 26.743-59.733 59.733v22.594c3.904-4.216 9.496-6.965 15.335-7.416.453-1.896 2.225-3.267 4.244-3.113 3.549.255 7.105.274 10.651.121z" fill="#544e55"/><path d="m163.47 99.378v36.115c0 1.504-.078 2.99-.229 4.456 12.172 0 21.245-9.204 21.245-20.286 0-11.041-8.977-20.169-21.016-20.285z" fill="#ffbd86"/><path d="m75.257 135.493v-35.685c0-.327.047-.641.121-.944-11.011.832-21.173 9.51-21.173 20.789 0 11.25 9.068 20.647 21.37 20.954-.203-1.689-.318-3.395-.318-5.114z" fill="#f6a96c"/><path d="m148.763 79.096c-1.348-1.449-3.545-1.719-5.204-.634-17.771 11.609-41.274 18.947-64.369 17.288-2.342-.177-4.363 1.691-4.363 4.058v35.685c0 22.935 17.971 43.883 45.154 43.883 24.198 0 43.884-19.686 43.884-43.883v-38.566c-.001-2.132.091-1.5-15.102-17.831z" fill="#fed2a4"/><path d="m105.056 135.493v-41.431c-8.463 1.665-17.193 2.311-25.866 1.688-2.343-.177-4.363 1.691-4.363 4.058v35.685c0 22.935 17.971 43.883 45.154 43.883 5.137 0 10.067-.895 14.653-2.525-18.255-6.223-29.578-23.159-29.578-41.358z" fill="#ffbd86"/><path d="m392.092 269.426c-66.223 0-119.908 53.685-119.908 119.908 0 36.974 16.739 70.034 43.047 92.029l38.666-14.99 6.622 7.036c17.056 18.123 44.965 18.122 62.02 0l6.907-7.34 39.502 15.299c26.311-21.997 43.052-55.059 43.052-92.034 0-66.224-53.685-119.908-119.908-119.908z" fill="#fee55a"/><path d="m435.082 277.372c-13.346-5.128-27.838-7.946-42.99-7.946-66.223 0-119.908 53.685-119.908 119.908 0 36.974 16.739 70.034 43.047 92.029l38.666-14.99 23.008-12.654c-11.864-18.599-18.74-40.689-18.74-64.385 0-51.072 31.932-94.678 76.917-111.962z" fill="#ffd301"/><path d="m359.444 471.643c17.637 18.74 46.496 18.739 64.132 0l6.802-7.229-9.562-3.703c-2.29-.886-3.799-3.089-3.799-5.544v-18.881c-15.597 10.759-35.767 9.703-49.919.661v18.006c0 2.584-1.587 4.902-3.997 5.837l-10.164 3.94z" fill="#ffbd86"/><path d="m392.092 444.035c-8.961.061-17.763-2.468-24.995-7.088v18.006c0 2.584-1.587 4.902-3.997 5.837l-10.164 3.94 6.507 6.914c5.163 5.485 11.29 9.352 17.812 11.626l8.823-5.412c3.736-2.292 6.013-6.36 6.013-10.743v-23.08z" fill="#f6a96c"/><path d="m392.092 509.241c30.017 0 57.458-11.03 78.491-29.257l-41.136-15.932-6.907 7.34c-17.055 18.122-44.964 18.123-62.02.001l-6.622-7.036-40.299 15.623c21.032 18.23 48.474 29.261 78.493 29.261z" fill="#23a8fe"/><path d="m378.094 482.756c-6.438-2.181-12.49-5.96-17.575-11.362l-6.622-7.036-40.299 15.623c10.217 8.854 21.949 16.004 34.751 21.023z" fill="#0193fa"/><path d="m435.041 368.061c6.165.061 12.517 2.577 16.221 6.539v-22.232c0-32.991-26.742-59.733-59.733-59.733s-59.733 26.743-59.733 59.733v22.594c3.904-4.216 9.497-6.965 15.335-7.416.453-1.896 2.225-3.267 4.244-3.113 23.095 1.659 46.598-5.679 64.369-17.289 1.659-1.084 3.856-.815 5.204.635 15.193 16.331 14.094 15.699 14.094 17.831v2.451z" fill="#685e68"/><path d="m362.025 352.367c0-27.768 18.947-51.106 44.618-57.8-4.828-1.259-9.892-1.933-15.115-1.933-32.99 0-59.733 26.743-59.733 59.733v22.594c3.904-4.216 9.496-6.965 15.335-7.416.453-1.896 2.225-3.267 4.244-3.113 3.549.255 7.105.274 10.651.121z" fill="#544e55"/><path d="m435.654 366.045v36.115c0 1.504-.078 2.99-.229 4.456 12.172 0 21.245-9.204 21.245-20.286 0-11.041-8.977-20.169-21.016-20.285z" fill="#ffbd86"/><path d="m347.441 402.16v-35.685c0-.327.047-.641.121-.944-11.011.832-21.173 9.51-21.173 20.789 0 11.25 9.068 20.647 21.37 20.954-.203-1.689-.318-3.394-.318-5.114z" fill="#f6a96c"/><path d="m420.947 345.763c-1.348-1.449-3.545-1.719-5.204-.634-17.771 11.609-41.274 18.948-64.369 17.289-2.342-.177-4.363 1.691-4.363 4.058v35.685c0 22.935 17.971 43.883 45.154 43.883 24.198 0 43.884-19.686 43.884-43.883v-38.566c-.001-2.133.091-1.501-15.102-17.832z" fill="#fed2a4"/><path d="m377.24 402.161v-41.431c-8.463 1.664-17.193 2.311-25.866 1.688-2.342-.177-4.363 1.691-4.363 4.058v35.685c0 22.935 17.971 43.883 45.154 43.883 5.137 0 10.067-.895 14.653-2.525-18.255-6.224-29.578-23.159-29.578-41.358z" fill="#ffbd86"/></svg>