<svg id="Capa_1" enable-background="new 0 0 512 512" height="512" viewBox="0 0 512 512" width="512" xmlns="http://www.w3.org/2000/svg"><path d="m512 118.033h-512v-73.252c0-5.523 4.477-10 10-10h492c5.523 0 10 4.477 10 10z" fill="#fb636f"/><path d="m502 510.52h-492c-5.523 0-10-4.477-10-10v-382.486h512v382.486c0 5.523-4.477 10-10 10z" fill="#fceed9"/><path d="m263.691 1.48h-15.382c-5.523 0-10 4.477-10 10v54.927c0 5.523 4.477 10 10 10h15.382c5.523 0 10-4.477 10-10v-54.927c0-5.523-4.477-10-10-10z" fill="#e3dfe2"/><path d="m150.488 1.48h15.382c5.523 0 10 4.477 10 10v54.927c0 5.523-4.477 10-10 10h-15.382c-5.523 0-10-4.477-10-10v-54.927c0-5.523 4.477-10 10-10z" fill="#e3dfe2"/><path d="m52.667 1.48h15.382c5.523 0 10 4.477 10 10v54.927c0 5.523-4.477 10-10 10h-15.382c-5.523 0-10-4.477-10-10v-54.927c0-5.523 4.477-10 10-10z" fill="#e3dfe2"/><path d="m361.512 1.48h-15.382c-5.523 0-10 4.477-10 10v54.927c0 5.523 4.477 10 10 10h15.382c5.523 0 10-4.477 10-10v-54.927c0-5.523-4.477-10-10-10z" fill="#e3dfe2"/><path d="m459.333 1.48h-15.382c-5.523 0-10 4.477-10 10v54.927c0 5.523 4.477 10 10 10h15.382c5.523 0 10-4.477 10-10v-54.927c0-5.523-4.477-10-10-10z" fill="#e3dfe2"/><g fill="#786e79"><path d="m106.181 235.12h-57.677c-5.523 0-10-4.477-10-10v-57.677c0-5.523 4.477-10 10-10h57.677c5.523 0 10 4.477 10 10v57.677c0 5.522-4.477 10-10 10z"/><path d="m225.286 235.12h-57.677c-5.523 0-10-4.477-10-10v-57.677c0-5.523 4.477-10 10-10h57.677c5.523 0 10 4.477 10 10v57.677c0 5.522-4.477 10-10 10z"/><path d="m344.391 235.12h-57.677c-5.523 0-10-4.477-10-10v-57.677c0-5.523 4.477-10 10-10h57.677c5.523 0 10 4.477 10 10v57.677c0 5.522-4.477 10-10 10z"/><path d="m463.496 235.12h-57.677c-5.523 0-10-4.477-10-10v-57.677c0-5.523 4.477-10 10-10h57.677c5.523 0 10 4.477 10 10v57.677c0 5.522-4.478 10-10 10z"/><path d="m106.181 351.635h-57.677c-5.523 0-10-4.477-10-10v-57.677c0-5.523 4.477-10 10-10h57.677c5.523 0 10 4.477 10 10v57.677c0 5.523-4.477 10-10 10z"/><path d="m225.286 351.635h-57.677c-5.523 0-10-4.477-10-10v-57.677c0-5.523 4.477-10 10-10h57.677c5.523 0 10 4.477 10 10v57.677c0 5.523-4.477 10-10 10z"/><path d="m344.391 351.635h-57.677c-5.523 0-10-4.477-10-10v-57.677c0-5.523 4.477-10 10-10h57.677c5.523 0 10 4.477 10 10v57.677c0 5.523-4.477 10-10 10z"/><path d="m106.181 468.151h-57.677c-5.523 0-10-4.477-10-10v-57.677c0-5.523 4.477-10 10-10h57.677c5.523 0 10 4.477 10 10v57.677c0 5.523-4.477 10-10 10z"/><path d="m225.286 468.151h-57.677c-5.523 0-10-4.477-10-10v-57.677c0-5.523 4.477-10 10-10h57.677c5.523 0 10 4.477 10 10v57.677c0 5.523-4.477 10-10 10z"/><path d="m344.391 468.151h-57.677c-5.523 0-10-4.477-10-10v-57.677c0-5.523 4.477-10 10-10h57.677c5.523 0 10 4.477 10 10v57.677c0 5.523-4.477 10-10 10z"/><path d="m463.496 468.151h-57.677c-5.523 0-10-4.477-10-10v-57.677c0-5.523 4.477-10 10-10h57.677c5.523 0 10 4.477 10 10v57.677c0 5.523-4.478 10-10 10z"/></g><path d="m463.496 351.635h-57.677c-5.523 0-10-4.477-10-10v-57.677c0-5.523 4.477-10 10-10h57.677c5.523 0 10 4.477 10 10v57.677c0 5.523-4.478 10-10 10z" fill="#fb636f"/><path d="m445.585 312.796 33.375-33.375c3.017-3.018 3.017-7.909 0-10.928-3.018-3.016-7.909-3.016-10.928 0l-33.375 33.375-33.375-33.375c-3.018-3.016-7.909-3.016-10.928 0-3.017 3.018-3.017 7.909 0 10.928l33.375 33.375-33.375 33.375c-3.017 3.018-3.017 7.909 0 10.928 1.509 1.508 3.487 2.263 5.464 2.263s3.955-.755 5.464-2.263l33.375-33.375 33.375 33.375c1.509 1.508 3.487 2.263 5.464 2.263s3.955-.755 5.464-2.263c3.017-3.018 3.017-7.909 0-10.928z" fill="#fa4954"/><path d="m502 34.781h-9.72v53.125c0 5.747-4.659 10.406-10.406 10.406h-481.874v19.72h512v-73.251c0-5.523-4.477-10-10-10z" fill="#fa4954"/><path d="m488.117 118.034v392.486h13.883c5.523 0 10-4.477 10-10v-382.486z" fill="#fcddaf"/></svg>