<?xml version="1.0" encoding="iso-8859-1"?>
<!-- Generator: Adobe Illustrator 19.0.0, SVG Export Plug-In . SVG Version: 6.00 Build 0)  -->
<svg version="1.1" id="Layer_1" xmlns="http://www.w3.org/2000/svg" xmlns:xlink="http://www.w3.org/1999/xlink" x="0px" y="0px"
	 viewBox="0 0 512 512" style="enable-background:new 0 0 512 512;" xml:space="preserve">
<path style="fill:#B79363;" d="M300.962,442.715c0-36.533,29.613-66.149,66.146-66.149c13.732,0,26.486,4.186,37.057,11.35V71.583
	c0-2.964-2.425-5.39-5.39-5.39H80.992c-2.964,0-5.39,2.425-5.39,5.39v403.351c0,2.964,2.425,5.39,5.39,5.39h231.711
	C305.306,469.644,300.962,456.689,300.962,442.715z"/>
<path style="opacity:0.1;enable-background:new    ;" d="M98.817,474.934V71.583c0-2.964,2.425-5.39,5.39-5.39H80.992
	c-2.964,0-5.39,2.425-5.39,5.39v403.351c0,2.964,2.425,5.39,5.39,5.39h23.216C101.243,480.324,98.817,477.899,98.817,474.934z"/>
<path style="fill:#FFF9F3;" d="M300.962,442.715c0-36.111,28.937-65.443,64.887-66.117v-274.38c0-2.961-2.423-5.384-5.383-5.384
	H119.303c-2.961,0-5.383,2.422-5.383,5.384v335.827c0,2.96,2.422,5.384,5.383,5.384h181.678
	C300.978,443.191,300.962,442.955,300.962,442.715z"/>
<path style="opacity:0.1;enable-background:new    ;" d="M137.428,438.045V102.218c0-2.961,2.423-5.384,5.383-5.384h-23.508
	c-2.961,0-5.383,2.422-5.383,5.384v335.827c0,2.96,2.422,5.384,5.383,5.384h23.509C139.852,443.43,137.428,441.007,137.428,438.045z
	"/>
<path style="fill:#FFCB00;" d="M113.918,357.888v80.157c0,2.96,2.422,5.384,5.383,5.384h80.154L113.918,357.888z"/>
<path style="fill:#E5AE00;" d="M289.684,61.999c0.833-3.629,1.284-7.402,1.284-11.281C290.969,22.707,268.097,0,239.884,0
	c-28.212,0-51.085,22.707-51.085,50.718c0,3.879,0.455,7.652,1.285,11.281H289.684z"/>
<path style="fill:#72563C;" d="M256.718,61.999c2.194-3.22,3.475-7.101,3.475-11.281c0-11.137-9.093-20.165-20.311-20.165
	c-11.218,0-20.311,9.029-20.311,20.165c0,4.18,1.282,8.06,3.475,11.281H256.718z"/>
<circle style="fill:#35D34F;" cx="367.111" cy="442.713" r="69.287"/>
<path style="opacity:0.1;enable-background:new    ;" d="M321.155,442.715c0-34.286,24.91-62.739,57.617-68.287
	c-3.794-0.644-7.685-0.997-11.663-0.997c-38.264,0-69.281,31.02-69.281,69.284c0,38.265,31.017,69.285,69.281,69.285
	c3.978,0,7.869-0.353,11.663-0.997C346.065,505.455,321.155,477.002,321.155,442.715z"/>
<path style="fill:#00752C;" d="M360.902,472.966c-3.538,0.001-6.859-1.373-9.353-3.868l-21.022-21.02
	c-3.062-3.06-3.062-8.023-0.001-11.083c3.062-3.06,8.024-3.06,11.083-0.001l19.293,19.291l31.704-31.707
	c3.062-3.062,8.024-3.062,11.082-0.001c3.062,3.06,3.062,8.023,0.001,11.082l-33.435,33.439
	C367.761,471.592,364.439,472.966,360.902,472.966z"/>
<path style="fill:#FFCB00;" d="M327.489,103.946c0,2.964-2.425,5.39-5.39,5.39h-164.43c-2.964,0-5.39-2.425-5.39-5.39v-43.53
	c0-2.964,2.425-5.39,5.39-5.39H322.1c2.964,0,5.39,2.425,5.39,5.39V103.946z"/>
<path style="opacity:0.1;enable-background:new    ;" d="M172.404,103.946v-43.53c0-2.964,2.425-5.39,5.39-5.39h-20.126
	c-2.964,0-5.39,2.425-5.39,5.39v43.53c0,2.964,2.425,5.39,5.39,5.39h20.126C174.83,109.335,172.404,106.91,172.404,103.946z"/>
<path style="fill:#00A9FF;" d="M189.498,185.994c0,1.186-0.971,2.156-2.157,2.156h-25.921c-1.186,0-2.157-0.97-2.157-2.156V160.29
	c0-1.186,0.971-2.156,2.157-2.156h25.921c1.186,0,2.157,0.97,2.157,2.156L189.498,185.994L189.498,185.994z"/>
<path style="fill:#BFBFBF;" d="M315.033,180.978h-99.512c-4.329,0-7.837-3.509-7.837-7.837c0-4.328,3.508-7.837,7.837-7.837h99.512
	c4.329,0,7.837,3.509,7.837,7.837C322.87,177.47,319.362,180.978,315.033,180.978z"/>
<path style="fill:#76D8FF;" d="M189.498,244.147c0,1.186-0.971,2.156-2.157,2.156h-25.921c-1.186,0-2.157-0.97-2.157-2.156v-25.703
	c0-1.186,0.971-2.156,2.157-2.156h25.921c1.186,0,2.157,0.97,2.157,2.156L189.498,244.147L189.498,244.147z"/>
<path style="fill:#BFBFBF;" d="M315.033,239.131h-99.512c-4.329,0-7.837-3.509-7.837-7.837c0-4.328,3.508-7.837,7.837-7.837h99.512
	c4.329,0,7.837,3.509,7.837,7.837C322.87,235.623,319.362,239.131,315.033,239.131z"/>
<path style="fill:#00A9FF;" d="M189.498,302.299c0,1.186-0.971,2.156-2.157,2.156h-25.921c-1.186,0-2.157-0.97-2.157-2.156v-25.703
	c0-1.186,0.971-2.156,2.157-2.156h25.921c1.186,0,2.157,0.971,2.157,2.156L189.498,302.299L189.498,302.299z"/>
<path style="fill:#BFBFBF;" d="M315.033,297.284h-99.512c-4.329,0-7.837-3.509-7.837-7.837s3.508-7.837,7.837-7.837h99.512
	c4.329,0,7.837,3.509,7.837,7.837S319.362,297.284,315.033,297.284z"/>
<path style="fill:#76D8FF;" d="M189.498,360.451c0,1.186-0.971,2.156-2.157,2.156h-25.921c-1.186,0-2.157-0.97-2.157-2.156v-25.703
	c0-1.186,0.971-2.156,2.157-2.156h25.921c1.186,0,2.157,0.97,2.157,2.156L189.498,360.451L189.498,360.451z"/>
<path style="fill:#BFBFBF;" d="M315.033,355.437h-99.512c-4.329,0-7.837-3.509-7.837-7.837s3.508-7.837,7.837-7.837h99.512
	c4.329,0,7.837,3.509,7.837,7.837S319.362,355.437,315.033,355.437z"/>
<path style="fill:#E5AE00;" d="M256.89,90.017h-34.011c-4.329,0-7.837-3.509-7.837-7.837s3.508-7.837,7.837-7.837h34.011
	c4.329,0,7.837,3.509,7.837,7.837C264.726,86.509,261.218,90.017,256.89,90.017z"/>
<g>
</g>
<g>
</g>
<g>
</g>
<g>
</g>
<g>
</g>
<g>
</g>
<g>
</g>
<g>
</g>
<g>
</g>
<g>
</g>
<g>
</g>
<g>
</g>
<g>
</g>
<g>
</g>
<g>
</g>
</svg>
