<?xml version="1.0" encoding="UTF-8" standalone="no"?>
<svg
   xmlns:dc="http://purl.org/dc/elements/1.1/"
   xmlns:cc="http://creativecommons.org/ns#"
   xmlns:rdf="http://www.w3.org/1999/02/22-rdf-syntax-ns#"
   xmlns:svg="http://www.w3.org/2000/svg"
   xmlns="http://www.w3.org/2000/svg"
   xmlns:sodipodi="http://sodipodi.sourceforge.net/DTD/sodipodi-0.dtd"
   xmlns:inkscape="http://www.inkscape.org/namespaces/inkscape"
   viewBox="0 -57 512 512"
   version="1.1"
   id="svg26"
   sodipodi:docname="037-video-call.svg"
   inkscape:version="0.92.3 (2405546, 2018-03-11)">
  <metadata
     id="metadata32">
    <rdf:RDF>
      <cc:Work
         rdf:about="">
        <dc:format>image/svg+xml</dc:format>
        <dc:type
           rdf:resource="http://purl.org/dc/dcmitype/StillImage" />
      </cc:Work>
    </rdf:RDF>
  </metadata>
  <defs
     id="defs30" />
  <sodipodi:namedview
     pagecolor="#ffffff"
     bordercolor="#666666"
     borderopacity="1"
     objecttolerance="10"
     gridtolerance="10"
     guidetolerance="10"
     inkscape:pageopacity="0"
     inkscape:pageshadow="2"
     inkscape:window-width="2496"
     inkscape:window-height="1372"
     id="namedview28"
     showgrid="false"
     inkscape:zoom="1.7212693"
     inkscape:cx="414.16142"
     inkscape:cy="273.4509"
     inkscape:window-x="64"
     inkscape:window-y="32"
     inkscape:window-maximized="1"
     inkscape:current-layer="svg26"
     showguides="false" />
  <path
     d="m488.917969 356.371094h-465.835938v-280.085938c0-24.214844 19.628907-43.84375 43.84375-43.84375h378.148438c24.214843 0 43.84375 19.628906 43.84375 43.84375zm0 0"
     fill="#5b5c6c"
     id="path2" />
  <path
     d="m454.011719 356.371094h-396.023438v-277.667969c0-6.125 4.964844-11.089844 11.089844-11.089844h373.839844c6.125 0 11.089843 4.964844 11.089843 11.089844v277.667969zm0 0"
     id="path4"
     fill="#b9ebff"
     style="fill:#b8eafd;fill-opacity:1" />
  <path
     d="m442.921875 67.613281h-23.28125v65.082031c0 104.65625-84.78125 189.496094-189.363281 189.496094h-172.285156v34.179688h396.019531v-277.660156c-.003907-6.128907-4.964844-11.097657-11.089844-11.097657zm0 0"
     fill="#a0dcf0"
     id="path6" />
  <path
     d="m475.734375 398.867188h-439.46875c-20.03125 0-36.265625-16.234376-36.265625-36.265626v-12.78125c0-1.90625 1.546875-3.449218 3.449219-3.449218h505.101562c1.902344 0 3.449219 1.542968 3.449219 3.449218v12.78125c0 20.03125-16.234375 36.265626-36.265625 36.265626zm0 0"
     fill="#e4eaf7"
     id="path8"
     style="fill:#d0d6e3;fill-opacity:1" />
  <path
     d="m508.550781 346.371094h-57.992187c1.90625 0 3.449218 1.542968 3.449218 3.449218v12.769532c0 20.035156-16.230468 36.277344-36.25 36.277344h57.988282c20.023437 0 36.253906-16.242188 36.253906-36.277344v-12.769532c0-1.90625-1.542969-3.449218-3.449219-3.449218zm0 0"
     fill="#d7deed"
     id="path10"
     style="fill:#c3cad9;fill-opacity:1" />
  <g
     id="g822"
     transform="matrix(1.3644066,0,0,1.4643565,-86.646603,-76.643729)">
    <path
       inkscape:connector-curvature="0"
       style="fill:#00b02f;fill-opacity:1;stroke-width:0.73336434"
       id="path18"
       d="m 273.81533,217.80705 h -76.75689 c -4.24549,0 -7.68886,-3.44337 -7.68886,-7.686 V 154.1791 c 0,-4.24549 3.44337,-7.686 7.68886,-7.686 h 76.75689 c 4.2455,0 7.68599,3.44051 7.68599,7.686 v 55.94195 c 0,4.24549 -3.44049,7.686 -7.68599,7.686 z m 0,0" />
    <path
       inkscape:connector-curvature="0"
       style="fill:#009425;fill-opacity:1;stroke-width:0.73336434"
       id="path20"
       d="m 312.29117,210.37314 -30.78985,-9.05533 v -38.37844 l 30.78985,-9.01236 c 0.71618,-0.21199 1.43235,0.32657 1.43235,1.07139 v 54.30335 c 0,0.74482 -0.71617,1.28051 -1.43235,1.07139 z m 0,0" />
  </g>
  <g
     id="g826"
     transform="matrix(1.558512,0,0,1.558512,-155.38488,-107.80751)">
    <path
       id="path2-3"
       d="m 286.94879,242.30372 -29.64208,-32.07076 c -0.46437,-0.50238 -1.17832,-0.68874 -1.82891,-0.47781 l -0.004,0.001 0.002,-5.1e-4 21.15712,65.2259 c 2.36226,-0.76617 3.65589,-3.30224 2.88972,-5.66449 l -7.3384,-22.6238 13.6627,-1.45581 c 1.43392,-0.15282 2.08067,-1.87498 1.1019,-2.934 z"
       style="fill:#e73518;fill-opacity:1;stroke-width:0.12799381"
       inkscape:connector-curvature="0" />
    <path
       id="path4-6"
       d="m 255.47371,209.75643 c -0.6506,0.21107 -1.11931,0.78115 -1.20033,1.46029 l -5.17377,43.36391 c -0.17087,1.432 1.36378,2.4466 2.61428,1.72856 l 11.91597,-6.84089 7.33852,22.6238 c 0.76617,2.36213 3.30224,3.65602 5.66449,2.88972 l -21.15712,-65.22603 z"
       style="fill:#ff4655;fill-opacity:1;stroke-width:0.12799381"
       inkscape:connector-curvature="0" />
  </g>
</svg>
