<?xml version="1.0" encoding="UTF-8" standalone="no"?>
<svg
   xmlns:dc="http://purl.org/dc/elements/1.1/"
   xmlns:cc="http://creativecommons.org/ns#"
   xmlns:rdf="http://www.w3.org/1999/02/22-rdf-syntax-ns#"
   xmlns:svg="http://www.w3.org/2000/svg"
   xmlns="http://www.w3.org/2000/svg"
   xmlns:sodipodi="http://sodipodi.sourceforge.net/DTD/sodipodi-0.dtd"
   xmlns:inkscape="http://www.inkscape.org/namespaces/inkscape"
   height="511pt"
   viewBox="0 -8 511.95602 511"
   width="511pt"
   version="1.1"
   id="svg16"
   sodipodi:docname="available.svg"
   inkscape:version="0.92.3 (2405546, 2018-03-11)">
  <metadata
     id="metadata22">
    <rdf:RDF>
      <cc:Work
         rdf:about="">
        <dc:format>image/svg+xml</dc:format>
        <dc:type
           rdf:resource="http://purl.org/dc/dcmitype/StillImage" />
      </cc:Work>
    </rdf:RDF>
  </metadata>
  <defs
     id="defs20" />
  <sodipodi:namedview
     pagecolor="#ffffff"
     bordercolor="#666666"
     borderopacity="1"
     objecttolerance="10"
     gridtolerance="10"
     guidetolerance="10"
     inkscape:pageopacity="0"
     inkscape:pageshadow="2"
     inkscape:window-width="1853"
     inkscape:window-height="1025"
     id="namedview18"
     showgrid="false"
     inkscape:zoom="0.34637965"
     inkscape:cx="340.66667"
     inkscape:cy="340.66667"
     inkscape:window-x="67"
     inkscape:window-y="27"
     inkscape:window-maximized="1"
     inkscape:current-layer="svg16" />
  <path
     d="m 463.94794,287.41822 c 0,114.54424 -92.86177,207.406 -207.406,207.406 -114.54424,0 -207.406026,-92.86176 -207.406026,-207.406 0,-114.54996 92.861786,-207.405999 207.406026,-207.405999 114.54423,0 207.406,92.856039 207.406,207.405999 z m 0,0"
     id="path6"
     inkscape:connector-curvature="0"
     style="fill:#14a085;stroke-width:1.4684422" />
  <path
     d="m 226.3012,404.08481 c -2.96556,-0.006 -5.83934,-1.02102 -8.14525,-2.87953 L 157.663,352.414 c -5.57549,-4.4971 -6.44737,-12.65957 -1.95027,-18.23507 4.49136,-5.56976 12.65385,-6.44737 18.22933,-1.95027 l 48.76835,39.33245 113.36832,-194.32767 c 2.16252,-4.30208 6.5277,-7.05541 11.34602,-7.14146 4.81259,-0.0918 9.28101,2.4952 11.59839,6.71125 2.32312,4.22177 2.11089,9.37853 -0.53918,13.39379 l -120.98588,207.406 c -1.90438,3.25811 -5.13955,5.52387 -8.8508,6.20646 -0.77439,0.17209 -1.56022,0.25812 -2.34608,0.27533 z m 0,0"
     id="path8"
     inkscape:connector-curvature="0"
     style="fill:#ffffff;stroke-width:1.4684422" />
  <path
     style="fill:#f0c419"
     inkscape:connector-curvature="0"
     id="path10"
     d="M 233.77346,-4.8681648 246.25392,17.959961 269.08205,30.444335 246.25392,42.924804 233.77346,65.752929 221.28908,42.924804 198.46096,30.444335 221.28908,17.959961 Z m 0,0" />
  <path
     style="fill:#f0c419"
     inkscape:connector-curvature="0"
     id="path12"
     d="M 105.698,45.93128 118.17847,68.759406 141.0066,81.239874 118.17847,93.720348 105.698,116.54847 93.217542,93.720348 70.389412,81.239874 93.217542,68.759406 Z m 0,0" />
  <path
     style="fill:#f0c419;stroke-width:1"
     inkscape:connector-curvature="0"
     id="path10-0"
     d="m 475.23684,73.353926 12.48046,22.828125 22.82813,12.484379 -22.82813,12.48046 -12.48046,22.82813 -12.48438,-22.82813 -22.82812,-12.48046 22.82812,-12.484379 z m 0,0" />
  <path
     style="fill:#f0c419;stroke-width:1"
     inkscape:connector-curvature="0"
     id="path10-9"
     d="m 311.87245,76.529346 12.48046,22.828125 22.82813,12.484399 -22.82813,12.48046 -12.48046,22.82813 -12.48438,-22.82813 -22.82812,-12.48046 22.82812,-12.484399 z m 0,0" />
  <path
     style="fill:#f0c419;stroke-width:1"
     inkscape:connector-curvature="0"
     id="path10-6"
     d="m 395.78149,14.782685 12.48046,22.828125 22.82813,12.484374 -22.82813,12.48047 -12.48046,22.82812 -12.48438,-22.82812 -22.82812,-12.48047 22.82812,-12.484374 z m 0,0" />
</svg>
