<svg height="512" viewBox="0 0 512 512" width="512" xmlns="http://www.w3.org/2000/svg"><g id="Flat"><path d="m224 68v24a44 44 0 1 1 -88 0v-24a44 44 0 0 1 43.1-43.99c.3-.01.6-.01.9-.01a44.009 44.009 0 0 1 44 44z" fill="#fec9a3"/><path d="m224 68v24a44.028 44.028 0 0 1 -55.31 42.53 60.336 60.336 0 0 0 22.64-47.18v-26.88a60.174 60.174 0 0 0 -12.23-36.46c.3-.01.6-.01.9-.01a44.009 44.009 0 0 1 44 44z" fill="#fec093"/><path d="m462.04 215.94-30.04 40.06v48h-88v-41.75a8 8 0 0 0 -6.06-7.76l-5.83-1.46a26.559 26.559 0 0 1 -20.11-25.76 26.907 26.907 0 0 1 .79-6.44l2.8-11.2 3.89-15.57.52-2.06-16-24 32-16 1.51-5.28a69.939 69.939 0 0 1 136.23 7.72l1.34 8.04a69.941 69.941 0 0 1 -13.04 53.46z" fill="#fec9a3"/><path d="m351.668 199.337a7.99 7.99 0 0 1 -4.863 11.253 50.588 50.588 0 0 1 -14.065 2 51.113 51.113 0 0 1 -16.24-2.66l-.91-.3 3.89-15.57 2.08.69a34.869 34.869 0 0 0 20.83.455 7.947 7.947 0 0 1 9.278 4.132z" fill="#f7a468"/><path d="m78.689 154.765a45.73 45.73 0 0 0 -22.689 39.502 45.733 45.733 0 0 0 45.733 45.733h5.151a45.737 45.737 0 0 0 24.238-6.951l13.349-8.343-51.991-77.986z" fill="#e0e0de"/><path d="m158.81 112a25.189 25.189 0 0 0 -12.692 3.431l-53.638 31.289 51.991 77.986 13.209-8.256a56 56 0 0 0 26.32-47.488v-31.772a25.19 25.19 0 0 0 -25.19-25.19z" fill="#45a7d1"/><path d="m184 72h16v16h-16z" fill="#92563a"/><path d="m104 216v26.334a48 48 0 0 1 -26.534 42.933l-21.466 10.733-4.821 14.463a13.947 13.947 0 0 1 -13.232 9.537 13.947 13.947 0 0 1 -13.947-13.947v-34.053l32-24v-32a24 24 0 0 1 24-24 24 24 0 0 1 24 24z" fill="#fec9a3"/><path d="m344 304-56 184h144l18.787-79.845a132.894 132.894 0 0 0 -18.787-104.155z" fill="#e64d40"/><path d="m232 264-64-128-40 16 57.536 165.416a40 40 0 0 0 25.131 24.806l85.214 28.405 28.287-80.82z" fill="#fec093"/><path d="m324.168 289.807-28.287 80.82 81.761 27.254a41.318 41.318 0 0 0 13.058 2.119 41.3 41.3 0 0 0 41.3-41.3v-7.379a41.3 41.3 0 0 0 -30.163-39.769z" fill="#f35244"/><path d="m184 184v-47.46c0-13.455-11.011-24.791-24.464-24.536a24 24 0 0 0 -23.536 23.996v38.311a48 48 0 0 0 21.374 39.939l24.539 16.359 25.044-31.309z" fill="#4db7e5"/><path d="m181.913 230.609 10.369 6.912a19.969 19.969 0 0 0 27.052-4.633 19.967 19.967 0 0 0 -4.9-28.6l-7.479-4.987z" fill="#fec9a3"/><path d="m488 160.88a82.816 82.816 0 0 1 -20.49 54.54l-35.51 40.58-9.46-37.84-6.54-26.16 2.56-1.28a19.677 19.677 0 1 0 -17.6-35.2l-8.96 4.48-5.29-13.22a35.547 35.547 0 0 1 13.29-42.78 27.3 27.3 0 0 1 -17.86-32.54l1.86-7.46 50.91 19.58a82.842 82.842 0 0 1 53.09 77.3z" fill="#7a432a"/><path d="m488 160.88a82.816 82.816 0 0 1 -20.49 54.54l-35.51 40.58-9.46-37.84c24.51-26.25 44.65-56.77 57.84-91.97a82.659 82.659 0 0 1 7.62 34.69z" fill="#6e3c26"/><path d="m352 152h16v16h-16z" fill="#7a432a"/></g></svg>