<?xml version="1.0" encoding="UTF-8" standalone="no"?>
<svg
   xmlns:dc="http://purl.org/dc/elements/1.1/"
   xmlns:cc="http://creativecommons.org/ns#"
   xmlns:rdf="http://www.w3.org/1999/02/22-rdf-syntax-ns#"
   xmlns:svg="http://www.w3.org/2000/svg"
   xmlns="http://www.w3.org/2000/svg"
   xmlns:sodipodi="http://sodipodi.sourceforge.net/DTD/sodipodi-0.dtd"
   xmlns:inkscape="http://www.inkscape.org/namespaces/inkscape"
   height="512pt"
   viewBox="0 -60 512 512"
   width="512pt"
   version="1.1"
   id="svg26"
   sodipodi:docname="forward.svg"
   inkscape:version="0.92.3 (2405546, 2018-03-11)">
  <metadata
     id="metadata32">
    <rdf:RDF>
      <cc:Work
         rdf:about="">
        <dc:format>image/svg+xml</dc:format>
        <dc:type
           rdf:resource="http://purl.org/dc/dcmitype/StillImage" />
      </cc:Work>
    </rdf:RDF>
  </metadata>
  <defs
     id="defs30" />
  <sodipodi:namedview
     pagecolor="#ffffff"
     bordercolor="#666666"
     borderopacity="1"
     objecttolerance="10"
     gridtolerance="10"
     guidetolerance="10"
     inkscape:pageopacity="0"
     inkscape:pageshadow="2"
     inkscape:window-width="1853"
     inkscape:window-height="1025"
     id="namedview28"
     showgrid="false"
     inkscape:zoom="0.34570313"
     inkscape:cx="341.33333"
     inkscape:cy="341.33333"
     inkscape:window-x="67"
     inkscape:window-y="27"
     inkscape:window-maximized="1"
     inkscape:current-layer="svg26" />
  <path
     d="m412.785156 103.289062h-400.378906c-6.851562 0-12.40625 5.554688-12.40625 12.40625v210.050782c0 6.851562 5.554688 12.40625 12.40625 12.40625h244.296875v43.339844c0 9.671874 11.695313 14.515624 18.535156 7.675781l51.015625-51.015625h86.53125c6.851563 0 12.40625-5.550782 12.40625-12.40625v-210.050782c-.003906-6.851562-5.554687-12.40625-12.40625-12.40625zm0 0"
     fill="#00c2f8"
     id="path2"
     style="fill:#dddddd;fill-opacity:1" />
  <g
     fill="#00abef"
     id="g20"
     style="fill:#999999;fill-opacity:1">
    <path
       d="m425.1875 115.695312v210.054688c0 6.851562-5.558594 12.402344-12.410156 12.402344h-24.601563c6.847657 0 12.398438-5.546875 12.398438-12.402344v-210.054688c0-6.851562-5.546875-12.402343-12.398438-12.402343h24.601563c6.851562 0 12.410156 5.546875 12.410156 12.402343zm0 0"
       id="path4"
       style="fill:#999999;fill-opacity:1" />
    <path
       d="m125.660156 286.171875h-62.230468c-4.265626 0-7.726563-3.457031-7.726563-7.726563 0-4.265624 3.460937-7.722656 7.726563-7.722656h62.230468c4.265625 0 7.726563 3.457032 7.726563 7.722656 0 4.269532-3.460938 7.726563-7.726563 7.726563zm0 0"
       id="path6"
       style="fill:#999999;fill-opacity:1" />
    <path
       d="m179.164062 286.171875h-16.019531c-4.269531 0-7.726562-3.457031-7.726562-7.726563 0-4.265624 3.460937-7.722656 7.726562-7.722656h16.019531c4.269532 0 7.726563 3.457032 7.726563 7.722656 0 4.269532-3.457031 7.726563-7.726563 7.726563zm0 0"
       id="path8"
       style="fill:#999999;fill-opacity:1" />
    <path
       d="m363.585938 249.222656h-300.15625c-4.265626 0-7.726563-3.460937-7.726563-7.726562 0-4.269532 3.460937-7.726563 7.726563-7.726563h300.15625c4.265624 0 7.726562 3.457031 7.726562 7.726563 0 4.265625-3.460938 7.726562-7.726562 7.726562zm0 0"
       id="path10"
       style="fill:#999999;fill-opacity:1" />
    <path
       d="m363.585938 286.171875h-146.9375c-4.265626 0-7.722657-3.457031-7.722657-7.726563 0-4.265624 3.457031-7.722656 7.722657-7.722656h146.9375c4.265624 0 7.726562 3.457032 7.726562 7.722656 0 4.269532-3.460938 7.726563-7.726562 7.726563zm0 0"
       id="path12"
       style="fill:#999999;fill-opacity:1" />
    <path
       d="m153.363281 209.972656h-89.933593c-4.265626 0-7.726563-3.457031-7.726563-7.726562 0-4.265625 3.460937-7.722656 7.726563-7.722656h89.933593c4.269531 0 7.726563 3.457031 7.726563 7.722656 0 4.269531-3.460938 7.726562-7.726563 7.726562zm0 0"
       id="path14"
       style="fill:#999999;fill-opacity:1" />
    <path
       d="m283.324219 209.972656h-92.476563c-4.269531 0-7.726562-3.457031-7.726562-7.726562 0-4.265625 3.457031-7.722656 7.726562-7.722656h92.476563c4.265625 0 7.726562 3.457031 7.726562 7.722656 0 4.269531-3.460937 7.726562-7.726562 7.726562zm0 0"
       id="path16"
       style="fill:#999999;fill-opacity:1" />
    <path
       d="m283.324219 170.726562h-219.894531c-4.265626 0-7.726563-3.460937-7.726563-7.726562 0-4.269531 3.460937-7.726562 7.726563-7.726562h219.894531c4.265625 0 7.726562 3.457031 7.726562 7.726562 0 4.265625-3.460937 7.726562-7.726562 7.726562zm0 0"
       id="path18"
       style="fill:#999999;fill-opacity:1" />
  </g>
  <path
     d="m508.804688 109.796875-97.304688 92.519531c-7.023438 5.648438-17.464844.648438-17.464844-8.367187v-50.265625c-41.691406 7.425781-77.480468 42.648437-98.167968 67.5625-6.425782 7.722656-18.980469 3.183594-18.980469-6.867188v-16.136718c0-68.058594 51.1875-124.144532 117.148437-131.882813v-45.851563c.1875-8.851562 10.503906-13.714843 17.464844-8.121093l97.304688 92.519531c4.261718 4.046875 4.261718 10.835938 0 14.890625zm0 0"
     fill="#84d267"
     id="path22" />
  <path
     d="m508.804688 109.796875-97.304688 92.519531c-7.023438 5.648438-17.464844.648438-17.464844-8.367187l94.15625-88.742188c1.644532-1.550781 1.644532-4.160156.003906-5.710937l-94.160156-88.988282c.1875-8.847656 10.503906-13.714843 17.464844-8.121093l97.304688 92.523437c4.261718 4.042969 4.261718 10.832032 0 14.886719zm0 0"
     fill="#54c132"
     id="path24" />
</svg>
