<?xml version="1.0" encoding="UTF-8" standalone="no"?>
<svg
   xmlns:dc="http://purl.org/dc/elements/1.1/"
   xmlns:cc="http://creativecommons.org/ns#"
   xmlns:rdf="http://www.w3.org/1999/02/22-rdf-syntax-ns#"
   xmlns:svg="http://www.w3.org/2000/svg"
   xmlns="http://www.w3.org/2000/svg"
   xmlns:sodipodi="http://sodipodi.sourceforge.net/DTD/sodipodi-0.dtd"
   xmlns:inkscape="http://www.inkscape.org/namespaces/inkscape"
   id="Capa_1"
   enable-background="new 0 0 511.996 511.996"
   height="512"
   viewBox="0 0 511.996 511.996"
   width="512"
   version="1.1"
   sodipodi:docname="funny.svg"
   inkscape:version="0.92.3 (2405546, 2018-03-11)">
  <metadata
     id="metadata5817">
    <rdf:RDF>
      <cc:Work
         rdf:about="">
        <dc:format>image/svg+xml</dc:format>
        <dc:type
           rdf:resource="http://purl.org/dc/dcmitype/StillImage" />
      </cc:Work>
    </rdf:RDF>
  </metadata>
  <defs
     id="defs5815" />
  <sodipodi:namedview
     pagecolor="#ffffff"
     bordercolor="#666666"
     borderopacity="1"
     objecttolerance="10"
     gridtolerance="10"
     guidetolerance="10"
     inkscape:pageopacity="0"
     inkscape:pageshadow="2"
     inkscape:window-width="1853"
     inkscape:window-height="1025"
     id="namedview5813"
     showgrid="false"
     inkscape:zoom="0.921875"
     inkscape:cx="364.47458"
     inkscape:cy="429.55932"
     inkscape:window-x="67"
     inkscape:window-y="27"
     inkscape:window-maximized="1"
     inkscape:current-layer="Capa_1" />
  <path
     d="m352.184 395.131c-47.724 62.836-117.309 102.604-192.339 113.688-39.017 5.769-79.5 3.775-119.148-6.762 9.931-20.313-.464-51.991-19.298-106.858l-3.522-10.26c-21.023-61.239-19.286-135.312 96.606-175.095s162.756 17.606 183.778 78.846c21.022 61.239 32.379 95.909 53.923 106.441z"
     fill="#e27d47"
     id="path5758" />
  <path
     d="m159.845 508.819c-39.017 5.769-79.5 3.775-119.148-6.762 9.931-20.313-.464-51.991-19.298-106.858l-3.522-10.26c-21.023-61.239-19.286-135.312 96.606-175.095-43.788 15.031-49.094 202.864 45.362 298.975z"
     fill="#dd542e"
     id="path5760" />
  <path
     d="m281.702 370.476c8.459 29.434-6.785 60.415-35.265 71.717-22.403 8.889-45.074 16.998-68.025 24.321-.029.01-.068.023-.101.024-8.381 2.681-16.803 5.245-25.258 7.712-29.407 8.57-60.465-6.517-71.877-34.938-8.14-20.253-15.321-40.824-21.58-61.723l.01-.003s23.37-9.373 51.078-26.444c24.628-15.163 52.677-36.414 70.789-62.563 0 0 39.761 33.524 79.35 19.934 7.906 20.332 14.863 40.98 20.879 61.963z"
     fill="#f1d0a5"
     id="path5762" />
  <path
     d="m178.311 466.537c-8.381 2.681-16.803 5.245-25.258 7.712-29.407 8.57-60.465-6.517-71.877-34.938-8.14-20.253-15.321-40.824-21.58-61.723l.01-.003s23.37-9.373 51.078-26.444l.003.01c13.031 59.789 42.286 122.929 67.624 115.386z"
     fill="#f1b986"
     id="path5764" />
  <path
     d="m144.433 406.29c6.358 18.521 26.527 28.382 45.048 22.024s28.382-26.527 22.024-45.048z"
     fill="#454045"
     id="path5766" />
  <ellipse
     cx="238.958"
     cy="368.807"
     fill="#eaac9d"
     rx="15.759"
     ry="9.935"
     transform="matrix(.946 -.325 .325 .946 -106.798 97.565)"
     id="ellipse5768" />
  <ellipse
     cx="113.887"
     cy="411.741"
     fill="#eaac9d"
     rx="15.759"
     ry="9.935"
     transform="matrix(.946 -.325 .325 .946 -127.514 59.283)"
     id="ellipse5770" />
  <path
     d="m200.299 363.662c-1.139 0-2.296-.253-3.388-.787-3.833-1.874-5.422-6.502-3.546-10.335 6.353-12.991 22.092-18.392 35.078-12.041 3.834 1.874 5.423 6.502 3.547 10.335-1.873 3.832-6.5 5.422-10.334 3.547-5.337-2.611-11.802-.39-14.41 4.947-1.341 2.741-4.088 4.334-6.947 4.334z"
     fill="#454045"
     id="path5772" />
  <path
     d="m111.734 394.064c-1.139 0-2.295-.253-3.387-.787-3.834-1.874-5.422-6.501-3.548-10.335 3.076-6.293 8.42-11.012 15.045-13.286s13.739-1.834 20.034 1.244c3.834 1.874 5.423 6.501 3.548 10.335-1.875 3.833-6.5 5.422-10.335 3.548-2.587-1.265-5.508-1.444-8.229-.511-2.722.935-4.916 2.873-6.18 5.458-1.34 2.741-4.089 4.334-6.948 4.334z"
     fill="#454045"
     id="path5774" />
  <path
     d="m468.422 207.442c.046.014.085.026.131.04 11.243 3.474 23.171-2.829 26.642-14.064 3.474-11.243-2.819-23.176-14.062-26.65-.146-.045-.293-.09-.441-.128l-186.376-57.589c-.144-.053-.29-.098-.437-.143-11.243-3.474-23.171 2.829-26.645 14.072-3.472 11.236 2.821 23.168 14.064 26.642.046.014.085.026.131.04"
     fill="#f1b986"
     id="path5776" />
  <path
     d="m462.678 223.824c-9.652 26.372-37.688 41.082-64.884 34.063-21.868-5.64-43.489-12.044-64.879-19.197l-.006-.012c-7.24-2.425-14.445-4.928-21.622-7.522-26.406-9.543-41.257-37.505-34.358-64.728 2.139-8.425 7.763-27.045 13.45-45.418 7.405-23.932 14.899-47.451 14.899-47.451l186.382 57.591s-2.986 9.983-7.118 23.547c-7.08 23.331-17.519 57.241-21.864 69.127z"
     fill="#f1d0a5"
     id="path5778" />
  <path
     d="m332.908 238.678c-7.24-2.425-14.445-4.928-21.622-7.522-26.406-9.543-41.257-37.505-34.358-64.728 2.139-8.425 7.763-27.045 13.45-45.418 7.405-23.932 14.899-47.451 14.899-47.451l48.313 14.928c-28.731 90.616-45.265 128.032-20.682 150.191z"
     fill="#f1b986"
     id="path5780" />
  <path
     d="m305.277 73.56 40.19 12.418s-11.563 31.823-55.089 35.033c7.405-23.932 14.899-47.451 14.899-47.451z"
     id="path5782"
     fill="#665e66" />
  <path
     d="m484.542 154.697c-90.542-27.977-129.472-65.752-129.472-65.752l136.59 42.205s-2.986 9.983-7.118 23.547z"
     id="path5784"
     fill="#665e66" />
  <path
     d="m387.178 2.576 76.758 23.718c30.312 9.366 47.292 41.532 37.926 71.844l-10.199 33.009-186.529-57.636 10.199-33.009c9.367-30.312 41.533-47.292 71.845-37.926z"
     id="path5786"
     fill="#8bc852"
     style="fill:#efc852;fill-opacity:1" />
  <path
     d="m422.293 13.427c-30.316-9.367-49.137 11.739-58.502 42.046l-10.201 33.015-48.457-14.973 10.201-33.015c9.365-30.307 41.525-47.292 71.841-37.925z"
     fill="#6ea533"
     id="path5788"
     style="fill:#d4a138;fill-opacity:1" />
  <path
     d="m 501.18988,136.06308 c -0.756,0 -1.523,-0.112 -2.283,-0.347 l -206.358,-63.762005 c -4.077,-1.26 -6.361,-5.586 -5.102,-9.663 1.26,-4.077 5.586,-6.362 9.663,-5.101 l 206.358,63.763005 c 4.077,1.26 6.361,5.586 5.102,9.663 -1.025,3.317 -4.08,5.447 -7.38,5.447 z"
     id="path5790"
     inkscape:connector-curvature="0"
     style="fill:#d4a138;fill-opacity:1" />
  <g
     fill="#454045"
     id="g5798">
    <path
       d="m337.734 180.542c-5.697 18.438 4.631 38.004 23.07 43.701 18.438 5.697 38.004-4.631 43.701-23.07z"
       id="path5792" />
    <path
       d="m353.617 158.051c-2.218 0-4.363-1.198-5.471-3.296-2.377-4.503-7.972-6.234-12.479-3.856-3.016 1.592-6.758.439-8.351-2.58-1.595-3.019-.439-6.758 2.58-8.352 10.526-5.56 23.621-1.515 29.181 9.017 1.594 3.019.439 6.758-2.58 8.352-.92.484-1.908.715-2.88.715z"
       id="path5794" />
    <path
       d="m428.406 181.161c-2.218 0-4.363-1.198-5.471-3.296-1.152-2.182-3.085-3.784-5.441-4.512s-4.857-.495-7.038.656c-3.016 1.593-6.758.439-8.351-2.58-1.594-3.019-.439-6.758 2.581-8.352 5.101-2.693 10.948-3.238 16.458-1.535 5.512 1.703 10.03 5.45 12.723 10.552 1.595 3.019.439 6.758-2.581 8.352-.919.484-1.907.715-2.88.715z"
       id="path5796" />
  </g>
  <path
     d="m184.101 154.206c-.124 0-.248-.003-.374-.009l-23.944-1.141c-4.262-.203-7.552-3.823-7.349-8.086s3.806-7.55 8.086-7.35l23.944 1.141c4.262.203 7.552 3.823 7.349 8.086-.198 4.137-3.615 7.359-7.712 7.359z"
     fill="#f6e266"
     id="path5800" />
  <path
     d="m197.142 128.536c-2.038 0-4.072-.801-5.591-2.393l-21.343-22.369c-2.947-3.087-2.831-7.978.256-10.924 3.088-2.945 7.979-2.831 10.924.257l21.343 22.369c2.947 3.087 2.831 7.978-.256 10.924-1.496 1.427-3.417 2.136-5.333 2.136z"
     fill="#f6e266"
     id="path5802" />
  <path
     d="m223.886 115.338c-3.825 0-7.148-2.84-7.652-6.735l-2.967-22.904c-.548-4.232 2.438-8.107 6.669-8.655 4.234-.542 8.108 2.438 8.655 6.67l2.967 22.904c.548 4.232-2.438 8.107-6.669 8.655-.337.043-.672.065-1.003.065z"
     fill="#f6e266"
     id="path5804" />
  <path
     d="m353.229 340.07c-.124 0-.249-.003-.374-.009-4.263-.204-7.552-3.823-7.349-8.086l1.142-23.943c.203-4.262 3.807-7.542 8.086-7.35 4.263.204 7.552 3.823 7.349 8.086l-1.142 23.943c-.198 4.138-3.614 7.359-7.712 7.359z"
     fill="#da4a54"
     id="path5806" />
  <path
     d="m378.894 353.117c-2.038 0-4.072-.801-5.591-2.392-2.946-3.088-2.832-7.978.256-10.924l22.368-21.344c3.088-2.946 7.979-2.83 10.924.256 2.946 3.088 2.832 7.978-.256 10.924l-22.368 21.344c-1.496 1.427-3.416 2.136-5.333 2.136z"
     fill="#da4a54"
     id="path5808" />
  <path
     d="m392.082 379.873c-3.825 0-7.148-2.84-7.652-6.735-.548-4.232 2.438-8.107 6.67-8.655l22.904-2.966c4.219-.542 8.107 2.438 8.654 6.67.548 4.232-2.438 8.107-6.67 8.655l-22.904 2.966c-.336.043-.671.065-1.002.065z"
     fill="#da4a54"
     id="path5810" />
</svg>
