<?xml version="1.0" encoding="UTF-8" standalone="no"?>
<svg
   xmlns:dc="http://purl.org/dc/elements/1.1/"
   xmlns:cc="http://creativecommons.org/ns#"
   xmlns:rdf="http://www.w3.org/1999/02/22-rdf-syntax-ns#"
   xmlns:svg="http://www.w3.org/2000/svg"
   xmlns="http://www.w3.org/2000/svg"
   xmlns:sodipodi="http://sodipodi.sourceforge.net/DTD/sodipodi-0.dtd"
   xmlns:inkscape="http://www.inkscape.org/namespaces/inkscape"
   height="512"
   viewBox="0 0 58 58"
   width="512"
   version="1.1"
   id="svg26"
   sodipodi:docname="house.svg"
   inkscape:version="0.92.3 (2405546, 2018-03-11)">
  <metadata
     id="metadata32">
    <rdf:RDF>
      <cc:Work
         rdf:about="">
        <dc:format>image/svg+xml</dc:format>
        <dc:type
           rdf:resource="http://purl.org/dc/dcmitype/StillImage" />
      </cc:Work>
    </rdf:RDF>
  </metadata>
  <defs
     id="defs30" />
  <sodipodi:namedview
     pagecolor="#ffffff"
     bordercolor="#666666"
     borderopacity="1"
     objecttolerance="10"
     gridtolerance="10"
     guidetolerance="10"
     inkscape:pageopacity="0"
     inkscape:pageshadow="2"
     inkscape:window-width="1853"
     inkscape:window-height="1025"
     id="namedview28"
     showgrid="false"
     inkscape:zoom="0.4609375"
     inkscape:cx="425.52099"
     inkscape:cy="256"
     inkscape:window-x="67"
     inkscape:window-y="27"
     inkscape:window-maximized="1"
     inkscape:current-layer="Page-1" />
  <g
     id="Page-1"
     fill="none"
     fill-rule="evenodd">
    <path
       style="fill:#f29c1f;fill-rule:nonzero;stroke-width:1.36744976"
       inkscape:connector-curvature="0"
       d="M 51.572231,24.695462 V 54 H 6.749621 V 24.695462 L 29.240024,5.7737515 Z"
       id="Shape" />
    <path
       style="fill:#f0c419;fill-rule:nonzero;stroke-width:1.36744976"
       inkscape:connector-curvature="0"
       d="m 51.572231,24.695462 v 26.4677 H 6.749621 v -26.4677 L 29.240024,5.7737515 Z"
       id="path3" />
    <path
       style="fill:#67b9cc;fill-rule:nonzero;stroke-width:1.36744976"
       inkscape:connector-curvature="0"
       d="M 44.980671,29.886876 V 42.652647 H 31.79755 V 29.886876 c 0,-0.783372 0.590229,-1.418419 1.318311,-1.418419 h 10.546496 c 0.728085,0 1.318312,0.635047 1.318314,1.418419 z"
       id="path5" />
    <path
       style="fill:#2fa8cc;fill-rule:nonzero;stroke-width:1.36744976"
       inkscape:connector-curvature="0"
       d="M 44.980671,31.759188 V 42.652647 H 31.79755 v -3.673705 c 1.647889,-3.886469 5.273249,-8.397041 13.183121,-7.219754 z"
       id="path7" />
    <path
       style="fill:#4fba6f;fill-rule:nonzero"
       inkscape:connector-curvature="0"
       d="m 2,54 h 54 c 1.104569,0 2,0.895431 2,2 v 1 c 0,0.552285 -0.447715,1 -1,1 H 1 C 0.44771525,58 0,57.552285 0,57 v -1 c 0,-1.104569 0.8954305,-2 2,-2 z"
       id="path9" />
    <path
       style="fill:#e57e25;fill-rule:nonzero;stroke-width:1.36744976"
       inkscape:connector-curvature="0"
       d="m 55.527166,27.050038 c -0.542127,0.0015 -1.071514,-0.176771 -1.51606,-0.510631 L 29.160924,7.8162754 4.3107443,26.539407 C 3.1166867,27.440285 1.4699495,27.12911 0.6326533,25.844381 -0.20464299,24.559652 0.08456906,22.787869 1.2786262,21.886993 L 27.644867,2.0291249 c 0.909617,-0.6878252 2.1225,-0.6878252 3.032118,0 L 57.043226,21.886993 c 0.945257,0.709886 1.352314,1.998169 1.00504,3.180832 -0.347274,1.182664 -1.368355,1.985489 -2.5211,1.982213 z"
       id="path11" />
    <path
       style="fill:#a56a43;fill-rule:nonzero;stroke-width:1.36744976"
       inkscape:connector-curvature="0"
       d="M 12.02287,54 V 29.886876 c 0,-0.783372 0.590229,-1.418419 1.318313,-1.418419 h 10.546494 c 0.728084,0 1.318312,0.635047 1.318312,1.418419 V 54 Z"
       id="path13" />
    <ellipse
       style="fill:#35495e;fill-rule:nonzero;stroke-width:1.36744976"
       cy="41.23423"
       cx="17.296118"
       id="Oval"
       rx="1.318312"
       ry="1.418419" />
    <path
       style="fill:#ecf0f1;fill-rule:nonzero;stroke-width:1.36744976"
       inkscape:connector-curvature="0"
       d="m 37.070799,38.39739 c -0.350412,0.0022 -0.687211,-0.145833 -0.936001,-0.411341 -0.249573,-0.266332 -0.389955,-0.628874 -0.389955,-1.007078 0,-0.378204 0.140382,-0.740745 0.389955,-1.007078 l 2.636624,-2.836837 c 0.516939,-0.556194 1.355063,-0.556194 1.872003,0 0.516939,0.556193 0.516939,1.457961 0,2.014155 l -2.636624,2.836838 c -0.24879,0.26551 -0.585591,0.413521 -0.936002,0.411341 z"
       id="path18" />
    <path
       style="fill:#f29c1f;fill-rule:nonzero;stroke-width:1.36744976"
       inkscape:connector-curvature="0"
       d="M 46.298982,44.071067 H 30.479237 c -0.728084,0 -1.318313,-0.635048 -1.318313,-1.41842 0,-0.783372 0.590229,-1.418419 1.318313,-1.418419 h 15.819744 c 0.728084,0 1.318313,0.635047 1.318313,1.418419 0,0.783372 -0.590229,1.41842 -1.318312,1.41842 z"
       id="path22" />
  </g>
</svg>
