<?xml version="1.0" encoding="UTF-8" standalone="no"?>
<!-- Generator: Adobe Illustrator 18.0.0, SVG Export Plug-In . SVG Version: 6.00 Build 0)  -->

<svg
   xmlns:dc="http://purl.org/dc/elements/1.1/"
   xmlns:cc="http://creativecommons.org/ns#"
   xmlns:rdf="http://www.w3.org/1999/02/22-rdf-syntax-ns#"
   xmlns:svg="http://www.w3.org/2000/svg"
   xmlns="http://www.w3.org/2000/svg"
   xmlns:xlink="http://www.w3.org/1999/xlink"
   xmlns:sodipodi="http://sodipodi.sourceforge.net/DTD/sodipodi-0.dtd"
   xmlns:inkscape="http://www.inkscape.org/namespaces/inkscape"
   version="1.1"
   id="Capa_1"
   x="0px"
   y="0px"
   viewBox="0 0 512 512"
   style="enable-background:new 0 0 512 512;"
   xml:space="preserve"
   sodipodi:docname="laptop-table.svg"
   inkscape:version="0.92.3 (2405546, 2018-03-11)"><metadata
   id="metadata93"><rdf:RDF><cc:Work
       rdf:about=""><dc:format>image/svg+xml</dc:format><dc:type
         rdf:resource="http://purl.org/dc/dcmitype/StillImage" /></cc:Work></rdf:RDF></metadata><defs
   id="defs91"><linearGradient
   inkscape:collect="always"
   id="linearGradient2318"><stop
     style="stop-color:#5eb7f7;stop-opacity:1;"
     offset="0"
     id="stop2314" /><stop
     style="stop-color:#afffff;stop-opacity:1"
     offset="1"
     id="stop2316" /></linearGradient>
	
	
	
	
	
	
	
	
	
	
	
	
	
	
	
	
	
	
	
	
	
	
	
	
	
<linearGradient
   inkscape:collect="always"
   xlink:href="#linearGradient2318"
   id="linearGradient2320"
   x1="174.5136"
   y1="152.62798"
   x2="345.38477"
   y2="32.101898"
   gradientUnits="userSpaceOnUse"
   gradientTransform="translate(0,12)" /></defs><sodipodi:namedview
   pagecolor="#ffffff"
   bordercolor="#666666"
   borderopacity="1"
   objecttolerance="10"
   gridtolerance="10"
   guidetolerance="10"
   inkscape:pageopacity="0"
   inkscape:pageshadow="2"
   inkscape:window-width="1853"
   inkscape:window-height="1025"
   id="namedview89"
   showgrid="false"
   inkscape:zoom="0.4609375"
   inkscape:cx="-147.52542"
   inkscape:cy="256"
   inkscape:window-x="67"
   inkscape:window-y="27"
   inkscape:window-maximized="1"
   inkscape:current-layer="Capa_1" />
<polygon
   id="polygon2"
   points="408,176 408,224 451.309,224 449.426,192 448.485,176 "
   style="fill:#a25425"
   transform="translate(0,56)" /><path
   inkscape:connector-curvature="0"
   id="path4"
   d="m 448.485,232 0.941,16 13.648,232.014 c 0.258,4.393 4.07,7.986 8.47,7.986 4.4,0 8,-3.6 8,-8 V 248 232 Z"
   style="fill:#af6328" /><path
   inkscape:connector-curvature="0"
   id="path6"
   d="m 104,200 v 106.7506 9.70461 9.7046 c 0,5.35936 3.578,9.7046 8,9.7046 4.422,0 8,-4.34524 8,-9.7046 v 0 c 0,-5.35937 3.582,-9.7046 8,-9.7046 v 0 c 4.418,0 8,4.34523 8,9.7046 v 0 c 0,5.35936 3.578,9.7046 8,9.7046 4.422,0 8,-4.34524 8,-9.7046 v 0 c 0,-5.35937 3.582,-9.7046 8,-9.7046 v 0 c 4.418,0 8,4.34523 8,9.7046 v 0 c 0,5.35936 3.578,9.7046 8,9.7046 4.422,0 8,-4.34524 8,-9.7046 v 0 c 0,-5.35937 3.582,-9.7046 8,-9.7046 v 0 c 4.418,0 8,4.34523 8,9.7046 v 0 c 0,5.35936 3.578,9.7046 8,9.7046 4.422,0 8,-4.34524 8,-9.7046 v 0 c 0,-5.35937 3.582,-9.7046 8,-9.7046 v 0 c 4.418,0 8,4.34523 8,9.7046 v 0 c 0,5.35936 3.578,9.7046 8,9.7046 4.422,0 8,-4.34524 8,-9.7046 v 0 c 0,-5.35937 3.582,-9.7046 8,-9.7046 v 0 c 4.418,0 8,4.34523 8,9.7046 v 0 c 0,5.35936 3.578,9.7046 8,9.7046 4.422,0 8,-4.34524 8,-9.7046 v 0 c 0,-5.35937 3.582,-9.7046 8,-9.7046 v 0 c 4.418,0 8,4.34523 8,9.7046 v 0 c 0,5.35936 3.578,9.7046 8,9.7046 4.422,0 8,-4.34524 8,-9.7046 v 0 c 0,-5.35937 3.582,-9.7046 8,-9.7046 v 0 c 4.418,0 8,4.34523 8,9.7046 v 0 c 0,5.35936 3.578,9.7046 8,9.7046 4.422,0 8,-4.34524 8,-9.7046 v 0 c 0,-5.35937 3.582,-9.7046 8,-9.7046 v 0 c 4.418,0 8,4.34523 8,9.7046 v 0 c 0,5.35936 3.578,9.7046 8,9.7046 4.422,0 8,-4.34524 8,-9.7046 v 0 c 0,-5.35937 3.582,-9.7046 8,-9.7046 v 0 c 4.418,0 8,4.34523 8,9.7046 v 0 c 0,5.35936 3.578,9.7046 8,9.7046 4.422,0 8,-4.34524 8,-9.7046 V 316.45521 306.7506 200 Z"
   style="fill:#f5b445;stroke-width:1.10139692" /><polygon
   id="polygon8"
   points="479.544,192 449.426,192 448.485,176 479.544,176 "
   style="fill:#a25425"
   transform="translate(0,56)" /><path
   inkscape:connector-curvature="0"
   id="path18"
   d="m 449.426,248 13.648,232.014 c 0.258,4.393 4.07,7.986 8.47,7.986 4.4,0 8,-3.6 8,-8 V 248 Z"
   style="fill:#af6328" /><polygon
   id="polygon20"
   points="408,176 408,192 449.426,192 448.485,176 "
   style="fill:#7f4122"
   transform="translate(0,56)" /><polygon
   id="polygon22"
   points="104,176 104,224 60.691,224 62.574,192 63.515,176 "
   style="fill:#a25425"
   transform="translate(0,56)" /><path
   inkscape:connector-curvature="0"
   id="path24"
   d="m 63.515,232 -0.941,16 -13.648,232.014 c -0.258,4.393 -4.07,7.986 -8.47,7.986 -4.4,0 -8,-3.6 -8,-8 V 248 232 Z"
   style="fill:#af6328" /><polygon
   id="polygon26"
   points="32.456,192 62.574,192 63.515,176 32.456,176 "
   style="fill:#a25425"
   transform="translate(0,56)" /><path
   inkscape:connector-curvature="0"
   id="path28"
   d="M 62.574,248 48.926,480.014 c -0.258,4.393 -4.07,7.986 -8.47,7.986 -4.4,0 -8,-3.6 -8,-8 V 248 Z"
   style="fill:#af6328" /><polygon
   id="polygon30"
   points="104,176 104,192 62.574,192 63.515,176 "
   style="fill:#7f4122"
   transform="translate(0,56)" /><g
   id="g36"
   transform="translate(0,56)">
		<path
   inkscape:connector-curvature="0"
   id="path32"
   d="M 104,144 H 8 c -4.4,0 -8,3.6 -8,8 v 16 c 0,4.4 3.6,8 8,8 h 96 z"
   style="fill:#af6328" />
		<path
   inkscape:connector-curvature="0"
   id="path34"
   d="m 504,144 h -96 v 32 h 96 c 4.4,0 8,-3.6 8,-8 v -16 c 0,-4.4 -3.6,-8 -8,-8 z"
   style="fill:#af6328" />
	</g><path
   inkscape:connector-curvature="0"
   id="path38"
   d="m 224,248.523 c -4.418,0 -8,4.34524 -8,9.70461 v 67.9322 c 0,-5.35937 3.582,-9.7046 8,-9.7046 4.418,0 8,4.34523 8,9.7046 v -67.9322 c 0,-5.35937 -3.582,-9.70461 -8,-9.70461 z"
   style="fill:#f09820;stroke-width:1.10139692" /><path
   inkscape:connector-curvature="0"
   id="path40"
   d="m 256,238.8184 c -4.418,0 -8,4.34523 -8,9.7046 v 77.63681 c 0,-5.35937 3.582,-9.7046 8,-9.7046 4.418,0 8,4.34523 8,9.7046 V 248.523 c 0,-5.35937 -3.582,-9.7046 -8,-9.7046 z"
   style="fill:#f09820;stroke-width:1.10139692" /><path
   inkscape:connector-curvature="0"
   id="path42"
   d="m 160,238.8184 c -4.418,0 -8,4.34523 -8,9.7046 v 77.63681 c 0,-5.35937 3.582,-9.7046 8,-9.7046 4.418,0 8,4.34523 8,9.7046 V 248.523 c 0,-5.35937 -3.582,-9.7046 -8,-9.7046 z"
   style="fill:#f09820;stroke-width:1.10139692" /><path
   inkscape:connector-curvature="0"
   id="path44"
   d="m 192,277.63681 c -4.418,0 -8,4.34523 -8,9.70459 v 38.81841 c 0,-5.35937 3.582,-9.7046 8,-9.7046 4.418,0 8,4.34523 8,9.7046 V 287.3414 c 0,-5.35936 -3.582,-9.70459 -8,-9.70459 z"
   style="fill:#f09820;stroke-width:1.10139692" /><path
   inkscape:connector-curvature="0"
   id="path46"
   d="m 352,267.9322 c -4.418,0 -8,4.34524 -8,9.70461 v 48.523 c 0,-5.35937 3.582,-9.7046 8,-9.7046 4.418,0 8,4.34523 8,9.7046 v -48.523 c 0,-5.35937 -3.582,-9.70461 -8,-9.70461 z"
   style="fill:#f09820;stroke-width:1.10139692" /><path
   inkscape:connector-curvature="0"
   id="path48"
   d="m 384,248.523 c -4.418,0 -8,4.34524 -8,9.70461 v 67.9322 c 0,-5.35937 3.582,-9.7046 8,-9.7046 4.418,0 8,4.34523 8,9.7046 v -67.9322 c 0,-5.35937 -3.582,-9.70461 -8,-9.70461 z"
   style="fill:#f09820;stroke-width:1.10139692" /><path
   inkscape:connector-curvature="0"
   id="path50"
   d="m 288,219.4092 c -4.418,0 -8,4.34523 -8,9.7046 v 97.04601 c 0,-5.35937 3.582,-9.7046 8,-9.7046 4.418,0 8,4.34523 8,9.7046 V 229.1138 c 0,-5.35937 -3.582,-9.7046 -8,-9.7046 z"
   style="fill:#f09820;stroke-width:1.10139692" /><path
   inkscape:connector-curvature="0"
   id="path52"
   d="m 320,238.8184 c -4.418,0 -8,4.34523 -8,9.7046 v 77.63681 c 0,-5.35937 3.582,-9.7046 8,-9.7046 4.418,0 8,4.34523 8,9.7046 V 248.523 c 0,-5.35937 -3.582,-9.7046 -8,-9.7046 z"
   style="fill:#f09820;stroke-width:1.10139692" /><path
   inkscape:connector-curvature="0"
   id="path54"
   d="m 128,219.4092 c -4.418,0 -8,4.34523 -8,9.7046 v 97.04601 c 0,-5.35937 3.582,-9.7046 8,-9.7046 4.418,0 8,4.34523 8,9.7046 V 229.1138 c 0,-5.35937 -3.582,-9.7046 -8,-9.7046 z"
   style="fill:#f09820;stroke-width:1.10139692" />
<g
   id="g58">
</g>
<g
   id="g60">
</g>
<g
   id="g62">
</g>
<g
   id="g64">
</g>
<g
   id="g66">
</g>
<g
   id="g68">
</g>
<g
   id="g70">
</g>
<g
   id="g72">
</g>
<g
   id="g74">
</g>
<g
   id="g76">
</g>
<g
   id="g78">
</g>
<g
   id="g80">
</g>
<g
   id="g82">
</g>
<g
   id="g84">
</g>
<g
   id="g86">
</g>
<rect
   x="150.10341"
   y="24.076271"
   style="fill:#bbc6d1;fill-opacity:1;stroke-width:12.78467274"
   width="219.69153"
   height="147.30965"
   id="rect30" /><rect
   x="137.8983"
   y="171.38593"
   style="fill:#9ba1aa;fill-opacity:1;stroke-width:12.78467274"
   width="244.1017"
   height="26.783573"
   id="rect32" /><rect
   x="174.5136"
   y="44.101898"
   style="fill:url(#linearGradient2320);fill-opacity:1;stroke-width:12.78467274"
   width="170.87117"
   height="120.52608"
   id="rect40" /></svg>