<svg height="512pt" viewBox="0 0 512 511" width="512pt" xmlns="http://www.w3.org/2000/svg"><path d="m192.730469 125.925781v32.433594l26.308593.003906v-28.28125c0-11.460937 9.296876-20.75 20.765626-20.753906h38.769531c11.472656-.003906 20.769531 9.285156 20.769531 20.746094v28.289062h24.925781v-32.4375c0-22.917969-18.597656-41.5-41.539062-41.5h-48.460938c-22.941406 0-41.539062 18.582031-41.539062 41.5zm0 0" fill="#754c24"/><path d="m386.085938 374.425781h-260.105469c-18.730469 0-33.914063-15.183593-33.914063-33.914062v-155.367188c0-18.730469 15.183594-33.914062 33.914063-33.914062h260.105469c18.730468 0 33.914062 15.183593 33.914062 33.914062v155.367188c0 18.730469-15.183594 33.914062-33.914062 33.914062zm0 0" fill="#8c6239"/><path d="m386.070312 151.230469h-40c18.738282 0 33.929688 15.175781 33.929688 33.898437v155.398438c0 18.71875-15.191406 33.898437-33.929688 33.898437h40c18.738282 0 33.929688-15.179687 33.929688-33.898437v-155.398438c0-18.722656-15.191406-33.898437-33.929688-33.898437zm0 0" fill="#754c24"/><path d="m92 235.292969v105.234375c0 18.71875 15.257812 33.644531 33.996094 33.644531h260.074218c18.738282 0 33.929688-14.925781 33.929688-33.644531v-105.234375zm0 0" fill="#c6874f"/><path d="m380 235.292969v105.234375c0 18.71875-15.191406 33.644531-33.929688 33.644531h40c18.738282 0 33.929688-14.925781 33.929688-33.644531v-105.234375zm0 0" fill="#96663c"/><path d="m256 .5c-141.386719 0-256 114.515625-256 255.773438 0 141.261718 114.613281 255.773437 256 255.773437s256-114.511719 256-255.773437c0-141.257813-114.613281-255.773438-256-255.773438zm-216.117188 255.773438c0-52.304688 18.613282-100.261719 49.585938-137.625l304.28125 304.011718c-37.398438 30.941406-85.398438 49.539063-137.75 49.539063-119.359375 0-216.117188-96.671875-216.117188-215.925781zm382.191407 138.167968-304.363281-304.09375c37.476562-31.214844 85.683593-50 138.289062-50 119.359375 0 216.117188 96.671875 216.117188 215.925782 0 52.558593-18.800782 100.722656-50.042969 138.167968zm0 0" fill="#e5554e"/><path d="m256 .5c-6.710938 0-13.359375.261719-19.941406.769531 130.183594 10.019531 233.082031 117.335938 235.984375 249.285157.097656 3.71875.101562 7.441406.003906 11.164062-2.765625 132.074219-105.710937 239.53125-235.988281 249.5625 6.578125.503906 13.230468.765625 19.941406.765625 141.386719 0 256-114.511719 256-255.773437 0-141.257813-114.613281-255.773438-256-255.773438zm0 0" fill="#c62430"/></svg>