<?xml version="1.0" encoding="UTF-8" standalone="no"?>
<svg
   xmlns:dc="http://purl.org/dc/elements/1.1/"
   xmlns:cc="http://creativecommons.org/ns#"
   xmlns:rdf="http://www.w3.org/1999/02/22-rdf-syntax-ns#"
   xmlns:svg="http://www.w3.org/2000/svg"
   xmlns="http://www.w3.org/2000/svg"
   xmlns:sodipodi="http://sodipodi.sourceforge.net/DTD/sodipodi-0.dtd"
   xmlns:inkscape="http://www.inkscape.org/namespaces/inkscape"
   id="Capa_1"
   enable-background="new 0 0 511.956 511.956"
   height="512"
   viewBox="0 0 511.956 511.956"
   width="512"
   version="1.1"
   sodipodi:docname="noise.svg"
   inkscape:version="0.92.3 (2405546, 2018-03-11)">
  <metadata
     id="metadata31">
    <rdf:RDF>
      <cc:Work
         rdf:about="">
        <dc:format>image/svg+xml</dc:format>
        <dc:type
           rdf:resource="http://purl.org/dc/dcmitype/StillImage" />
      </cc:Work>
    </rdf:RDF>
  </metadata>
  <defs
     id="defs29" />
  <sodipodi:namedview
     pagecolor="#ffffff"
     bordercolor="#666666"
     borderopacity="1"
     objecttolerance="10"
     gridtolerance="10"
     guidetolerance="10"
     inkscape:pageopacity="0"
     inkscape:pageshadow="2"
     inkscape:window-width="1853"
     inkscape:window-height="1025"
     id="namedview27"
     showgrid="false"
     inkscape:zoom="0.4609375"
     inkscape:cx="256"
     inkscape:cy="256"
     inkscape:window-x="67"
     inkscape:window-y="27"
     inkscape:window-maximized="1"
     inkscape:current-layer="g872" />
  <g
     id="g24">
    <path
       inkscape:connector-curvature="0"
       style="fill:#d61e1e;stroke-width:0.99991405"
       d="m 258.15081,10.092625 c -137.00023,0 -248.061684,111.050455 -248.061684,248.060675 0,136.98923 111.060454,248.04868 248.061684,248.04868 136.99423,0 248.05468,-111.05945 248.05468,-248.04868 0,-137.01122 -111.06045,-248.060675 -248.05468,-248.060675 z"
       id="path2-2" />
    <path
       inkscape:connector-curvature="0"
       style="fill:#f4eded;stroke-width:0.99991405"
       d="m 256.14998,49.088275 c -115.46308,0 -209.064032,93.591945 -209.064032,209.064025 0,115.45308 93.600952,209.05403 209.064032,209.05403 115.45808,0 209.05903,-93.60095 209.05903,-209.05403 0,-115.47208 -93.60095,-209.064025 -209.05903,-209.064025 z"
       id="path4-9" />
    <g
       id="g859"
       transform="matrix(0.74152567,0,0,0.74152567,586.72908,73.748653)">
      <g
         id="g872"
         transform="translate(-674.22751)">
        <path
           style="fill:#575f64"
           inkscape:connector-curvature="0"
           d="m 252.964,443.899 -62.402,-62.402 -62.578,64.702 61.347,61.333 c 5.859,5.859 15.351,5.86 21.211,0 l 42.422,-42.422 c 5.859,-5.859 5.859,-15.351 0,-21.211 z"
           id="path2" />
        <path
           style="fill:#c3caff;fill-opacity:1"
           inkscape:connector-curvature="0"
           d="M 367.141,231.094 302.087,166.04 212.922,76.875 177.143,71.096 c -18.644,70.82 -42.9,131.528 -102.458,194.524 l 18.34,48.34 30.571,30.571 26.616,26.616 52.295,22.295 c 62.126,-58.751 122.303,-83.458 194.522,-102.46 z"
           id="path4" />
        <path
           style="fill:#8d82ff;fill-opacity:1"
           inkscape:connector-curvature="0"
           d="m 202.507,393.443 c 62.126,-58.751 122.303,-83.458 194.522,-102.46 l -29.888,-59.888 -65.054,-65.054 -178.491,178.491 26.616,26.616 z"
           id="path6" />
        <g
           id="g14"
           style="fill:#0088fd;fill-opacity:1">
          <path
             inkscape:connector-curvature="0"
             d="m 315.956,91.029 c -8.291,0 -15,-6.709 -15,-15 v -61 c 0,-8.291 6.709,-15 15,-15 8.291,0 15,6.709 15,15 v 61 c 0,8.292 -6.709,15 -15,15 z"
             id="path8"
             style="fill:#0088fd;fill-opacity:1" />
          <path
             inkscape:connector-curvature="0"
             d="m 369.247,119.447 c -7.412,-3.706 -10.415,-12.715 -6.709,-20.127 l 30,-60 c 2.153,-4.307 6.255,-7.324 11.016,-8.101 4.805,-0.732 9.609,0.806 13.008,4.204 L 431.84,50.701 453.538,8.319 c 3.721,-7.412 12.7,-10.386 20.127,-6.709 7.412,3.706 10.415,12.715 6.709,20.127 l -31,61 c -2.153,4.307 -6.255,7.324 -11.016,8.101 -4.775,0.806 -9.609,-0.791 -13.008,-4.204 l -15.278,-15.278 -20.698,41.382 c -3.691,7.362 -12.647,10.424 -20.127,6.709 z"
             id="path10"
             style="fill:#0088fd;fill-opacity:1" />
          <path
             inkscape:connector-curvature="0"
             d="m 454.398,181.806 -19.482,-23.525 -18.354,18.354 c -5.859,5.859 -15.352,5.859 -21.211,0 -5.859,-5.859 -5.859,-15.352 0,-21.211 l 30,-30 c 2.974,-2.988 7.134,-4.512 11.309,-4.38 4.219,0.205 8.159,2.168 10.854,5.42 l 18.442,22.266 19.442,-23.266 c 5.303,-6.372 14.751,-7.266 21.123,-1.992 6.387,5.288 7.266,14.751 1.992,21.123 l -31,37.211 c -6.006,7.239 -17.103,7.244 -23.115,0 z"
             id="path12"
             style="fill:#0088fd;fill-opacity:1" />
        </g>
        <path
           inkscape:connector-curvature="0"
           d="M 446.191,255.286 329.517,138.612 212.842,21.937 c -8.306,-8.337 -22.37,-4.215 -25.151,6.973 -2.518,10.124 -8.776,35.059 -10.547,42.188 1.617,1.617 55.767,55.767 109.944,109.944 57.22,57.22 114.474,114.474 109.942,109.942 14.755,-3.688 27.435,-6.857 42.189,-10.545 11.277,-2.805 15.221,-16.904 6.972,-25.153 z"
           id="path16"
           style="fill:#6c7fff;fill-opacity:1" />
        <path
           inkscape:connector-curvature="0"
           d="m 439.219,280.438 c 11.277,-2.803 15.222,-16.902 6.973,-25.151 L 329.517,138.612 287.088,181.041 c 57.22,57.22 114.474,114.474 109.942,109.942 14.754,-3.688 27.434,-6.858 42.189,-10.545 z"
           id="path18"
           style="fill:#1300d0;fill-opacity:1" />
        <path
           inkscape:connector-curvature="0"
           d="m 138.596,329.532 c -20.781,-20.779 -41.558,-41.559 -63.911,-63.911 -2.602,2.752 -5.063,5.605 -7.742,8.284 -15.743,15.743 -29.271,29.271 -45.015,45.015 -29.238,29.238 -29.238,76.831 0,106.069 l 10.605,10.605 10.605,10.605 c 29.134,29.165 76.617,29.469 106.055,0 12.587,-12.599 36.632,-36.606 45.029,-45.015 2.679,-2.679 5.532,-5.138 8.284,-7.742 -22.35,-22.352 -43.131,-43.129 -63.91,-63.91 z"
           id="path20"
           style="fill:#6c7fff;fill-opacity:1" />
        <path
           inkscape:connector-curvature="0"
           d="m 149.194,446.199 c 12.587,-12.599 36.632,-36.606 45.029,-45.015 2.679,-2.679 5.532,-5.138 8.284,-7.742 -22.352,-22.354 -43.132,-43.13 -63.911,-63.911 L 32.534,435.594 43.139,446.199 c 29.135,29.165 76.617,29.469 106.055,0 z"
           id="path22"
           style="fill:#1300d0;fill-opacity:1" />
      </g>
    </g>
    <path
       inkscape:connector-curvature="0"
       style="fill:#d61e1e;stroke-width:0.99991405"
       d="m 95.932746,70.478435 c -9.08522,7.85933 -17.59449,16.36859 -25.45481,25.45381 L 420.36187,445.81617 c 9.08522,-7.86032 17.59449,-16.36859 25.45381,-25.45381 z"
       id="path16-7" />
  </g>
</svg>
