<?xml version="1.0" encoding="UTF-8" standalone="no"?>
<svg
   xmlns:dc="http://purl.org/dc/elements/1.1/"
   xmlns:cc="http://creativecommons.org/ns#"
   xmlns:rdf="http://www.w3.org/1999/02/22-rdf-syntax-ns#"
   xmlns:svg="http://www.w3.org/2000/svg"
   xmlns="http://www.w3.org/2000/svg"
   xmlns:sodipodi="http://sodipodi.sourceforge.net/DTD/sodipodi-0.dtd"
   xmlns:inkscape="http://www.inkscape.org/namespaces/inkscape"
   id="Layer_1"
   enable-background="new 0 0 64 64"
   height="512"
   viewBox="0 0 64 64"
   width="512"
   version="1.1"
   sodipodi:docname="piggybank.svg"
   inkscape:version="0.92.3 (2405546, 2018-03-11)">
  <metadata
     id="metadata75">
    <rdf:RDF>
      <cc:Work
         rdf:about="">
        <dc:format>image/svg+xml</dc:format>
        <dc:type
           rdf:resource="http://purl.org/dc/dcmitype/StillImage" />
      </cc:Work>
    </rdf:RDF>
  </metadata>
  <defs
     id="defs73" />
  <sodipodi:namedview
     pagecolor="#ffffff"
     bordercolor="#666666"
     borderopacity="1"
     objecttolerance="10"
     gridtolerance="10"
     guidetolerance="10"
     inkscape:pageopacity="0"
     inkscape:pageshadow="2"
     inkscape:window-width="1853"
     inkscape:window-height="1025"
     id="namedview71"
     showgrid="false"
     inkscape:zoom="0.921875"
     inkscape:cx="286.37288"
     inkscape:cy="299.38983"
     inkscape:window-x="67"
     inkscape:window-y="27"
     inkscape:window-maximized="1"
     inkscape:current-layer="g904" />
  <g
     id="g68">
    <g
       id="g904"
       transform="matrix(1.0619785,0,0,1.0619785,-0.12395709,-0.340882)">
      <g
         transform="translate(-4.4270485,1.2208193)"
         id="g4">
        <path
           style="fill:#db9e68"
           inkscape:connector-curvature="0"
           id="path2"
           d="m 18,15.5 v -8 c 0,-1.105 0.895,-2 2,-2 4.418,0 8,3.582 8,8 v 2 z" />
      </g>
      <g
         id="g8">
        <path
           id="path6"
           d="m 4,33.5 h 4 v -10 H 4 c -1.105,0 -2,0.895 -2,2 v 6 c 0,1.105 0.895,2 2,2 z"
           inkscape:connector-curvature="0"
           style="fill:#db9e68" />
      </g>
      <g
         transform="matrix(0.94188862,0,0,1,0.34866828,0)"
         id="g34">
        <path
           style="fill:#eec78e"
           inkscape:connector-curvature="0"
           id="path32"
           d="M 47,13.5 H 21 c -8.284,0 -15,6.716 -15,15 0,8.284 6.716,15 15,15 h 26 c 8.284,0 15,-6.716 15,-15 0,-8.284 -6.716,-15 -15,-15 z" />
      </g>
      <g
         transform="matrix(0.94115766,0,0,1,0.52958107,0)"
         id="g38">
        <path
           style="fill:#db9e68"
           inkscape:connector-curvature="0"
           id="path36"
           d="m 62,28.5 c 0,8.28 -6.72,15 -15,15 H 21 C 16.86,43.5 13.11,41.82 10.4,39.1 9.9,38.6 9.43,38.07 9,37.5 h 27 c 11.05,0 20,-8.95 20,-20 v -1 c 0.57,0.43 1.1,0.9 1.6,1.4 2.72,2.71 4.4,6.46 4.4,10.6 z" />
      </g>
      <g
         transform="matrix(0.86440678,0,0,1,3.3898305,0)"
         id="g42">
        <path
           style="fill:#55525b"
           inkscape:connector-curvature="0"
           id="path40"
           d="m 27,21.5 h 20 c 1.105,0 2,-0.895 2,-2 0,-1.105 -0.895,-2 -2,-2 H 27 c -1.105,0 -2,0.895 -2,2 0,1.105 0.895,2 2,2 z" />
      </g>
      <g
         id="g46"
         transform="translate(-2.8249162,-0.23540966)">
        <circle
           id="circle44"
           r="2"
           cy="23.5"
           cx="18"
           style="fill:#55525b" />
      </g>
      <g
         id="g50">
        <path
           id="path48"
           d="m 29,49.5 h -6 c -1.105,0 -2,-0.895 -2,-2 v -4 h 10 v 4 c 0,1.105 -0.895,2 -2,2 z"
           inkscape:connector-curvature="0"
           style="fill:#db9e68" />
      </g>
      <g
         id="g54">
        <path
           id="path52"
           d="m 45,49.5 h -6 c -1.105,0 -2,-0.895 -2,-2 v -4 h 10 v 4 c 0,1.105 -0.895,2 -2,2 z"
           inkscape:connector-curvature="0"
           style="fill:#db9e68" />
      </g>
      <path
         style="fill:#f68820"
         inkscape:connector-curvature="0"
         id="path56"
         d="m 36.75,5.5 h -2 c -4.971,0 -9,4.029 -9,9 0,4.97 4.029,9 9,9 h 2 c 4.971,0 9,-4.029 9,-9 0,-4.971 -4.029,-9 -9,-9 z" />
      <g
         id="g60">
        <circle
           style="fill:#fbbe18"
           id="circle58"
           r="9"
           cy="14.5"
           cx="34.75" />
      </g>
      <path
         style="fill:#f68820"
         inkscape:connector-curvature="0"
         id="path62"
         d="m 34.75,13.5 c -0.827,0 -1.5,-0.673 -1.5,-1.5 0,-0.827 0.673,-1.5 1.5,-1.5 0.827,0 1.5,0.673 1.5,1.5 0,0.553 0.448,1 1,1 0.552,0 1,-0.447 1,-1 0,-1.58 -1.059,-2.903 -2.5,-3.337 V 8 c 0,-0.553 -0.448,-1 -1,-1 -0.552,0 -1,0.447 -1,1 v 0.663 c -1.441,0.434 -2.5,1.757 -2.5,3.337 0,1.93 1.57,3.5 3.5,3.5 0.827,0 1.5,0.673 1.5,1.5 0,0.827 -0.673,1.5 -1.5,1.5 -0.827,0 -1.5,-0.673 -1.5,-1.5 0,-0.553 -0.448,-1 -1,-1 -0.552,0 -1,0.447 -1,1 0,1.58 1.059,2.903 2.5,3.337 V 21 c 0,0.553 0.448,1 1,1 0.552,0 1,-0.447 1,-1 v -0.663 c 1.441,-0.433 2.5,-1.757 2.5,-3.337 0,-1.93 -1.57,-3.5 -3.5,-3.5 z" />
      <g
         id="g66">
        <path
           id="path64"
           d="m 29.5,21.5 h 15 v 4 h -15 z"
           inkscape:connector-curvature="0"
           style="fill:#eec78e" />
      </g>
    </g>
  </g>
</svg>
