<?xml version="1.0" encoding="iso-8859-1"?>
<!-- Generator: Adobe Illustrator 19.0.0, SVG Export Plug-In . SVG Version: 6.00 Build 0)  -->
<svg version="1.1" id="Layer_1" xmlns="http://www.w3.org/2000/svg" xmlns:xlink="http://www.w3.org/1999/xlink" x="0px" y="0px"
	 viewBox="0 0 512 512" style="enable-background:new 0 0 512 512;" xml:space="preserve">
<path style="fill:#333333;" d="M295.338,447.198c0,22.391,20.175,40.607,44.973,40.607s44.971-18.217,44.971-40.607
	c0-22.391-20.174-40.607-44.971-40.607C315.512,406.59,295.338,424.807,295.338,447.198z M327.365,469.302
	c-1.056,1.056-2.521,1.669-4.008,1.669c-1.498,0-2.962-0.613-4.018-1.669c-1.057-1.056-1.659-2.521-1.659-4.008
	c0-1.499,0.602-2.964,1.659-4.02c1.056-1.056,2.521-1.658,4.018-1.658c1.489,0,2.953,0.602,4.008,1.658
	c1.057,1.056,1.669,2.521,1.669,4.02C329.035,466.78,328.423,468.246,327.365,469.302z M353.255,461.273
	c1.057-1.056,2.522-1.658,4.008-1.658c1.499,0,2.964,0.602,4.02,1.658c1.056,1.056,1.658,2.521,1.658,4.02
	c0,1.499-0.602,2.952-1.658,4.008s-2.521,1.669-4.02,1.669c-1.487,0-2.952-0.613-4.008-1.669s-1.669-2.511-1.669-4.008
	S352.199,462.33,353.255,461.273z"/>
<path d="M303.556,407.871h-25.522c-7.77,0-14.09,6.322-14.09,14.094v5.599c0,1.759,0.818,3.313,2.075,4.355h-2.831
	c-7.771,0-14.094,6.322-14.094,14.094v7.44c0,3.135,2.542,5.677,5.677,5.677c0.65,0,1.264-0.132,1.844-0.333
	c-2.24,2.496-3.617,5.783-3.617,9.393v14.062c0,3.135,2.542,5.677,5.677,5.677c3.136,0,5.677-2.542,5.677-5.677v-14.062
	c0-1.51,1.229-2.738,2.738-2.738h20.488c0.941,2.306,2.052,4.537,3.325,6.674h-7.042c-7.771,0-14.094,6.322-14.094,14.094v20.103
	c0,3.135,2.541,5.677,5.677,5.677c3.136,0,5.677-2.542,5.677-5.677V486.22c0-1.51,1.229-2.739,2.739-2.739h16.181
	c10.235,9.663,24.502,15.679,40.269,15.679s30.033-6.015,40.267-15.679h16.181c1.511,0,2.741,1.229,2.741,2.739v20.103
	c0,3.135,2.541,5.677,5.677,5.677c3.136,0,5.677-2.542,5.677-5.677V486.22c0-7.771-6.324-14.094-14.096-14.094h-7.042
	c1.273-2.138,2.383-4.368,3.325-6.674h20.49c1.509,0,2.737,1.229,2.737,2.738v14.062c0,3.135,2.541,5.677,5.677,5.677
	s5.677-2.542,5.677-5.677v-14.062c0-3.611-1.376-6.897-3.617-9.393c0.581,0.2,1.195,0.333,1.843,0.333
	c3.136,0,5.677-2.542,5.677-5.677v-7.44c0-7.771-6.322-14.094-14.094-14.094h-2.827c1.257-1.041,2.075-2.595,2.075-4.355v-5.599
	c0-7.771-6.322-14.094-14.094-14.094h-25.522c-8.525-6.79-19.262-11.277-31.075-12.372v-6.871v-80.49
	c3.263-0.401,6.375-0.621,9.254-0.621c7.981,0,13.812,1.559,16.898,4.503l8.661,8.661c1.108,1.108,2.562,1.662,4.014,1.662
	c1.452,0,2.907-0.554,4.014-1.662c2.218-2.218,2.218-5.813,0-8.029l-8.166-8.168c-0.175-0.206-0.358-0.402-0.56-0.581
	c-7.806-8.37-4.986-35.609,6.653-63.713c11.198-27.038,27.139-46.663,37.907-46.663h13.508c3.136,0,5.677-2.542,5.677-5.677
	s-2.541-5.677-5.677-5.677h-13.508c-11.296,0-28.57-21.154-40.18-49.206c-11.104-26.826-13.68-51.775-6.126-59.321
	c0.211-0.211,10.473-10.595,10.473-10.595c2.218-2.218,2.218-5.813,0-8.029c-2.215-2.216-5.813-2.216-8.028,0l-11.256,11.256
	c-2.974,2.372-8.052,3.634-14.837,3.634c-35.649,0-93.032-31.286-93.032-50.722V5.677C261.677,2.542,259.136,0,256,0
	c-3.135,0-5.677,2.542-5.677,5.677v13.51c0,8.662-12.916,21.025-32.906,31.494c-20.299,10.632-44.096,17.502-60.624,17.502
	c-8.113,0-14.009-1.609-17.051-4.651c-0.056-0.056-8.546-8.513-8.546-8.513c-2.218-2.216-5.811-2.216-8.029,0
	c-2.218,2.218-2.218,5.813,0,8.029l8.813,8.813c7.737,8.426,4.906,35.584-6.707,63.616c-11.21,27.056-27.164,46.695-37.937,46.695
	H73.828c-3.135,0-5.677,2.542-5.677,5.677s2.542,5.677,5.677,5.677h13.508c11.345,0,28.711,21.254,40.395,49.439
	c10.644,25.675,13.452,49.61,7.005,58.117l-11.568,11.568c-2.218,2.218-2.218,5.813,0,8.029c1.109,1.108,2.562,1.662,4.015,1.662
	c1.452,0,2.906-0.554,4.015-1.662c0,0,10.494-10.351,10.738-10.595c2.807-2.81,8.194-4.294,15.579-4.294
	c35.562,0,92.809,31.286,92.809,50.722v13.51c0,3.135,2.542,5.677,5.677,5.677c3.136,0,5.677-2.542,5.677-5.677v-13.51
	c0-8.663,12.922-21.025,32.918-31.494c12.856-6.731,27.111-11.947,40.038-14.874v78.482v6.871
	C322.821,396.595,312.083,401.081,303.556,407.871z M135.763,139.824c6.72-16.22,12.152-36.077,11.9-52.278l20.257,20.257
	c4.279,4.778,3.576,21.86-5.067,42.718c-8.518,20.559-19.237,31.653-24.998,31.653h-28.33
	C120.056,171.695,129.291,155.448,135.763,139.824z M205.027,166.127c-4.336,11.052-9.626,15.891-11.079,16.047h-36.707
	c6.463-7.434,12.057-17.539,16.104-27.306c4.385-10.584,7.824-22.645,8.431-33.21l25.977,25.975
	C208.665,148.785,209.16,155.59,205.027,166.127z M208.602,227.218l-25.601,25.601c-0.972-12.109-5.742-24.775-7.934-30.061
	c-4.355-10.504-10.409-21.379-17.397-29.23h36.268c1.606,0.133,6.653,4.753,11.079,14.859
	C209.592,218.834,209.437,225.823,208.602,227.218z M138.22,238.618c-6.676-16.102-16.797-33.872-28.346-45.09h27.982
	c6.292,0,18.008,12.56,26.723,33.579c8.047,19.409,8.657,34.166,5.196,38.938l-20.262,20.262
	C149.477,271.664,144.585,253.971,138.22,238.618z M250.323,333.881c-20.846-21.608-65.576-39.445-92.809-39.445
	c-0.025,0-0.048,0.001-0.073,0.001c0,0,19.691-19.587,19.867-19.763c1.616-1.618,5.063-2.509,9.707-2.509
	c10.994,0,27.133,4.93,41.117,12.56c15.33,8.363,22.192,16.709,22.192,21.27v27.886H250.323z M250.323,249.921v36.295
	c-5.469-4.849-11.876-8.798-16.753-11.458c-14.246-7.772-30.171-12.87-42.664-13.785c0,0,25.596-25.546,25.648-25.6
	c0.07-0.048,0.861-0.544,3.21-0.544c12.393,0,30.244,11.144,30.558,15.08C250.323,249.914,250.323,249.918,250.323,249.921z
	 M209.507,182.173c2.754-4.19,4.671-8.444,5.573-10.619c0.989-2.387,2.835-7.274,3.891-12.702l23.321,23.321L209.507,182.173
	L209.507,182.173z M242.293,193.528l-22.77,22.77c-0.958-4.459-2.463-8.545-3.538-11.137c-0.981-2.367-3.111-7.084-6.173-11.633
	H242.293z M250.323,234.074c-6.789-4.607-15.488-8.081-22.86-9.658l22.86-22.859V234.074z M250.323,174.145l-23.372-23.371
	c7.562-1.467,16.466-4.839,23.372-9.393V174.145z M250.323,125.784c-0.439,3.982-17.81,14.453-30.819,14.453
	c-2.899,0-3.754-0.677-3.757-0.68c-0.001,0-26-25.988-26-25.988c12.824-0.756,29.217-5.659,43.707-13.248
	c4.911-2.573,11.369-6.409,16.87-11.16V125.784z M250.323,69.708c0,11.233-38.148,32.62-63.814,32.62
	c-5.147,0-8.962-0.98-10.741-2.759c-0.039-0.039-0.085-0.065-0.125-0.102l-19.947-19.946c0.367,0.006,0.724,0.02,1.098,0.02
	c18.505,0,43.754-7.202,65.892-18.799c8.129-4.258,19.325-10.987,27.637-19.295V69.708z M306.983,209.569
	c4.332-11.047,9.618-15.885,11.069-16.04c0.007,0,0.012,0,0.019,0h36.691c-6.459,7.431-12.044,17.527-16.088,27.289
	c-4.39,10.598-7.829,22.675-8.43,33.249l-25.874-25.873c-0.055-0.057-0.096-0.125-0.153-0.179
	C303.334,226.7,302.919,219.936,306.983,209.569z M303.552,148.373c0.009-0.009,0.017-0.017,0.025-0.026
	c0.073-0.073,25.665-25.71,25.665-25.71c0.693,9.765,3.861,20.786,7.878,30.488c4.319,10.433,10.323,21.235,17.255,29.047h-36.314
	c-1.607-0.134-6.648-4.766-11.052-14.89C302.353,156.576,302.658,149.501,303.552,148.373z M355.244,296.163
	c-2.924,0-6.033,0.2-9.254,0.547v-10.842l10.315,10.315C355.949,296.178,355.604,296.163,355.244,296.163z M376.268,235.847
	c-6.728,16.243-12.162,36.131-11.895,52.348c0,0-20.237-20.262-20.274-20.296c-4.275-4.792-3.571-21.883,5.067-42.738
	c8.51-20.547,19.222-31.634,24.98-31.634h28.335C391.958,204.002,382.733,220.235,376.268,235.847z M362.705,89.177
	c-0.044,14.747,4.87,32.628,11.287,48.133c6.63,16.016,16.683,33.688,28.167,44.864h-28.015c-6.249,0-17.881-12.49-26.533-33.39
	c-8.465-20.451-8.733-35.784-4.686-39.826c0.001-0.001,0.001-0.002,0.002-0.002L362.705,89.177z M261.677,41.797
	c20.842,21.581,65.568,39.401,92.884,39.464l-19.66,19.66c0,0.001-0.001,0.001-0.002,0.002c-1.628,1.627-5.103,2.523-9.786,2.523
	c-11.031,0-27.209-4.916-41.215-12.523c-15.35-8.337-22.22-16.662-22.22-21.215v-27.91H261.677z M261.677,89.452
	c5.482,4.849,11.909,8.793,16.801,11.45c14.249,7.739,30.192,12.803,42.706,13.737l-25.745,25.744
	c-0.271,0.142-1.142,0.489-3.125,0.489c-12.413,0-30.324-11.153-30.637-15.072L261.677,89.452L261.677,89.452z M302.497,193.528
	c-2.75,4.185-4.665,8.433-5.564,10.607c-0.99,2.389-2.84,7.289-3.896,12.724l-23.331-23.331H302.497z M269.708,182.173l22.86-22.86
	c1.008,4.854,2.637,9.165,3.528,11.316c0.973,2.349,3.081,7.026,6.115,11.543H269.708z M261.677,141.615
	c6.788,4.603,15.489,8.076,22.871,9.66l-22.871,22.87V141.615z M261.677,201.558l23.372,23.372
	c-7.564,1.468-16.467,4.841-23.372,9.392V201.558z M261.677,249.919c0.442-3.982,17.82-14.454,30.833-14.454
	c2.777,0,3.655,0.6,3.724,0.651l26.02,26.02c-12.826,0.761-29.214,5.662-43.698,13.245c-4.914,2.573-11.375,6.41-16.879,11.162
	L261.677,249.919L261.677,249.919z M289.33,314.96c-8.133,4.258-19.335,10.988-27.651,19.299v-28.262
	c0-4.46,6.848-12.545,22.147-20.556c13.999-7.331,30.365-12.066,41.693-12.066c3.914,0,7.053,0.569,9.117,1.623v23.522
	C320.079,301.523,304.024,307.267,289.33,314.96z M267.093,454.097c-2.712,0-5.236,0.782-7.387,2.114
	c0.46-0.821,0.744-1.752,0.744-2.76v-7.44c0-1.51,1.229-2.739,2.739-2.739h20.973c-0.106,1.297-0.177,2.603-0.177,3.925
	c0,2.34,0.185,4.64,0.511,6.899H267.093z M286.472,431.917h-13.248c1.257-1.041,2.075-2.595,2.075-4.355v-5.599
	c0-1.51,1.227-2.739,2.735-2.739h14.843C290.16,423.134,287.984,427.391,286.472,431.917z M417.432,443.272
	c1.51,0,2.739,1.229,2.739,2.739v7.44c0,1.007,0.284,1.938,0.744,2.758c-2.152-1.331-4.676-2.113-7.385-2.113h-17.402
	c0.326-2.259,0.511-4.559,0.511-6.899c0-1.322-0.072-2.628-0.177-3.925h20.971V443.272z M402.586,419.226
	c1.51,0,2.739,1.229,2.739,2.739v5.599c0,1.759,0.818,3.313,2.075,4.355h-13.251c-1.512-4.526-3.688-8.783-6.405-12.691h14.843
	V419.226z M385.283,447.198c0,22.391-20.174,40.607-44.971,40.607c-24.799,0-44.973-18.217-44.973-40.607
	c0-22.391,20.175-40.607,44.973-40.607C365.109,406.59,385.283,424.807,385.283,447.198z"/>
<path d="M323.357,459.615c-1.498,0-2.962,0.602-4.018,1.658c-1.057,1.056-1.659,2.521-1.659,4.02c0,1.487,0.602,2.952,1.659,4.008
	c1.056,1.056,2.521,1.669,4.018,1.669c1.489,0,2.953-0.613,4.008-1.669c1.057-1.056,1.669-2.521,1.669-4.008
	c0-1.499-0.612-2.964-1.669-4.02C326.309,460.218,324.845,459.615,323.357,459.615z"/>
<path d="M357.263,470.97c1.499,0,2.964-0.613,4.02-1.669c1.056-1.056,1.658-2.511,1.658-4.008s-0.602-2.964-1.658-4.02
	c-1.056-1.056-2.521-1.658-4.02-1.658c-1.487,0-2.952,0.602-4.008,1.658c-1.056,1.056-1.669,2.521-1.669,4.02
	c0,1.499,0.613,2.952,1.669,4.008S355.775,470.97,357.263,470.97z"/>
<g>
</g>
<g>
</g>
<g>
</g>
<g>
</g>
<g>
</g>
<g>
</g>
<g>
</g>
<g>
</g>
<g>
</g>
<g>
</g>
<g>
</g>
<g>
</g>
<g>
</g>
<g>
</g>
<g>
</g>
</svg>
