<?xml version="1.0" encoding="UTF-8" standalone="no"?>
<svg
   xmlns:dc="http://purl.org/dc/elements/1.1/"
   xmlns:cc="http://creativecommons.org/ns#"
   xmlns:rdf="http://www.w3.org/1999/02/22-rdf-syntax-ns#"
   xmlns:svg="http://www.w3.org/2000/svg"
   xmlns="http://www.w3.org/2000/svg"
   xmlns:sodipodi="http://sodipodi.sourceforge.net/DTD/sodipodi-0.dtd"
   xmlns:inkscape="http://www.inkscape.org/namespaces/inkscape"
   height="511pt"
   viewBox="-2 0 511 511.99662"
   width="511pt"
   version="1.1"
   id="svg14"
   sodipodi:docname="wifi.svg"
   inkscape:version="0.92.3 (2405546, 2018-03-11)">
  <metadata
     id="metadata20">
    <rdf:RDF>
      <cc:Work
         rdf:about="">
        <dc:format>image/svg+xml</dc:format>
        <dc:type
           rdf:resource="http://purl.org/dc/dcmitype/StillImage" />
      </cc:Work>
    </rdf:RDF>
  </metadata>
  <defs
     id="defs18" />
  <sodipodi:namedview
     pagecolor="#ffffff"
     bordercolor="#666666"
     borderopacity="1"
     objecttolerance="10"
     gridtolerance="10"
     guidetolerance="10"
     inkscape:pageopacity="0"
     inkscape:pageshadow="2"
     inkscape:window-width="1853"
     inkscape:window-height="1025"
     id="namedview16"
     showgrid="false"
     inkscape:zoom="0.34637965"
     inkscape:cx="340.66667"
     inkscape:cy="340.66667"
     inkscape:window-x="67"
     inkscape:window-y="27"
     inkscape:window-maximized="1"
     inkscape:current-layer="svg14" />
  <g
     fill="#955ba5"
     id="g8"
     style="fill:#00c2ff;fill-opacity:1">
    <path
       d="m44.003906 149.800781c55.597656-56.09375 131.300782-87.648437 210.277344-87.648437s154.679688 31.554687 210.273438 87.648437l43.507812-43.847656c-67.046875-67.800781-158.433594-105.953125-253.78125-105.953125-95.351562 0-186.738281 38.152344-253.78125 105.953125zm0 0"
       id="path2"
       style="fill:#00c2ff;fill-opacity:1" />
    <path
       d="m377.542969 237.496094c-32.589844-32.882813-76.96875-51.382813-123.265625-51.382813s-90.675782 18.5-123.265625 51.382813l-43.507813-43.847656c44.09375-44.488282 104.136719-69.515626 166.773438-69.515626 62.636718 0 122.675781 25.027344 166.769531 69.515626zm0 0"
       id="path4"
       style="fill:#00c2ff;fill-opacity:1" />
    <path
       d="m205.105469 312.226562-30.628907-30.894531c21.105469-21.273437 49.832032-33.234375 79.800782-33.234375 29.964844 0 58.691406 11.960938 79.800781 33.234375l-30.632813 30.894531zm0 0"
       id="path6"
       style="fill:#00c2ff;fill-opacity:1" />
  </g>
  <path
     d="m360.207031 406.066406c0 58.503906-47.425781 105.929688-105.929687 105.929688s-105.933594-47.425782-105.933594-105.929688 47.429688-105.933594 105.933594-105.933594 105.929687 47.429688 105.929687 105.933594zm0 0"
     fill="#14a085"
     id="path10" />
  <path
     d="m236.621094 467.859375c-2.339844 0-4.585938-.929687-6.242188-2.585937l-35.308594-35.3125c-3.347656-3.460938-3.296874-8.96875.105469-12.375 3.40625-3.402344 8.914063-3.453126 12.375-.105469l27.699219 27.699219 64.648438-96.976563c2.722656-4.003906 8.164062-5.066406 12.195312-2.378906 4.03125 2.683593 5.144531 8.117187 2.492188 12.171875l-70.621094 105.933594c-1.464844 2.195312-3.84375 3.621093-6.472656 3.882812-.292969.027344-.582032.046875-.871094.046875zm0 0"
     fill="#fff"
     id="path12" />
</svg>
